<?xml version="1.0" encoding="UTF-8"?><svg id="_レイヤー_2" xmlns="http://www.w3.org/2000/svg" viewBox="0 0 401.8099 284.00569"><g id="_レイヤー_2-2"><path d="m131.11069,250.05193c-29.51072-18.37868-32.05874-1.18874-68.55559-29.17961C26.05824,192.88145-16.99268,137.38051,6.88122,107.63849c23.87389-29.74203,83.74756,13.51854,105.06294,29.06846,21.31538,15.54993,19.53775,31.73537,34.94009,43.54803,15.40234,11.81266,32.99244,24.23964,68.73162,44.20448,21.73479,12.14163,19.09274,37.50957,10.61845,48.55907-8.4743,11.04951-28.27759,16.06927-53.04529,3.9871-19.72103-9.6203-12.5676-8.57502-42.07832-26.95371Z" fill="#03638d"/><path d="m155.33814,205.56706c-16.36769-30.67177-27.16932-17.05885-44.78108-59.54808-17.61177-42.48923-27.14448-112.07991,8.40193-125.90032,35.54641-13.82041,65.76824,53.58117,76.45294,77.7055,10.68469,24.12432,1.0525,37.25251,8.48499,55.18375,7.43249,17.93123,16.45247,37.48836,37.42109,72.64801,12.75207,21.38235-2.21998,42.03061-15.08369,47.36261-12.86371,5.332-32.52374-.2224-47.93212-23.06972-12.26876-18.19194-6.59635-13.70999-22.96404-44.38176Z" fill="#1289a1"/><path d="m198.56216,179.15576c1.16105-34.74638-14.99989-28.35805-9.00752-73.96069C195.54702,59.59244,222.08678-5.44122,259.78108.36317c37.6943,5.80438,30.16638,79.28678,27.35744,105.5214-2.80894,26.23462-17.71477,32.78787-20.24366,52.03302-2.52889,19.24515-4.49592,40.69211-3.91639,81.62556.35244,24.8937-22.93787,35.28959-36.74417,33.47538-13.8063-1.81421-28.05519-16.45448-29.97558-43.94502-1.52909-21.88906,1.14239-15.17137,2.30343-49.91775Z" fill="#59bfb9"/><path d="m249.20091,177.89492c18.37868-29.51072,1.18874-32.05874,29.17961-68.55559,27.99087-36.49685,83.49181-79.54777,113.23383-55.67388,29.74203,23.87389-13.51854,83.74756-29.06846,105.06294-15.54993,21.31538-31.73537,19.53775-43.54803,34.94009-11.81266,15.40234-24.23964,32.99244-44.20448,68.73162-12.14163,21.73479-37.50957,19.09274-48.55907,10.61845-11.04951-8.4743-16.06927-28.27759-3.9871-53.04529,9.6203-19.72103,8.57502-12.5676,26.95371-42.07832Z" fill="#f4a452"/></g></svg>