<?xml version="1.0" encoding="UTF-8"?><svg id="_レイヤー_2" xmlns="http://www.w3.org/2000/svg" width="524.071" height="562" viewBox="0 0 524.071 562"><defs><style>.cls-1{fill:#f4a452;}.cls-2{fill:#1289a1;}</style></defs><g id="_イラスト素材"><circle class="cls-1" cx="353.895" cy="158.5" r="148.5"/><path class="cls-2" d="m353.895,317c-87.397,0-158.5-71.103-158.5-158.5S266.498,0,353.895,0s158.5,71.103,158.5,158.5-71.103,158.5-158.5,158.5Zm0-297c-76.369,0-138.5,62.131-138.5,138.5s62.131,138.5,138.5,138.5,138.5-62.131,138.5-138.5S430.265,20,353.895,20Z"/><rect class="cls-1" x="329.395" y="453" width="50" height="99" rx="25" ry="25"/><path class="cls-2" d="m354.395,562c-19.299,0-35-15.701-35-35v-49c0-19.299,15.701-35,35-35s35,15.701,35,35v49c0,19.299-15.701,35-35,35Zm0-99c-8.271,0-15,6.729-15,15v49c0,8.271,6.729,15,15,15s15-6.729,15-15v-49c0-8.271-6.729-15-15-15Z"/><rect class="cls-1" x="206.828" y="321.426" width="50" height="99" rx="25" ry="25" transform="translate(216.522 -66.22) rotate(30)"/><path class="cls-2" d="m219.519,427.137c-5.934,0-11.942-1.508-17.44-4.682h0c-16.713-9.65-22.459-31.098-12.811-47.812l24.5-42.435c4.674-8.097,12.222-13.888,21.252-16.308,9.028-2.421,18.462-1.18,26.559,3.496,16.713,9.649,22.46,31.098,12.812,47.812l-24.5,42.435c-6.476,11.216-18.265,17.493-30.371,17.493Zm-7.44-22.002c7.163,4.133,16.355,1.672,20.491-5.491l24.5-42.435c4.135-7.163,1.672-16.355-5.491-20.491-3.469-2.003-7.512-2.537-11.382-1.498-3.87,1.037-7.104,3.519-9.108,6.989l-24.5,42.435c-4.135,7.163-1.672,16.355,5.49,20.491h0Z"/><rect class="cls-1" x="31.233" y="281.433" width="50" height="99" rx="25" ry="25" transform="translate(314.713 116.768) rotate(60)"/><path class="cls-2" d="m35.074,378.176c-12.105,0-23.895-6.277-30.37-17.493h0c-4.675-8.097-5.916-17.528-3.496-26.559,2.419-9.03,8.211-16.578,16.307-21.252l42.436-24.5c16.714-9.649,38.16-3.903,47.811,12.811,9.65,16.713,3.903,38.161-12.811,47.812l-42.436,24.5c-5.497,3.174-11.507,4.682-17.44,4.682Zm-13.05-27.493c4.136,7.162,13.328,9.626,20.49,5.491l42.436-24.5c7.163-4.136,9.626-13.328,5.49-20.491-4.135-7.161-13.327-9.628-20.49-5.49l-42.436,24.5c-3.47,2.003-5.951,5.238-6.988,9.108s-.505,7.912,1.498,11.382h0Z"/><rect class="cls-1" x="83.895" y="109.5" width="50" height="99" rx="25" ry="25" transform="translate(267.895 50.105) rotate(90)"/><path class="cls-2" d="m133.395,194h-49c-19.299,0-35-15.701-35-35s15.701-35,35-35h49c19.299,0,35,15.701,35,35s-15.701,35-35,35Zm-49-50c-8.271,0-15,6.729-15,15s6.729,15,15,15h49c8.271,0,15-6.729,15-15s-6.729-15-15-15h-49Z"/><rect class="cls-1" x="451.828" y="320.926" width="50" height="99" rx="25" ry="25" transform="translate(-121.33 288.042) rotate(-30)"/><path class="cls-2" d="m489.136,426.659c-3.041,0-6.101-.399-9.116-1.208-9.03-2.42-16.578-8.211-21.252-16.308l-24.5-42.435c-9.648-16.714-3.902-38.161,12.811-47.812,16.712-9.649,38.161-3.901,47.812,12.812l24.5,42.435c9.648,16.714,3.901,38.162-12.812,47.812h0c-5.393,3.113-11.378,4.704-17.442,4.704Zm-24.583-92.447c-2.543,0-5.119.646-7.475,2.006-7.162,4.136-9.625,13.328-5.49,20.491l24.5,42.435c2.004,3.471,5.238,5.952,9.108,6.989,3.869,1.038,7.911.504,11.382-1.498,7.163-4.136,9.626-13.328,5.491-20.491l-24.5-42.435c-2.775-4.807-7.828-7.497-13.017-7.497Z"/></g></svg>