<?xml version="1.0" encoding="utf-8"?>
<!-- Generator: Adobe Illustrator 27.5.0, SVG Export Plug-In . SVG Version: 6.00 Build 0)  -->
<svg version="1.1" id="_レイヤー_2" xmlns="http://www.w3.org/2000/svg" xmlns:xlink="http://www.w3.org/1999/xlink" x="0px"
	 y="0px" viewBox="0 0 160 130" style="enable-background:new 0 0 160 130;" xml:space="preserve">
<style type="text/css">
	.st0{fill:#F2B254;}
	.st1{fill:#F4A452;}
	.st2{fill:#E99411;}
</style>
<g id="_イラスト素材">
	<path class="st0" d="M103.9,110.6c-0.3-3.7-1.8-9-7.5-13.2c-15.3-11.2-22.2-17.8-27.5-23c-2.2-2.2-3.2-4.6-4.4-7.6
		c-1.5-3.9-3.4-8.7-8.7-13.7C44.3,42.4,29.5,30.1,16.8,30.1c-4.4,0-8.2,1.5-11.3,4.5C1.9,38,0,42.7,0,48.4
		c-0.1,14.5,12.3,33.4,23.8,44.8c8.9,8.8,13.9,10.2,18.3,11.5c3.2,0.9,6,1.7,10.7,5.5c5.4,4.4,7.7,6.5,9.3,8.1
		c2.1,2,3.4,3.3,8.1,6.4c5.4,3.5,11,5.4,16.2,5.4c4.9,0,9.3-1.7,12.3-4.7C102.3,121.7,104.3,116,103.9,110.6z"/>
	<path class="st1" d="M98.9,72.5c-0.1-3.1,0.8-5.5,2.1-8.5c1.5-3.9,3.5-8.7,3.1-15.9c-0.3-5.6-1-17.2-3.9-27.4
		c-1.6-5.9-3.8-10.5-6.5-13.9C90.2,2.3,85.6,0,80.6,0l-0.2,0c-5.1,0.1-9.6,2.2-13.6,6.3C56.7,16.8,52.7,39,53.3,55.2
		c0.4,12.5,3.1,16.9,5.4,20.9c1.7,2.9,3.2,5.3,4,11.3c0.9,6.9,1.1,10,1.2,12.3c0.1,2.9,0.2,4.7,1.5,10.2c1.5,6.1,4.2,11.3,7.8,14.8
		c3.5,3.4,7.7,5.3,12,5.3c0.2,0,0.3,0,0.5,0c5-0.2,10.4-3,13.8-7.2c2.3-2.9,4.9-7.8,3.6-14.7C99.7,89.4,99.1,79.9,98.9,72.5
		L98.9,72.5z"/>
	<path class="st2" d="M159.4,32.8c-1.1-5.6-3.9-9.8-8.1-12.5c-2.6-1.7-5.5-2.5-8.5-2.5c-13.5,0-26.9,16.3-37.1,30.6
		c-4.2,5.9-5.2,11-5.9,15.1c-0.6,3.2-1.1,5.7-2.8,8.3c-4.2,6.2-9.7,13.9-22.5,27.9c-4.8,5.2-5.2,10.7-4.8,14.4
		c0.6,5.4,3.7,10.6,7.8,13.4c2.5,1.7,5.7,2.6,9.1,2.6h0c6.3,0,13-3.1,18.8-8.8c4.1-4,5.1-5.4,6.7-7.8c1.3-1.9,3.1-4.5,7.5-9.8
		c3.9-4.6,6.4-5.9,9.4-7.5c4.1-2.1,8.8-4.5,15.8-14.8C153.8,67.9,162.3,47,159.4,32.8z"/>
</g>
</svg>
