<?xml version="1.0" encoding="UTF-8"?><svg id="_レイヤー_2" xmlns="http://www.w3.org/2000/svg" width="188.99" height="272.562" viewBox="0 0 188.99 272.562"><defs><style>.cls-1{fill:#fff;}.cls-2{fill:#1289a1;}</style></defs><g id="_イラスト素材"><path class="cls-1" d="m111.079,208.259l57.91,44.303-9.413-72.303c-21.412.246-37.578,9.579-48.497,28Z"/><path class="cls-2" d="m131.393,187.443c8.083-4.667,17.477-7.061,28.184-7.184l9.413,72.303-57.91-44.303c5.46-9.21,12.231-16.149,20.314-20.816m-10-17.321c-11.054,6.382-20.312,15.782-27.518,27.938-5.168,8.719-2.998,19.925,5.052,26.083l57.91,44.303c6.416,4.909,15.156,5.475,22.152,1.436s10.876-11.891,9.833-19.902l-9.413-72.303c-1.308-10.05-9.928-17.533-20.062-17.417-14.13.162-26.9,3.481-37.954,9.863h0Z"/><polygon class="cls-1" points="111.079 208.259 168.989 252.562 159.577 180.259 102.66 81.677 54.453 109.51 111.079 208.259"/><path class="cls-2" d="m102.66,81.677l56.916,98.582,9.413,72.303-57.91-44.303-56.626-98.749,48.208-27.833m-10-17.321l-48.208,27.833c-9.546,5.511-12.833,17.707-7.35,27.27l56.626,98.749c1.321,2.304,3.088,4.322,5.197,5.936l57.91,44.303c6.416,4.909,15.156,5.475,22.152,1.436s10.876-11.891,9.833-19.902l-9.413-72.303c-.34-2.614-1.194-5.135-2.512-7.418l-56.916-98.582c-5.523-9.566-17.755-12.843-27.321-7.321h0Z"/><path class="cls-1" d="m159.577,180.259c-21.412.246-37.578,9.579-48.497,28L21.079,52.374c-8.752-15.159,39.746-43.159,48.497-28l90,155.885Z"/><path class="cls-2" d="m38.764,27.005c12.124-7,26.437-10.21,30.813-2.631l90,155.885c-10.706.123-20.101,2.518-28.184,7.184-8.083,4.667-14.854,11.605-20.314,20.816L21.079,52.374c-4.376-7.579,5.56-18.369,17.685-25.369m-10-17.321c-6.075,3.507-14.636,9.416-20.923,17.647C-4.658,43.693.822,57.289,3.759,62.374l90,155.885c3.552,6.153,10.101,9.959,17.206,10,3.612.021,7.091-.933,10.115-2.679,2.925-1.689,5.423-4.118,7.204-7.122,3.714-6.266,8.002-10.745,13.109-13.693s11.13-4.423,18.413-4.506c3.492-.04,6.846-.99,9.77-2.678,3.024-1.746,5.59-4.282,7.378-7.42,3.517-6.173,3.495-13.748-.057-19.9L86.897,14.374c-2.936-5.086-11.97-16.629-32.389-13.986-10.272,1.33-19.67,5.79-25.744,9.297h0Z"/><circle class="cls-2" cx="168.828" cy="252.283" r="17"/></g></svg>