<?xml version="1.0" encoding="UTF-8"?><svg id="_レイヤー_2" xmlns="http://www.w3.org/2000/svg" width="289.743" height="279.643" viewBox="0 0 289.743 279.643"><defs><style>.cls-1{fill:#fff;}.cls-2{fill:#1289a1;}</style></defs><g id="_イラスト素材"><path class="cls-1" d="m153.431,210.242c-31.248-25.363-36.652-5.986-74.539-43.396C41.005,129.435-.446,59.482,31.263,28.76c31.708-30.722,94.246,27.597,116.488,48.53,22.242,20.933,17.868,39.268,33.857,55.056,15.989,15.788,34.402,32.597,72.576,60.679,23.215,17.078,16.525,45.836,5.198,57.306-11.326,11.47-34.796,14.382-61.503-3.065-21.266-13.892-13.2-11.661-44.448-37.024Z"/><path class="cls-2" d="m53.576,20c32.938-.004,76.408,40.569,94.175,57.29,22.242,20.933,17.868,39.268,33.857,55.055,15.989,15.788,34.402,32.597,72.576,60.679,23.215,17.078,16.525,45.836,5.198,57.306-5.648,5.72-14.317,9.312-24.899,9.312-10.64,0-23.214-3.63-36.604-12.377-21.266-13.892-13.2-11.661-44.447-37.024-31.248-25.363-36.652-5.986-74.539-43.396C41.005,129.435-.446,59.482,31.263,28.76c6.381-6.182,14.015-8.759,22.313-8.76m.005-20h-.008c-13.982.002-26.509,4.98-36.228,14.396C6.081,25.311.083,40.24,0,57.569c-.093,19.619,7.089,42.159,21.345,66.993,11.596,20.2,27.043,40.271,43.494,56.515,23.022,22.733,36.57,27.882,51.888,32.252,7.851,2.24,13.524,3.858,24.099,12.442,13.653,11.082,19.361,16.565,23.529,20.569,6.232,5.987,10.067,9.492,22.584,17.669,15.655,10.227,32.095,15.633,47.542,15.633s29.414-5.419,39.131-15.259c11.178-11.321,17.289-28.925,15.946-45.942-1.308-16.581-9.663-31.329-23.524-41.527-39.178-28.821-56.869-45.464-70.375-58.801-4.097-4.045-5.926-8.366-9.067-16.286-4.354-10.98-9.773-24.645-25.135-39.102C130.427,33.522,90.123,0,53.582,0h0Z"/></g></svg>