<?xml version="1.0" encoding="UTF-8"?><svg id="_レイヤー_2" xmlns="http://www.w3.org/2000/svg" width="446.452" height="466.678" viewBox="0 0 446.452 466.678"><defs><style>.cls-1{fill:#fff;}.cls-2{fill:#c7e9e7;}.cls-3{fill:#1289a1;}</style></defs><g id="_イラスト素材"><ellipse class="cls-1" cx="318.037" cy="120.348" rx="73.5" ry="131" transform="translate(21.415 286.621) rotate(-50)"/><path class="cls-3" d="m264.365,184.312c-30.972-25.988-54.06-48.073-66.07-71.384-14.665-28.464-10.718-56.461,11.73-83.214C232.473,2.962,259.359-5.786,289.937,3.713c25.042,7.779,50.801,26.682,81.773,52.67s54.06,48.073,66.07,71.384c14.665,28.464,10.718,56.461-11.73,83.214-22.448,26.752-49.334,35.501-79.912,26.002-25.042-7.779-50.801-26.682-81.773-52.67Zm94.49-112.609c-29.122-24.437-52.996-42.103-74.85-48.891-23.085-7.172-41.176-1.078-58.658,19.757s-20.343,39.709-9.271,61.198c10.48,20.343,32.023,40.786,61.145,65.223,29.122,24.437,52.996,42.103,74.85,48.891,23.085,7.172,41.176,1.078,58.658-19.757,17.483-20.835,20.343-39.709,9.271-61.198-10.48-20.343-32.023-40.786-61.145-65.223Z"/><path class="cls-1" d="m192.187,324.781l-54.389-45.638,124.263-148.092c8.602-10.252,62.991,35.386,54.389,45.638l-124.263,148.092Z"/><path class="cls-3" d="m185.759,332.441l-54.389-45.638c-4.23-3.55-4.782-9.858-1.233-14.088l124.263-148.091c3.677-4.382,11.061-8.147,25.365-1.204,6.69,3.248,14.635,8.611,22.37,15.102,7.735,6.491,14.397,13.383,18.757,19.408,5.144,7.11,9.879,17.25,3.219,25.188l-124.263,148.091c-3.55,4.23-9.858,4.782-14.088,1.233Zm-33.873-54.531l39.068,32.782,115.742-137.936c-1.832-3.353-7.169-10.315-17.417-18.914-10.248-8.599-18.031-12.646-21.651-13.868l-115.742,137.936Z"/><ellipse class="cls-2" cx="128.415" cy="346.331" rx="73.5" ry="131" transform="translate(-219.433 222.086) rotate(-50)"/><path class="cls-3" d="m74.742,410.296c-30.972-25.988-54.06-48.073-66.07-71.384-14.665-28.464-10.718-56.461,11.73-83.214s49.334-35.501,79.912-26.002c25.042,7.779,50.801,26.682,81.773,52.67,30.972,25.988,54.06,48.073,66.07,71.384,14.665,28.464,10.718,56.461-11.73,83.214-22.448,26.752-49.334,35.501-79.912,26.002-25.042-7.779-50.801-26.682-81.773-52.67Zm94.49-112.609c-29.122-24.437-52.996-42.103-74.85-48.891-23.085-7.172-41.176-1.078-58.658,19.757-17.483,20.835-20.343,39.709-9.271,61.198,10.48,20.343,32.023,40.786,61.145,65.223,29.122,24.437,52.996,42.103,74.85,48.891,23.085,7.172,41.176,1.078,58.658-19.757,17.483-20.835,20.343-39.709,9.271-61.198-10.48-20.343-32.023-40.786-61.145-65.223Z"/></g></svg>