<?xml version="1.0" encoding="UTF-8"?><svg id="_レイヤー_2" xmlns="http://www.w3.org/2000/svg" width="652.501" height="496.867" viewBox="0 0 652.501 496.867"><defs><style>.cls-1{fill:#fff;}.cls-2{fill:#c7e9e7;}.cls-3{fill:#1289a1;}</style></defs><g id="_イラスト素材"><path class="cls-2" d="m625.549,47.355c-82.26-97.142-249.96,20.713-306.874,65.588,7.973,1.346,15.995,2.875,24.053,4.601,11.97,2.564,22.841,9.07,30.237,18.824,8.467,11.167,12.623,26.493-9.547,40.211-.695.43-3.847,2.085-9.012,4.665,44.949-2.471,364.174-24.026,271.144-133.888Z"/><path class="cls-3" d="m306.733,193.878l43.204-21.582c5.581-2.787,7.919-4.048,8.298-4.27,4.607-2.852,10.4-7.414,11.38-12.678.679-3.649-.875-8.003-4.619-12.94-5.761-7.598-14.413-12.956-24.362-15.088-7.77-1.664-15.718-3.185-23.622-4.519l-22.234-3.752,17.707-13.961c28.703-22.631,85.905-64.096,146.519-87.524C493.335,4.293,524.479-1.509,551.577.333c33.269,2.256,60.725,15.901,81.604,40.56,18.578,21.939,23.791,42.835,15.493,62.105-7.635,17.729-26.135,32.582-56.556,45.408-23.219,9.789-53.521,18.309-90.062,25.323-63.757,12.237-128.712,16.486-147.102,17.498l-48.222,2.65Zm35.828-86.594c.756.159,1.509.318,2.261.479,14.633,3.135,27.457,11.147,36.111,22.561,7.289,9.614,10.097,19.264,8.344,28.683-.65,3.493-1.919,6.837-3.8,10.021,28.898-2.421,71.142-6.942,112.809-14.94,74.944-14.386,121.83-35.339,132.02-59,5.117-11.885,1.065-25.385-12.388-41.271h0c-32.273-38.112-83.316-44.033-151.704-17.598-47.625,18.409-93.366,48.664-123.652,71.065Z"/><path class="cls-1" d="m359.339,178.749c-6.209,3.187-18.944,9.479-36.015,17.379,13.858,66.517,37.928,208.204-.775,239.319-51,41,10,71,54,36,40.157-31.943,26.225-220.478-17.21-292.698Z"/><path class="cls-3" d="m334.668,496.867c-15.199,0-28.013-5.183-35.346-14.353-6.073-7.596-7.7-17.18-4.58-26.987,2.994-9.412,10.241-18.79,21.541-27.874,18.554-14.916,18.228-67.789,16.382-97.979-2.838-46.414-11.97-97.132-19.131-131.506l-1.62-7.777,7.21-3.337c16.019-7.414,28.918-13.746,35.649-17.2l8.316-4.269,4.818,8.011c16.589,27.582,36.165,85.664,41.361,165.961,2.058,31.792,1.199,60.974-2.481,84.39-4.319,27.473-12.398,46.088-24.014,55.327-13.717,10.91-30.176,17.15-46.347,17.571-.589.015-1.177.022-1.76.022Zm.04-295.011c7.001,34.636,15.218,82.396,17.92,126.598,3.751,61.343-4.039,98.89-23.813,114.787-10.385,8.348-19.481,19.768-13.872,26.783,7.327,9.16,33.152,11.278,55.381-6.403,15.321-12.187,22.952-61.525,18.988-122.773-3.77-58.253-16.913-115.141-34.076-148.853-4.987,2.46-11.871,5.798-20.527,9.861Z"/><path class="cls-1" d="m372.965,136.367c-7.396-9.754-18.267-16.26-30.237-18.824C156.915,77.735-10.098,140.526,11.973,240.341c22.577,102.106,343.577-58.894,351.445-63.763,22.17-13.718,18.014-29.044,9.547-40.211Z"/><path class="cls-3" d="m71.319,284.136c-15.774,0-28.901-2.2-39.348-6.611-15.889-6.71-26.181-18.82-29.763-35.024-6.853-30.988,2.312-60.237,26.502-84.586,27.134-27.312,72.834-47.444,128.684-56.688,57.911-9.587,122.724-7.323,187.429,6.538,14.632,3.134,27.456,11.146,36.11,22.562,7.289,9.611,10.097,19.262,8.344,28.681-1.859,9.995-8.79,18.769-20.598,26.075-5.133,3.176-67.794,34.528-138.27,60.899-67.881,25.4-121.134,38.153-159.091,38.154ZM230.938,115.389c-24.242,0-47.812,1.851-70.278,5.569-51.741,8.563-93.562,26.693-117.761,51.052-19.428,19.555-26.548,41.818-21.163,66.172,2.18,9.857,7.748,16.438,17.523,20.706,20.82,9.094,69.372,11.096,182.432-30.999,71.619-26.666,132.957-57.763,136.54-59.859,4.611-2.854,10.404-7.417,11.384-12.682.679-3.648-.875-8.002-4.618-12.938h0c-5.761-7.599-14.412-12.957-24.361-15.088-37.05-7.938-74.094-11.933-109.696-11.933Z"/></g></svg>