<?xml version="1.0" encoding="UTF-8"?><svg id="_レイヤー_2" xmlns="http://www.w3.org/2000/svg" width="330.288" height="421.144" viewBox="0 0 330.288 421.144"><defs><style>.cls-1{fill:#fff;}.cls-2{fill:#c7e9e7;}.cls-3{fill:#1289a1;}</style></defs><g id="_イラスト素材"><path class="cls-1" d="m320.277,242.707v-116.354H10v116.354c0,64.26,69.458,116.354,155.138,116.354,85.681,0,155.138-52.093,155.138-116.354Z"/><path class="cls-3" d="m165.139,369.061c-43.589,0-84.678-12.813-115.699-36.079C17.558,309.07,0,277.011,0,242.707v-116.354c0-5.522,4.478-10,10-10h310.276c5.522,0,10,4.478,10,10v116.354c0,34.304-17.558,66.363-49.438,90.274-31.021,23.266-72.111,36.079-115.699,36.079ZM20,136.354v106.354c0,58.644,65.109,106.354,145.139,106.354s145.138-47.71,145.138-106.354v-106.354H20Z"/><ellipse class="cls-1" cx="165.138" cy="126.354" rx="155.138" ry="116.354"/><path class="cls-3" d="m165.139,252.707c-43.589,0-84.678-12.813-115.699-36.079C17.558,192.717,0,160.657,0,126.354S17.558,59.99,49.439,36.079C80.461,12.813,121.55,0,165.139,0s84.678,12.813,115.699,36.079c31.881,23.911,49.438,55.972,49.438,90.274s-17.558,66.363-49.438,90.274c-31.021,23.266-72.111,36.079-115.699,36.079Zm0-232.707c-80.029,0-145.139,47.71-145.139,106.354s65.109,106.354,145.139,106.354,145.138-47.71,145.138-106.354S245.168,20,165.139,20Z"/><ellipse class="cls-2" cx="165.138" cy="121.7" rx="64.382" ry="28.614"/><path class="cls-3" d="m165.139,160.313c-5.654,0-25.47-.426-43.042-5.908-25.903-8.081-31.341-22.246-31.341-32.706s5.438-24.625,31.341-32.706c17.573-5.482,37.388-5.908,43.042-5.908s25.468.426,43.041,5.908c25.903,8.081,31.341,22.246,31.341,32.706s-5.438,24.625-31.341,32.706c-17.572,5.482-37.387,5.908-43.041,5.908Zm0-57.229c-26.154,0-54.383,7.117-54.383,18.614s28.229,18.614,54.383,18.614,54.382-7.117,54.382-18.614-28.229-18.614-54.382-18.614Z"/><path class="cls-1" d="m320.277,126.354c1.551,91.532-162.895,159.017-243.567,159.017v125.774s243.567-16.401,243.567-163.783v-121.008Z"/><path class="cls-3" d="m76.71,421.144c-2.527,0-4.971-.958-6.829-2.695-2.022-1.891-3.171-4.536-3.171-7.305v-125.773c0-5.522,4.478-10,10-10,56.704,0,153.966-34.663,202.87-84.404,19.998-20.34,30.315-41.229,30.696-62.126v-2.486c0-5.49,4.426-9.953,9.915-10h.087c5.45,0,9.904,4.37,9.997,9.83.016.961.017,1.919,0,2.878v118.3c0,36.415-13.82,68.354-41.076,94.928-21.211,20.681-50.562,38.045-87.238,51.61-61.539,22.763-122.035,27.05-124.58,27.222-.225.015-.449.022-.672.022Zm10-126.066v105.051c19.883-2.249,64.578-8.754,108.682-25.122,33.938-12.597,60.848-28.465,79.979-47.166,23.162-22.641,34.906-49.718,34.906-80.479v-61.826c-4.668,6.57-10.149,13.06-16.435,19.452-50.386,51.247-144.684,86.549-207.132,90.09Z"/></g></svg>