<?xml version="1.0" encoding="utf-8"?>
<!-- Generator: Adobe Illustrator 27.5.0, SVG Export Plug-In . SVG Version: 6.00 Build 0)  -->
<svg version="1.1" id="_レイヤー_2" xmlns="http://www.w3.org/2000/svg" xmlns:xlink="http://www.w3.org/1999/xlink" x="0px"
	 y="0px" viewBox="0 0 600 600" style="enable-background:new 0 0 600 600;" xml:space="preserve">
<style type="text/css">
	.st0{fill:#FFFFFF;}
	.st1{fill:#1289A1;}
	.st2{fill:#F4A452;}
	.st3{fill:#C7E9E7;}
</style>
<g id="_イラスト素材">
	<path class="st0" d="M264.6,330.6c-28.6-28.3-9.9-35.8-51.2-69.4S98.1,193.9,70.9,228.8c-27.1,34.8,37.6,90.7,60.8,110.6
		s41,13.5,58.4,27.7c17.4,14.2,36.1,30.7,68.2,65.6c19.5,21.2,47.4,11.5,57.5-1s10.5-36.1-9.7-60.8
		C290.1,351.2,293.2,358.9,264.6,330.6L264.6,330.6z"/>
	<path class="st1" d="M64.6,244.9c0.5-5.7,2.5-11.1,6.4-16.1c27.1-34.8,101.1-1.2,142.4,32.4s22.6,41.1,51.2,69.4
		c28.6,28.3,25.5,20.5,41.6,40.2c12.9,15.8,17.5,31.1,16.4,43.4c-0.6,6.9-3,12.9-6.7,17.4c-10.2,12.5-38,22.3-57.5,1
		c-32-34.9-50.7-51.4-68.2-65.6c-17.4-14.2-35.2-7.9-58.4-27.7C111.9,322.3,61.6,278.9,64.6,244.9 M44.6,243.2
		c-1.8,20.4,7.9,42.7,29.8,68.3c16,18.8,35.2,35.2,44.4,43c16,13.7,30.2,17.6,41.6,20.8c8.2,2.3,12.7,3.6,17.2,7.3
		c14.7,12,33.2,27.8,66.1,63.6c11.6,12.7,27.2,19.4,43.8,18.9c17.1-0.5,33.9-8.5,43.9-20.8c6.3-7.8,10.1-17.5,11.1-28.3
		c1.7-18.9-5.7-39.4-20.8-57.8c-9.5-11.6-13.4-15-20-20.5c-4.4-3.7-10.5-8.8-23-21.2c-9.7-9.6-11.9-15.1-15-22.6
		c-6-14.8-12.6-27.7-37.7-48.1c-17.9-14.6-39.6-27.8-60.9-37.1c-26.2-11.5-49.4-16.2-68.9-14c-17.2,2-31.4,9.5-41,21.9
		C49,224.4,45.5,233.4,44.6,243.2L44.6,243.2L44.6,243.2z"/>
	<path class="st2" d="M364.5,316.6c-0.2-40.2,18.3-32.3,12.9-85.3c-5.4-53-34-129.1-77.8-123.6s-37.5,90.7-35.2,121.2
		c2.4,30.4,19.4,38.5,21.7,60.9s3.9,47.2,1.8,94.6c-1.2,28.8,25.4,41.6,41.4,40s33-18.1,36.1-49.9
		C368,349.2,364.7,356.9,364.5,316.6L364.5,316.6z"/>
	<path class="st1" d="M283.6,114.6c4.4-3.7,9.6-6.1,15.9-6.9c43.8-5.5,72.4,70.7,77.8,123.6s-13.1,45-12.9,85.3s3.5,32.6,1,57.8
		c-2,20.3-9.7,34.3-19.1,42.3c-5.3,4.5-11.3,7-17,7.6c-16,1.6-42.6-11.2-41.4-40c2-47.3,0.5-72.2-1.8-94.6s-19.3-30.4-21.7-60.9
		C262.4,202.8,257.5,136.6,283.6,114.6 M270.8,99.3c-15.7,13.2-24.6,35.8-27.3,69.3c-1.9,24.6,0,49.8,1,61.8
		c1.6,21,8.9,33.8,14.7,44.1c4.2,7.4,6.4,11.5,7,17.3c1.9,18.9,3.8,43.1,1.7,91.7c-0.7,17.2,5.5,32.9,17.6,44.4
		c12.4,11.7,30,18,45.8,16.4c9.9-1,19.6-5.2,27.9-12.2c14.5-12.2,23.8-31.9,26.1-55.6c1.5-14.9,1.1-20.1,0.4-28.7
		c-0.5-5.8-1.2-13.6-1.3-31.2c-0.1-13.6,2.2-19.1,5.4-26.6c6.2-14.7,10.7-28.5,7.4-60.6c-2.4-23-8.3-47.6-16.8-69.3
		c-10.4-26.7-23.5-46.4-38.8-58.6c-13.6-10.8-29-15.5-44.5-13.5C287.2,89.1,278.3,93,270.8,99.3L270.8,99.3L270.8,99.3z"/>
	<path class="st3" d="M419,434.4c28.3-28.6,35.8-9.9,69.4-51.2c33.6-41.3,67.3-115.3,32.4-142.4c-34.8-27.1-90.7,37.6-110.6,60.8
		s-13.5,41-27.7,58.4c-14.2,17.4-30.7,36.1-65.6,68.2c-21.2,19.5-11.5,47.4,1,57.5s36.1,10.5,60.8-9.7
		C398.5,459.9,390.7,463,419,434.4L419,434.4z"/>
	<path class="st1" d="M504.7,234.4c5.7,0.5,11.1,2.5,16.1,6.4c34.8,27.1,1.2,101.1-32.4,142.4s-41.1,22.6-69.4,51.2
		c-28.3,28.6-20.5,25.5-40.2,41.6c-15.8,12.9-31.1,17.5-43.4,16.4c-6.9-0.6-12.9-3-17.4-6.7c-12.5-10.2-22.3-38-1-57.5
		c34.9-32,51.4-50.7,65.6-68.2c14.2-17.4,7.9-35.2,27.7-58.4C427.3,281.7,470.7,231.4,504.7,234.4 M506.4,214.5
		c-20.4-1.8-42.7,7.9-68.3,29.8c-18.8,16-35.2,35.2-43,44.4c-13.7,16-17.6,30.2-20.8,41.6c-2.3,8.2-3.6,12.7-7.3,17.2
		c-12,14.7-27.8,33.2-63.6,66.1c-12.7,11.6-19.4,27.2-18.9,43.8c0.5,17.1,8.5,33.9,20.8,43.9c7.8,6.3,17.5,10.1,28.3,11.1
		c18.9,1.7,39.4-5.7,57.8-20.8c11.6-9.5,15-13.4,20.5-20c3.7-4.4,8.8-10.5,21.2-23c9.6-9.7,15-11.9,22.6-15
		c14.8-6,27.7-12.6,48.1-37.7c14.6-17.9,27.8-39.6,37.1-60.9c11.5-26.2,16.2-49.4,14-68.9c-2-17.2-9.5-31.4-21.9-41
		C525.3,218.9,516.3,215.3,506.4,214.5L506.4,214.5L506.4,214.5z"/>
</g>
</svg>
