<?xml version="1.0" encoding="UTF-8"?><svg id="_レイヤー_2" xmlns="http://www.w3.org/2000/svg" width="469.356" height="587.353" viewBox="0 0 469.356 587.353"><defs><style>.cls-1{fill:#f4a452;}.cls-2{fill:#fff;}.cls-3{fill:#c7e9e7;}.cls-4{fill:#1289a1;}</style></defs><g id="_イラスト素材"><circle class="cls-2" cx="212.289" cy="330.301" r="145.5"/><path class="cls-4" d="m212.289,485.801c-85.743,0-155.5-69.757-155.5-155.5s69.757-155.5,155.5-155.5,155.5,69.757,155.5,155.5-69.757,155.5-155.5,155.5Zm0-291c-74.715,0-135.5,60.785-135.5,135.5s60.785,135.5,135.5,135.5,135.5-60.785,135.5-135.5-60.785-135.5-135.5-135.5Z"/><path class="cls-4" d="m360.074,488.794c-2.559,0-5.119-.977-7.071-2.929l-45.255-45.255c-3.905-3.905-3.905-10.237,0-14.143,3.905-3.904,10.237-3.904,14.143,0l45.255,45.255c3.905,3.905,3.905,10.237,0,14.143-1.953,1.952-4.512,2.929-7.071,2.929Z"/><rect class="cls-3" x="385.244" y="459.256" width="43" height="131" rx="21.5" ry="21.5" transform="translate(-251.926 441.309) rotate(-45)"/><path class="cls-4" d="m437.857,587.353c-8.067,0-16.133-3.07-22.274-9.211l-62.225-62.225c-12.282-12.282-12.282-32.267,0-44.549,12.282-12.28,32.266-12.282,44.548,0l62.226,62.226c5.949,5.95,9.226,13.86,9.226,22.274s-3.277,16.324-9.226,22.273h0c-6.141,6.141-14.208,9.211-22.274,9.211Zm-62.226-105.205c-2.945,0-5.89,1.121-8.132,3.363-4.484,4.483-4.484,11.78,0,16.264l62.225,62.225c4.484,4.484,11.78,4.485,16.264,0h0c2.172-2.172,3.368-5.06,3.368-8.131s-1.196-5.96-3.368-8.132l-62.226-62.226c-2.242-2.242-5.187-3.363-8.131-3.363Z"/><rect class="cls-4" x="132.789" y="352.801" width="28" height="65"/><rect class="cls-4" x="176.789" y="318.801" width="28" height="99"/><rect class="cls-1" x="220.789" y="292.801" width="28" height="125"/><rect class="cls-4" x="264.789" y="352.801" width="28" height="65"/><circle class="cls-4" cx="146.789" cy="306.801" r="20"/><circle class="cls-4" cx="190.789" cy="272.801" r="20"/><circle class="cls-4" cx="234.789" cy="246.801" r="20"/><circle class="cls-4" cx="278.789" cy="306.801" r="20"/><polygon class="cls-4" points="149.846 310.758 143.732 302.845 187.978 268.655 236.144 240.193 282.821 303.844 274.757 309.759 233.435 253.41 193.6 276.948 149.846 310.758"/><circle class="cls-4" cx="48.286" cy="175.721" r="18.5"/><path class="cls-4" d="m21.221.255l-7.515,1.325C4.459,3.211-1.591,12.187.369,21.37l22.31,104.551c1.863,8.731,10.304,14.42,19.096,12.869h0c8.792-1.55,14.778-9.783,13.543-18.624L40.523,14.29C39.223,4.991,30.469-1.376,21.221.255Z"/></g></svg>