<?xml version="1.0" encoding="UTF-8"?><svg id="_レイヤー_2" xmlns="http://www.w3.org/2000/svg" width="102.982mm" height="87.929mm" viewBox="0 0 291.919 249.248"><defs><style>.cls-1{fill:#fff;}</style></defs><g id="_レイヤー_1-2"><path class="cls-1" d="m191.623,146.689c-2.916-6.923-6.938-13.028-11.971-18.171-4.976-5.065-10.842-9.235-17.43-12.408-.581-.274-1.162-.555-1.754-.817.449-.312.888-.636,1.315-.97,5.339-4.04,9.877-8.787,13.483-14.109,3.574-5.311,6.271-11.203,7.98-17.523,1.678-6.172,2.521-12.579,2.521-19.041,0-21.471-8.528-37.787-25.355-48.51C144.42,4.955,121.552,0,90.518,0H0v249.248h85.978c34.608,0,61.675-6.502,80.453-19.317,19.634-13.412,29.599-33.584,29.599-59.959,0-8.479-1.479-16.312-4.407-23.284Zm-128.973-1.249h22.944c15.655,0,27.177,2.466,34.258,7.344,6.402,4.402,9.384,10.097,9.384,17.907,0,3.864-.768,7.372-2.356,10.733-1.59,3.338-3.859,6.177-6.973,8.671-3.2,2.576-7.323,4.654-12.277,6.178-5.142,1.573-11.303,2.373-18.297,2.373h-26.683v-53.205Zm56.314-63.912c-1.086,2.861-2.894,5.355-5.503,7.646-2.719,2.379-6.358,4.309-10.843,5.729-4.713,1.496-10.71,2.264-17.813,2.264h-22.155v-47.643h22.155c7.103,0,13.188.625,18.056,1.852,4.538,1.147,8.222,2.719,10.94,4.688,2.434,1.754,4.143,3.781,5.196,6.188,1.173,2.658,1.765,5.723,1.765,9.127,0,3.629-.602,7.043-1.798,10.15Z"/><path class="cls-1" d="m291.919,216.612c0,18.022-14.624,32.636-32.646,32.636s-32.635-14.613-32.635-32.636,14.612-32.641,32.635-32.641,32.646,14.612,32.646,32.641Z"/><rect class="cls-1" x="227.854" width="62.848" height="165.719"/></g></svg>