<?xml version="1.0" encoding="UTF-8"?><svg id="_レイヤー_2" xmlns="http://www.w3.org/2000/svg" width="571.12" height="497.733" viewBox="0 0 571.12 497.733"><defs><style>.cls-1{fill:#f4a452;}.cls-2{fill:#fff;}.cls-3{fill:#c7e9e7;}.cls-4{fill:#1289a1;}</style></defs><g id="_イラスト素材"><path class="cls-3" d="m505.704,487.733c-20.103,0-39.897-10.78-54.309-29.578-8.741-11.399-10.816-15.558-14.325-23.156-2.483-5.377-5.884-12.74-14.996-28.215-7.811-13.264-14.292-17.468-21.796-22.335-10.647-6.906-22.715-14.733-35.972-44.721-8.493-19.211-14.552-41.681-17.059-63.269-2.917-25.115-.824-47.534,6.053-64.832,6.92-17.406,18.386-29.574,34.079-36.167,6.603-2.773,13.372-4.18,20.119-4.18,47.272,0,79.575,67.752,91.736,93.258,8.289,17.386,7.346,31.45,6.587,42.75-.571,8.521-1.022,15.251,2.116,22.351,7.791,17.622,18.398,39.862,45.823,80.946,7.314,10.958,9.247,23.398,5.589,35.977-5.17,17.78-20.107,31.318-32.617,36.849-6.396,2.827-13.668,4.322-21.031,4.322Z"/><path class="cls-4" d="m407.5,181.281c40.561-.007,71.07,63.149,82.709,87.562,13.146,27.574-.502,44.289,8.584,64.84,9.086,20.551,20.225,42.865,46.652,82.455,16.072,24.076-5.155,50.347-22.753,58.127-5.07,2.241-10.855,3.468-16.988,3.468-15.154,0-32.439-7.487-46.374-25.661-15.585-20.327-8.177-15.612-28.639-50.362-20.462-34.749-35.71-17.327-57.239-66.025-21.529-48.698-30.781-130.596,17.8-151.005,5.569-2.339,10.995-3.399,16.246-3.4m.007-20v20-20h-.01c-8.085.001-16.156,1.67-23.989,4.961-18.003,7.563-31.662,21.98-39.499,41.691-15.995,40.231-5.924,97.213,11.152,135.839,6.367,14.403,12.818,24.972,20.3,33.26,7.053,7.813,13.886,12.245,19.376,15.806,6.97,4.521,12.007,7.788,18.621,19.02,8.86,15.046,12.14,22.148,14.535,27.334,3.616,7.83,6.117,12.854,15.467,25.048,16.32,21.285,39.007,33.492,62.245,33.492,8.869,0,17.305-1.742,25.074-5.176,14.629-6.468,32.107-22.335,38.175-43.203,4.444-15.282,2.002-31.021-6.875-44.319-26.983-40.423-37.373-62.199-44.994-79.438-2.047-4.63-1.848-9.232-1.284-17.638.792-11.806,1.876-27.975-7.539-47.723-5.5-11.535-16.944-35.538-32.569-56.34-21.241-28.277-44.182-42.615-68.187-42.615h0Z"/><path class="cls-4" d="m463.351,320.983c-4.512,7.586-11.683,13.551-21.511,17.896-5.23,2.312-10.802,3.377-16.71,3.194-5.908-.182-11.364-1.536-16.366-4.064-10.347-5.186-18.235-13.921-23.668-26.208-5.501-12.444-6.65-24.255-3.44-35.435,3.313-11.792,11.074-20.389,23.281-25.785,12.285-5.432,23.941-5.325,34.965.319,10.198,5.063,18.048,13.816,23.55,26.261,3.048,6.896,4.764,13.671,5.146,20.323.241,2.264,1.379,3.655,3.41,4.179l8.867,2.05c2.726.596,3.77,2.313,3.131,5.153l-2.155,8.63c-.383,1.494-1.048,2.452-1.998,2.873-.952.42-2.005.506-3.156.258l-8.404-1.97c-.88-.273-1.775-.21-2.686.192-.913.403-1.664,1.115-2.256,2.134Zm-37.712,4.235c3.611.347,7.141-.243,10.59-1.768,3.447-1.524,6.211-3.361,8.293-5.515,1.103-1.148,1.428-2.288.977-3.416-.451-1.127-1.48-1.904-3.091-2.33l-4.604-1.092c-2.728-.593-3.771-2.311-3.131-5.153l2.075-8.167c.336-1.379,1.021-2.298,2.052-2.754,1.029-.455,2.064-.58,3.103-.377l3.218.852c1.267.292,2.336.247,3.209-.139,1.584-.701,2.098-2.111,1.539-4.234-.561-2.12-1.521-4.729-2.889-7.819-1.366-3.092-3.249-6.169-5.645-9.231-2.397-3.062-5.102-5.537-8.116-7.428-6.796-4.008-13.997-4.33-21.606-.966s-12.183,8.988-13.721,16.868c-1.219,6.889-.094,14.255,3.376,22.103s8.239,13.604,14.313,17.267c3.095,1.854,6.445,2.956,10.059,3.3Z"/><path class="cls-2" d="m181.069,319.685c-19.086,0-37.715-9.28-52.454-26.133-9.457-10.812-11.795-14.828-15.787-22.185-2.824-5.206-6.692-12.335-16.783-27.19-8.649-12.733-15.388-16.511-23.19-20.885-11.07-6.205-23.618-13.238-38.779-42.309-9.713-18.624-17.208-40.656-21.101-62.038-4.53-24.875-3.886-47.382,1.862-65.088,5.784-17.815,16.442-30.697,31.677-38.288,7.419-3.696,15.151-5.57,22.979-5.57,45.648,0,81.056,63.391,94.385,87.254,9.392,16.815,9.357,30.911,9.329,42.236-.021,8.54-.038,15.285,3.552,22.168,8.911,17.083,20.93,38.594,50.945,77.825,8.005,10.463,10.736,22.753,7.897,35.54-4.013,18.076-18.046,32.55-30.174,38.875-7.258,3.785-15.681,5.786-24.358,5.786Z"/><path class="cls-4" d="m69.493,20c39.38-.005,72.741,59.012,85.654,82.131,14.896,26.669,2.354,44.229,12.745,64.152,10.391,19.923,22.946,41.473,51.869,79.277,17.59,22.99-1.899,50.574-18.959,59.472-5.711,2.979-12.472,4.652-19.734,4.652-14.43,0-30.838-6.608-44.926-22.716-16.863-19.28-9.166-15.053-31.825-48.411-22.659-33.358-36.752-14.989-61.375-62.198C18.32,129.15,3.808,48.019,50.974,24.521c6.279-3.128,12.473-4.521,18.52-4.521m.005-20v20V0c-9.398.001-18.629,2.228-27.443,6.62C24.577,15.328,11.876,30.595,5.326,50.77c-13.369,41.178.354,97.393,19.884,134.838,7.283,13.963,14.401,24.094,22.402,31.883,7.542,7.342,14.646,11.325,20.354,14.524,7.247,4.063,12.484,6.998,19.808,17.78,9.811,14.444,13.542,21.32,16.266,26.34,4.113,7.581,6.933,12.433,17.049,23.999,16.666,19.055,37.967,29.549,59.98,29.549,10.281,0,20.303-2.393,28.983-6.92,14.182-7.397,30.601-24.357,35.312-45.574,3.449-15.536-.001-31.086-9.717-43.784-29.532-38.6-41.304-59.661-50.02-76.372-2.341-4.489-2.439-9.094-2.418-17.518.029-11.833.07-28.038-10.599-47.138-6.058-10.846-18.665-33.416-35.071-52.874C115.435,13.291,92.544,0,69.498,0h0Z"/><path class="cls-4" d="m84.989,181.58l-38.114-73.078c-.601-1.152-.735-2.255-.405-3.308s1.072-1.879,2.225-2.48l48.412-25.25c1.152-.601,2.254-.736,3.307-.406,1.053.332,1.879,1.073,2.48,2.226l3.246,6.224c.602,1.153.736,2.257.406,3.308-.332,1.053-1.074,1.879-2.227,2.48l-33.426,17.434c-1.152.602-1.895,1.429-2.227,2.481-.33,1.052-.195,2.154.406,3.308l5.832,11.181c.601,1.152,1.428,1.894,2.479,2.226,1.053.33,2.155.195,3.308-.406l29.969-15.63c1.152-.601,2.255-.737,3.307-.406,1.053.331,1.881,1.073,2.481,2.226l3.246,6.224c.602,1.153.736,2.255.405,3.308-.331,1.052-1.072,1.879-2.225,2.48l-29.969,15.63c-1.152.602-1.895,1.429-2.227,2.48-.33,1.053-.195,2.155.406,3.308l13.887,26.627c.602,1.152.736,2.254.406,3.307s-1.072,1.879-2.226,2.48l-7.377,3.848c-1.152.602-2.255.736-3.308.405-1.052-.331-1.879-1.072-2.48-2.225Z"/><path class="cls-1" d="m243.868,391.971c-9.384,0-18.71-2.016-26.26-5.676-20.473-9.925-37.519-36.594-29.45-73.801,3.045-14.04,4.875-18.312,8.403-25.901,2.496-5.37,5.915-12.726,11.827-29.683,5.068-14.534,4.084-22.196,2.945-31.068-1.616-12.588-3.448-26.854,10.854-56.356,11.039-22.769,27.841-45.666,46.101-62.82,22.483-21.123,45.667-32.287,67.048-32.287,9.486,0,18.597,2.185,27.08,6.493,30.43,15.457,31.774,48.786,27.543,74.024-4.65,27.737-17.159,55.54-23.17,68.901-7.903,17.564-19.242,25.938-28.352,32.667-6.869,5.073-12.295,9.081-15.682,16.065-8.404,17.337-18.511,39.811-32.119,87.296-5.769,20.129-23.252,32.146-46.769,32.146Z"/><path class="cls-4" d="m335.336,84.379c7.642,0,15.21,1.68,22.551,5.409,46.982,23.863,12.316,102.048-.217,129.905-12.534,27.857-34.109,28.254-43.912,48.474-9.803,20.219-19.621,43.145-32.734,88.903-5.241,18.289-21.626,24.902-37.155,24.902-8.099,0-15.963-1.797-21.897-4.674-17.314-8.394-30.858-31.246-24.04-62.684,5.429-25.032,6.622-16.332,19.899-54.41,13.277-38.078-9.873-38.444,13.355-86.355,19.599-40.425,62.883-89.465,104.15-89.469m.005-20v20-20c-23.978.002-49.53,12.105-73.9,35.001-19.115,17.958-36.702,41.92-48.252,65.744-6.87,14.171-10.761,25.925-12.246,36.992-1.4,10.432-.362,18.51.471,25,1.058,8.241,1.823,14.195-2.469,26.503-5.749,16.487-9.046,23.582-11.453,28.762-3.635,7.821-5.85,12.978-9.107,27.995-4.056,18.701-2.601,36.775,4.206,52.268,6.405,14.577,17.292,26.173,30.655,32.652,8.882,4.306,19.758,6.678,30.623,6.678,27.814,0,49.418-15.094,56.381-39.393,13.389-46.722,23.282-68.728,31.504-85.687,2.209-4.556,5.848-7.379,12.624-12.384,9.518-7.03,22.554-16.657,31.53-36.608,6.183-13.743,19.05-42.34,23.913-71.35,2.921-17.424,2.535-32.828-1.147-45.782-4.932-17.352-15.904-30.773-31.73-38.811-9.899-5.028-20.531-7.577-31.603-7.577h0Z"/><path class="cls-2" d="m242.68,204.583l63.853-60.782c1.418-1.335,3.022-1.569,4.818-.699l8.071,3.913c1.793.869,2.604,2.274,2.435,4.215l-8.171,87.779c-.134,1.861-.759,3.1-1.874,3.715-1.118.613-2.494.523-4.132-.271l-9.007-4.365c-1.794-.871-2.549-2.295-2.261-4.275l1.527-12.984c.285-1.979-.468-3.406-2.261-4.275l-24.683-11.965c-1.795-.871-3.381-.578-4.757.873l-9.248,9.24c-1.378,1.451-2.964,1.74-4.757.871l-8.54-4.141c-1.637-.793-2.562-1.818-2.77-3.076-.21-1.256.375-2.514,1.756-3.771Zm42.725-10.348l9.709,4.707c1.559.756,2.887.846,3.986.271,1.096-.574,1.75-1.775,1.962-3.6l2.066-16.48c.457-3.727.062-5.893-1.184-6.496-1.249-.605-3.232.408-5.952,3.037l-11.776,11.773c-1.303,1.295-1.84,2.553-1.61,3.768.227,1.219,1.161,2.225,2.799,3.02Z"/></g></svg>