<?xml version="1.0" encoding="UTF-8"?><svg id="_レイヤー_2" xmlns="http://www.w3.org/2000/svg" width="446.879" height="552.329" viewBox="0 0 446.879 552.329"><defs><style>.cls-1{fill:#f4a452;}.cls-2{fill:#fff;}.cls-3{fill:#c7e9e7;}.cls-4{fill:#1289a1;}</style></defs><g id="_イラスト素材"><polygon class="cls-3" points="93.179 542.328 399.048 542.328 393.199 489.426 93.179 542.328"/><path class="cls-4" d="m400.785,552.176c-.569.1-1.15.152-1.736.151H93.179c-5.185,0-9.51-3.962-9.962-9.127-.452-5.166,3.119-9.82,8.225-10.72l300.02-52.902c2.722-.48,5.521.188,7.733,1.845,2.212,1.658,3.639,4.157,3.943,6.904l5.848,52.901c.313,2.826-.593,5.652-2.49,7.77-1.505,1.681-3.523,2.791-5.713,3.177Zm-193.304-19.848h180.401s-3.45-31.201-3.45-31.201l-176.951,31.201Z"/><rect class="cls-2" x="48.939" y="36.665" width="349" height="479" transform="translate(-44.561 42.995) rotate(-10)"/><path class="cls-4" d="m438.614,491.573l-343.698,60.603c-5.439.959-10.626-2.673-11.585-8.112L.154,72.341c-.959-5.439,2.673-10.626,8.112-11.585L351.963.154c5.439-.959,10.626,2.673,11.585,8.112l83.177,471.723c.959,5.439-2.673,10.626-8.112,11.585Zm-337.323,39.171l324.002-57.13L345.588,21.586,21.586,78.716l79.705,452.027Z"/><path class="cls-1" d="m101.952,232.944l-9.468-53.694c-.149-.846-.014-1.569.404-2.167.419-.597,1.051-.972,1.898-1.121l6.606-1.165c1.072-.189,1.943.124,2.61.937l16.915,20.158c1.009,1.103,1.923,1.583,2.742,1.438s1.485-.902,2.001-2.275l8.831-24.698c.349-.992,1.059-1.584,2.132-1.773l6.691-1.18c.847-.149,1.569-.014,2.167.404s.971,1.051,1.12,1.898l9.468,53.694c.149.847.015,1.569-.404,2.167-.419.598-1.051.972-1.898,1.121l-5.59.986c-.847.149-1.569.015-2.167-.404-.598-.418-.971-1.05-1.12-1.898l-4.719-26.762c-.607-3.443-1.448-5.072-2.52-4.883-.961.169-1.917,1.678-2.87,4.523l-4.624,13.39c-.339,1.05-1.046,1.669-2.118,1.858l-3.218.567c-1.073.189-1.948-.15-2.625-1.022l-8.925-11.001c-1.87-2.348-3.285-3.438-4.244-3.269-1.073.189-1.305,2.007-.698,5.45l4.719,26.762c.149.847.015,1.569-.404,2.167-.419.598-1.051.972-1.898,1.121l-5.505.971c-.847.149-1.569.015-2.167-.404-.597-.418-.971-1.05-1.12-1.898Z"/><path class="cls-1" d="m167.332,221.416l-9.468-53.694c-.149-.846-.014-1.569.404-2.167.419-.597,1.051-.972,1.898-1.121l34.808-6.138c.847-.149,1.569-.014,2.167.404s.971,1.051,1.12,1.898l.807,4.574c.149.846.015,1.569-.404,2.167s-1.051.972-1.898,1.121l-23.798,4.196c-.847.149-1.48.523-1.898,1.12-.419.598-.553,1.32-.404,2.167l1.449,8.215c.149.846.523,1.48,1.12,1.898s1.32.554,2.167.404l21.258-3.748c.847-.149,1.569-.015,2.167.403.597.419.971,1.051,1.121,1.899l.806,4.573c.149.847.014,1.569-.404,2.167-.419.598-1.051.972-1.898,1.121l-21.258,3.748c-.847.149-1.48.523-1.898,1.12-.419.598-.553,1.32-.404,2.167l1.658,9.401c.149.846.523,1.48,1.12,1.898.598.419,1.32.554,2.167.404l24.73-4.361c.847-.149,1.569-.015,2.167.403.597.419.971,1.051,1.121,1.899l.806,4.573c.149.847.014,1.569-.404,2.167-.419.598-1.051.972-1.898,1.121l-35.74,6.302c-.847.149-1.569.015-2.167-.404-.597-.418-.971-1.05-1.12-1.898Z"/><path class="cls-1" d="m217.13,212.635l-9.468-53.694c-.149-.846-.014-1.569.404-2.167.419-.597,1.051-.972,1.898-1.121l6.775-1.195c.959-.169,1.796.121,2.511.867l26.076,27.538c1.713,1.793,3.021,2.611,3.925,2.451,1.129-.199,1.425-1.823.887-4.872l-4.958-28.118c-.149-.846-.015-1.569.404-2.167s1.051-.972,1.898-1.121l5.505-.971c.847-.149,1.569-.014,2.167.404s.971,1.051,1.12,1.898l9.468,53.694c.149.847.015,1.569-.404,2.167-.419.598-1.051.972-1.898,1.121l-6.182,1.09c-1.016.179-1.882-.104-2.595-.852l-26.892-28.703c-1.714-1.794-3.023-2.61-3.925-2.451-1.13.199-1.425,1.823-.887,4.872l5.182,29.387c.149.847.015,1.569-.404,2.167-.419.598-1.051.972-1.898,1.121l-5.42.956c-.847.149-1.569.015-2.167-.404-.597-.418-.971-1.05-1.12-1.898Z"/><path class="cls-1" d="m318.964,174.595c2.748,15.583-3.557,24.729-18.914,27.437-15.414,2.718-24.494-3.715-27.242-19.298l-6.033-34.215c-.149-.846-.015-1.569.404-2.167s1.051-.972,1.898-1.121l5.505-.971c.847-.149,1.569-.014,2.167.404.598.418.971,1.051,1.12,1.898l5.929,33.623c1.563,8.864,6.353,12.589,14.37,11.175,4.347-.766,7.212-2.507,8.597-5.227,1.383-2.718,1.717-6.111,1-10.175l-5.929-33.623c-.149-.846-.015-1.569.404-2.167.418-.597,1.051-.972,1.898-1.121l5.504-.971c.847-.149,1.57-.014,2.167.404.598.418.971,1.051,1.12,1.898l6.033,34.215Z"/><path class="cls-4" d="m330.38,240.554l-220.597,38.897c-2.719.479-5.313-1.336-5.792-4.056-.48-2.72,1.337-5.313,4.056-5.792l220.597-38.897c2.719-.479,5.313,1.336,5.792,4.056.48,2.72-1.337,5.313-4.056,5.792Z"/></g></svg>