<?xml version="1.0" encoding="UTF-8"?><svg id="_レイヤー_2" xmlns="http://www.w3.org/2000/svg" width="511.148" height="425.104" viewBox="0 0 511.148 425.104"><defs><style>.cls-1{fill:#f4a452;}.cls-2{fill:#fff;}.cls-3{fill:#c7e9e7;}.cls-4{fill:#1289a1;}</style></defs><g id="_イラスト素材"><path class="cls-2" d="m220.156,243.164c-28.594-28.321-9.915-35.79-51.204-69.408-41.289-33.618-115.316-67.26-142.428-32.414-27.112,34.845,37.629,90.708,60.845,110.556,23.216,19.848,40.97,13.516,58.395,27.703,17.425,14.188,36.127,30.675,68.173,65.587,19.489,21.232,47.354,11.47,57.532-1.03,10.178-12.5,10.534-36.147-9.699-60.811-16.111-19.638-13.02-11.861-41.614-40.182Z"/><path class="cls-4" d="m20.131,157.491c.499-5.702,2.499-11.145,6.393-16.149,27.112-34.845,101.139-1.204,142.428,32.414,41.289,33.618,22.61,41.087,51.204,69.408,28.594,28.321,25.503,20.544,41.614,40.182,12.929,15.759,17.451,31.103,16.376,43.389-.607,6.942-3.002,12.909-6.677,17.422-10.178,12.5-38.043,22.262-57.532,1.03-32.047-34.912-50.749-51.399-68.173-65.587-17.425-14.188-35.179-7.856-58.395-27.703-19.882-16.997-70.213-60.403-67.238-94.406m-19.924-1.743c-1.785,20.399,7.949,42.742,29.756,68.304,16.015,18.772,35.193,35.168,44.409,43.047,16.034,13.708,30.205,17.617,41.591,20.758,8.213,2.266,12.707,3.617,17.172,7.252,14.72,11.985,33.178,27.773,66.067,63.602,11.637,12.677,27.202,19.388,43.827,18.895,17.063-.506,33.902-8.484,43.948-20.822,6.314-7.755,10.15-17.543,11.091-28.306,1.653-18.891-5.747-39.424-20.837-57.818-9.483-11.559-13.382-14.993-20.008-20.541-4.431-3.71-10.5-8.792-22.994-21.166-9.677-9.585-11.9-15.05-14.975-22.612-6.001-14.756-12.585-27.667-37.675-48.095-17.928-14.598-39.552-27.783-60.888-37.126-26.23-11.487-49.415-16.188-68.909-13.974-17.219,1.956-31.412,9.533-41.044,21.913-6.128,7.876-9.672,16.855-10.532,26.688H.207Z"/><path class="cls-1" d="m320.07,229.192c-.193-40.245,18.296-32.318,12.872-85.285-5.424-52.968-33.981-129.1-77.791-123.632-43.81,5.468-37.533,90.748-35.151,121.198,2.382,30.45,19.413,38.527,21.702,60.88,2.289,22.353,3.855,47.236,1.829,94.583-1.232,28.794,25.374,41.595,41.41,39.953,16.036-1.642,33.009-18.111,36.142-49.858,2.494-25.278-.82-17.593-1.012-57.839Z"/><path class="cls-4" d="m239.211,27.174c4.385-3.679,9.648-6.113,15.94-6.899,43.81-5.468,72.367,70.664,77.791,123.632,5.424,52.968-13.065,45.04-12.872,85.285.193,40.245,3.507,32.56,1.012,57.839-2.002,20.286-9.653,34.333-19.101,42.26-5.338,4.479-11.251,7.005-17.04,7.598-16.036,1.642-42.642-11.159-41.41-39.953,2.026-47.347.46-72.23-1.829-94.583-2.289-22.353-19.32-30.43-21.702-60.88-2.04-26.077-6.937-92.359,19.211-114.3m-12.856-15.321c-15.686,13.162-24.602,35.844-27.258,69.339-1.95,24.598.018,49.752.963,61.841,1.645,21.031,8.901,33.815,14.731,44.088,4.206,7.41,6.427,11.543,7.014,17.271,1.934,18.883,3.822,43.099,1.743,91.69-.736,17.193,5.525,32.944,17.63,44.351,12.423,11.707,29.972,17.973,45.799,16.353,9.948-1.019,19.582-5.228,27.858-12.173,14.526-12.189,23.813-31.941,26.149-55.617,1.468-14.879,1.139-20.064.376-28.673-.51-5.757-1.208-13.642-1.292-31.226-.065-13.621,2.227-19.056,5.4-26.579,6.191-14.677,10.664-28.462,7.368-60.648-2.355-22.999-8.322-47.613-16.802-69.306-10.425-26.67-23.495-46.388-38.845-58.607-13.559-10.793-28.952-15.47-44.517-13.528-9.903,1.236-18.758,5.08-26.319,11.424h0Z"/><path class="cls-3" d="m374.599,346.963c28.321-28.594,35.79-9.915,69.408-51.204,33.618-41.289,67.26-115.316,32.414-142.428-34.845-27.112-90.708,37.629-110.556,60.845-19.848,23.216-13.516,40.97-27.703,58.395-14.188,17.425-30.675,36.127-65.587,68.173-21.232,19.489-11.47,47.354,1.03,57.532,12.5,10.178,36.147,10.534,60.811-9.699,19.638-16.111,11.861-13.02,40.182-41.614Z"/><path class="cls-4" d="m460.272,146.939c5.702.499,11.145,2.499,16.149,6.393,34.845,27.112,1.204,101.139-32.414,142.428-33.618,41.289-41.087,22.61-69.408,51.204-28.321,28.594-20.544,25.503-40.182,41.614-15.759,12.929-31.103,17.451-43.389,16.376-6.942-.607-12.909-3.002-17.422-6.677-12.5-10.178-22.262-38.043-1.03-57.532,34.912-32.047,51.399-50.749,65.587-68.173,14.188-17.425,7.856-35.179,27.703-58.395,16.997-19.882,60.403-70.213,94.406-67.238m1.743-19.924c-20.399-1.785-42.742,7.949-68.304,29.756-18.772,16.015-35.168,35.193-43.047,44.409-13.708,16.034-17.617,30.205-20.758,41.591-2.266,8.213-3.617,12.707-7.252,17.172-11.985,14.72-27.773,33.178-63.602,66.067-12.677,11.637-19.388,27.202-18.895,43.827.506,17.063,8.484,33.902,20.822,43.948,7.755,6.314,17.543,10.15,28.306,11.091,18.891,1.653,39.424-5.747,57.818-20.837,11.559-9.483,14.993-13.382,20.541-20.008,3.71-4.431,8.792-10.5,21.166-22.994,9.585-9.677,15.05-11.9,22.612-14.975,14.756-6.001,27.667-12.585,48.095-37.675,14.598-17.928,27.783-39.552,37.126-60.888,11.487-26.23,16.188-49.415,13.974-68.909-1.956-17.219-9.533-31.412-21.913-41.044-7.876-6.128-16.855-9.672-26.688-10.532h0Z"/></g></svg>