<?xml version="1.0" encoding="utf-8"?>
<!-- Generator: Adobe Illustrator 27.5.0, SVG Export Plug-In . SVG Version: 6.00 Build 0)  -->
<svg version="1.1" id="_レイヤー_2" xmlns="http://www.w3.org/2000/svg" xmlns:xlink="http://www.w3.org/1999/xlink" x="0px"
	 y="0px" viewBox="0 0 600 600" style="enable-background:new 0 0 600 600;" xml:space="preserve">
<style type="text/css">
	.st0{fill:#FFFFFF;}
	.st1{fill:#1289A1;}
	.st2{fill:#F4A452;}
</style>
<g id="_イラスト素材">
	
		<rect x="125.5" y="60.5" transform="matrix(0.9848 -0.1736 0.1736 0.9848 -47.5367 56.652)" class="st0" width="349" height="479"/>
	<path class="st1" d="M515.2,515.4L171.5,576c-5.4,1-10.6-2.7-11.6-8.1L76.7,96.2c-1-5.4,2.7-10.6,8.1-11.6L428.5,24
		c5.4-1,10.6,2.7,11.6,8.1l83.2,471.7C524.2,509.3,520.6,514.4,515.2,515.4L515.2,515.4z M177.9,554.6l324-57.1l-79.7-452l-324,57.1
		L177.9,554.6L177.9,554.6z"/>
	<path class="st1" d="M181.5,223.9c-2.7,0.5-5.3-1.3-5.8-4.1l-3.2-18c-0.5-2.7,1.3-5.3,4.1-5.8s5.3,1.3,5.8,4.1l3.2,18
		C186,220.8,184.2,223.4,181.5,223.9L181.5,223.9z"/>
	<path class="st1" d="M216,217.8c-2.7,0.5-5.3-1.3-5.8-4.1l-3.2-18c-0.5-2.7,1.3-5.3,4.1-5.8s5.3,1.3,5.8,4.1l3.2,18
		C220.5,214.8,218.7,217.4,216,217.8L216,217.8z"/>
	<path class="st1" d="M233.7,214.7c-2.7,0.5-5.3-1.3-5.8-4.1l-3.2-18c-0.5-2.7,1.3-5.3,4.1-5.8s5.3,1.3,5.8,4.1l3.2,18
		C238.2,211.6,236.4,214.2,233.7,214.7L233.7,214.7z"/>
	<path class="st1" d="M251.4,211.6c-2.7,0.5-5.3-1.3-5.8-4.1l-3.2-18c-0.5-2.7,1.3-5.3,4.1-5.8s5.3,1.3,5.8,4.1l3.2,18
		C255.9,208.5,254.1,211.1,251.4,211.6z"/>
	<path class="st1" d="M269.1,208.5c-2.7,0.5-5.3-1.3-5.8-4.1l-3.2-18c-0.5-2.7,1.3-5.3,4.1-5.8s5.3,1.3,5.8,4.1l3.2,18
		C273.7,205.4,271.9,208,269.1,208.5L269.1,208.5z"/>
	<path class="st1" d="M286.9,205.3c-2.7,0.5-5.3-1.3-5.8-4.1l-3.2-18c-0.5-2.7,1.3-5.3,4.1-5.8s5.3,1.3,5.8,4.1l3.2,18
		C291.4,202.3,289.6,204.9,286.9,205.3L286.9,205.3z"/>
	<path class="st1" d="M304.6,202.2c-2.7,0.5-5.3-1.3-5.8-4.1l-3.2-18c-0.5-2.7,1.3-5.3,4.1-5.8s5.3,1.3,5.8,4.1l3.2,18
		C309.1,199.1,307.3,201.7,304.6,202.2L304.6,202.2z"/>
	<path class="st1" d="M349.9,194.2c-2.7,0.5-5.3-1.3-5.8-4.1l-3.2-18c-0.5-2.7,1.3-5.3,4.1-5.8s5.3,1.3,5.8,4.1l3.2,18
		C354.4,191.2,352.6,193.7,349.9,194.2L349.9,194.2z"/>
	<path class="st1" d="M367.6,191.1c-2.7,0.5-5.3-1.3-5.8-4.1l-3.2-18c-0.5-2.7,1.3-5.3,4.1-5.8s5.3,1.3,5.8,4.1l3.2,18
		C372.2,188,370.3,190.6,367.6,191.1L367.6,191.1z"/>
	<path class="st1" d="M385.3,188c-2.7,0.5-5.3-1.3-5.8-4.1l-3.2-18c-0.5-2.7,1.3-5.3,4.1-5.8s5.3,1.3,5.8,4.1l3.2,18
		C389.9,184.9,388.1,187.5,385.3,188z"/>
	<path class="st1" d="M412.8,205.5l-251.1,44.3c-2.7,0.5-5.3-1.3-5.8-4.1c-0.5-2.7,1.3-5.3,4.1-5.8l251.1-44.3
		c2.7-0.5,5.3,1.3,5.8,4.1S415.5,205,412.8,205.5L412.8,205.5z"/>
	<path class="st1" d="M196.9,311.6c-2.7,0.5-5.3-1.3-5.8-4.1l-3.2-18c-0.5-2.7,1.3-5.3,4.1-5.8s5.3,1.3,5.8,4.1l3.2,18
		C201.5,308.5,199.7,311.1,196.9,311.6z"/>
	<path class="st1" d="M231.4,305.5c-2.7,0.5-5.3-1.3-5.8-4.1l-3.2-18c-0.5-2.7,1.3-5.3,4.1-5.8c2.7-0.5,5.3,1.3,5.8,4.1l3.2,18
		C235.9,302.4,234.1,305,231.4,305.5L231.4,305.5z"/>
	<path class="st1" d="M249.1,302.4c-2.7,0.5-5.3-1.3-5.8-4.1l-3.2-18c-0.5-2.7,1.3-5.3,4.1-5.8c2.7-0.5,5.3,1.3,5.8,4.1l3.2,18
		C253.7,299.3,251.9,301.9,249.1,302.4z"/>
	<path class="st1" d="M266.9,299.2c-2.7,0.5-5.3-1.3-5.8-4.1l-3.2-18c-0.5-2.7,1.3-5.3,4.1-5.8c2.7-0.5,5.3,1.3,5.8,4.1l3.2,18
		C271.4,296.2,269.6,298.8,266.9,299.2L266.9,299.2z"/>
	<path class="st1" d="M284.6,296.1c-2.7,0.5-5.3-1.3-5.8-4.1l-3.2-18c-0.5-2.7,1.3-5.3,4.1-5.8c2.7-0.5,5.3,1.3,5.8,4.1l3.2,18
		C289.1,293,287.3,295.6,284.6,296.1z"/>
	<path class="st1" d="M302.3,293c-2.7,0.5-5.3-1.3-5.8-4.1l-3.2-18c-0.5-2.7,1.3-5.3,4.1-5.8c2.7-0.5,5.3,1.3,5.8,4.1l3.2,18
		C306.9,289.9,305,292.5,302.3,293L302.3,293z"/>
	<path class="st1" d="M320,289.9c-2.7,0.5-5.3-1.3-5.8-4.1l-3.2-18c-0.5-2.7,1.3-5.3,4.1-5.8c2.7-0.5,5.3,1.3,5.8,4.1l3.2,18
		C324.6,286.8,322.8,289.4,320,289.9L320,289.9z"/>
	<path class="st1" d="M365.3,281.9c-2.7,0.5-5.3-1.3-5.8-4.1l-3.2-18c-0.5-2.7,1.3-5.3,4.1-5.8s5.3,1.3,5.8,4.1l3.2,18
		C369.9,278.8,368.1,281.4,365.3,281.9z"/>
	<path class="st1" d="M383.1,278.8c-2.7,0.5-5.3-1.3-5.8-4.1l-3.2-18c-0.5-2.7,1.3-5.3,4.1-5.8s5.3,1.3,5.8,4.1l3.2,18
		C387.6,275.7,385.8,278.3,383.1,278.8L383.1,278.8z"/>
	<path class="st1" d="M400.8,275.6c-2.7,0.5-5.3-1.3-5.8-4.1l-3.2-18c-0.5-2.7,1.3-5.3,4.1-5.8s5.3,1.3,5.8,4.1l3.2,18
		C405.3,272.6,403.5,275.1,400.8,275.6L400.8,275.6z"/>
	<path class="st1" d="M428.3,293.1l-251.1,44.3c-2.7,0.5-5.3-1.3-5.8-4.1c-0.5-2.7,1.3-5.3,4.1-5.8l251.1-44.3
		c2.7-0.5,5.3,1.3,5.8,4.1S431,292.6,428.3,293.1z"/>
	<path class="st1" d="M212.4,399.2c-2.7,0.5-5.3-1.3-5.8-4.1l-3.2-18c-0.5-2.7,1.3-5.3,4.1-5.8s5.3,1.3,5.8,4.1l3.2,18
		C216.9,396.1,215.1,398.7,212.4,399.2L212.4,399.2z"/>
	<path class="st1" d="M246.9,393.1c-2.7,0.5-5.3-1.3-5.8-4.1l-3.2-18c-0.5-2.7,1.3-5.3,4.1-5.8s5.3,1.3,5.8,4.1l3.2,18
		C251.4,390.1,249.6,392.7,246.9,393.1z"/>
	<path class="st1" d="M264.6,390c-2.7,0.5-5.3-1.3-5.8-4.1l-3.2-18c-0.5-2.7,1.3-5.3,4.1-5.8s5.3,1.3,5.8,4.1l3.2,18
		C269.1,386.9,267.3,389.5,264.6,390L264.6,390z"/>
	<path class="st1" d="M282.3,386.9c-2.7,0.5-5.3-1.3-5.8-4.1l-3.2-18c-0.5-2.7,1.3-5.3,4.1-5.8s5.3,1.3,5.8,4.1l3.2,18
		C286.9,383.8,285,386.4,282.3,386.9z"/>
	<path class="st1" d="M300,383.8c-2.7,0.5-5.3-1.3-5.8-4.1l-3.2-18c-0.5-2.7,1.3-5.3,4.1-5.8s5.3,1.3,5.8,4.1l3.2,18
		C304.6,380.7,302.8,383.3,300,383.8z"/>
	<path class="st1" d="M317.8,380.6c-2.7,0.5-5.3-1.3-5.8-4.1l-3.2-18c-0.5-2.7,1.3-5.3,4.1-5.8s5.3,1.3,5.8,4.1l3.2,18
		C322.3,377.6,320.5,380.2,317.8,380.6z"/>
	<path class="st1" d="M335.5,377.5c-2.7,0.5-5.3-1.3-5.8-4.1l-3.2-18c-0.5-2.7,1.3-5.3,4.1-5.8s5.3,1.3,5.8,4.1l3.2,18
		C340,374.4,338.2,377,335.5,377.5z"/>
	<path class="st1" d="M380.8,369.5c-2.7,0.5-5.3-1.3-5.8-4.1l-3.2-18c-0.5-2.7,1.3-5.3,4.1-5.8s5.3,1.3,5.8,4.1l3.2,18
		C385.3,366.5,383.5,369,380.8,369.5z"/>
	<path class="st1" d="M398.5,366.4c-2.7,0.5-5.3-1.3-5.8-4.1l-3.2-18c-0.5-2.7,1.3-5.3,4.1-5.8s5.3,1.3,5.8,4.1l3.2,18
		C403.1,363.3,401.2,365.9,398.5,366.4z"/>
	<path class="st1" d="M416.3,363.3c-2.7,0.5-5.3-1.3-5.8-4.1l-3.2-18c-0.5-2.7,1.3-5.3,4.1-5.8s5.3,1.3,5.8,4.1l3.2,18
		C420.8,360.2,419,362.8,416.3,363.3z"/>
	<path class="st1" d="M443.7,380.8l-251.1,44.3c-2.7,0.5-5.3-1.3-5.8-4.1c-0.5-2.7,1.3-5.3,4.1-5.8L442,370.9
		c2.7-0.5,5.3,1.3,5.8,4.1S446.4,380.3,443.7,380.8z"/>
	<path class="st1" d="M227.9,486.9c-2.7,0.5-5.3-1.3-5.8-4.1l-3.2-18c-0.5-2.7,1.3-5.3,4.1-5.8s5.3,1.3,5.8,4.1l3.2,18
		C232.4,483.8,230.6,486.4,227.9,486.9L227.9,486.9z"/>
	<path class="st1" d="M262.3,480.8c-2.7,0.5-5.3-1.3-5.8-4.1l-3.2-18c-0.5-2.7,1.3-5.3,4.1-5.8c2.7-0.5,5.3,1.3,5.8,4.1l3.2,18
		C266.9,477.7,265,480.3,262.3,480.8L262.3,480.8z"/>
	<path class="st1" d="M280,477.7c-2.7,0.5-5.3-1.3-5.8-4.1l-3.2-18c-0.5-2.7,1.3-5.3,4.1-5.8s5.3,1.3,5.8,4.1l3.2,18
		C284.6,474.6,282.8,477.2,280,477.7z"/>
	<path class="st1" d="M297.8,474.5c-2.7,0.5-5.3-1.3-5.8-4.1l-3.2-18c-0.5-2.7,1.3-5.3,4.1-5.8s5.3,1.3,5.8,4.1l3.2,18
		C302.3,471.5,300.5,474.1,297.8,474.5L297.8,474.5z"/>
	<path class="st1" d="M315.5,471.4c-2.7,0.5-5.3-1.3-5.8-4.1l-3.2-18c-0.5-2.7,1.3-5.3,4.1-5.8s5.3,1.3,5.8,4.1l3.2,18
		C320,468.3,318.2,470.9,315.5,471.4z"/>
	<path class="st1" d="M333.2,468.3c-2.7,0.5-5.3-1.3-5.8-4.1l-3.2-18c-0.5-2.7,1.3-5.3,4.1-5.8s5.3,1.3,5.8,4.1l3.2,18
		C337.8,465.2,335.9,467.8,333.2,468.3z"/>
	<path class="st1" d="M351,465.2c-2.7,0.5-5.3-1.3-5.8-4.1l-3.2-18c-0.5-2.7,1.3-5.3,4.1-5.8s5.3,1.3,5.8,4.1l3.2,18
		C355.5,462.1,353.7,464.7,351,465.2z"/>
	<path class="st1" d="M396.3,457.2c-2.7,0.5-5.3-1.3-5.8-4.1l-3.2-18c-0.5-2.7,1.3-5.3,4.1-5.8s5.3,1.3,5.8,4.1l3.2,18
		C400.8,454.1,399,456.7,396.3,457.2z"/>
	<path class="st1" d="M414,454c-2.7,0.5-5.3-1.3-5.8-4.1l-3.2-18c-0.5-2.7,1.3-5.3,4.1-5.8s5.3,1.3,5.8,4.1l3.2,18
		C418.5,451,416.7,453.6,414,454z"/>
	<path class="st1" d="M431.7,450.9c-2.7,0.5-5.3-1.3-5.8-4.1l-3.2-18c-0.5-2.7,1.3-5.3,4.1-5.8s5.3,1.3,5.8,4.1l3.2,18
		C436.2,447.8,434.4,450.4,431.7,450.9z"/>
	<path class="st1" d="M459.2,468.4L208,512.7c-2.7,0.5-5.3-1.3-5.8-4.1c-0.5-2.7,1.3-5.3,4.1-5.8l251.1-44.3
		c2.7-0.5,5.3,1.3,5.8,4.1S461.9,467.9,459.2,468.4z"/>
	<path class="st2" d="M164.2,172.4l-9.5-53.7c-0.1-0.8,0-1.6,0.4-2.2c0.4-0.6,1.1-1,1.9-1.1l6.6-1.2c1.1-0.2,1.9,0.1,2.6,0.9
		l16.9,20.2c1,1.1,1.9,1.6,2.7,1.4c0.8-0.1,1.5-0.9,2-2.3l8.8-24.7c0.3-1,1.1-1.6,2.1-1.8l6.7-1.2c0.8-0.1,1.6,0,2.2,0.4
		s1,1.1,1.1,1.9l9.5,53.7c0.1,0.8,0,1.6-0.4,2.2s-1.1,1-1.9,1.1l-5.6,1c-0.8,0.1-1.6,0-2.2-0.4c-0.6-0.4-1-1.1-1.1-1.9l-4.7-26.8
		c-0.6-3.4-1.4-5.1-2.5-4.9c-1,0.2-1.9,1.7-2.9,4.5l-4.6,13.4c-0.3,1.1-1,1.7-2.1,1.9l-3.2,0.6c-1.1,0.2-1.9-0.1-2.6-1l-8.9-11
		c-1.9-2.3-3.3-3.4-4.2-3.3c-1.1,0.2-1.3,2-0.7,5.4l4.7,26.8c0.1,0.8,0,1.6-0.4,2.2c-0.4,0.6-1.1,1-1.9,1.1l-5.5,1
		c-0.8,0.1-1.6,0-2.2-0.4S164.3,173.2,164.2,172.4L164.2,172.4z"/>
	<path class="st2" d="M229.6,160.8l-9.5-53.7c-0.1-0.8,0-1.6,0.4-2.2c0.4-0.6,1.1-1,1.9-1.1l34.8-6.1c0.8-0.1,1.6,0,2.2,0.4
		c0.6,0.4,1,1.1,1.1,1.9l0.8,4.6c0.1,0.8,0,1.6-0.4,2.2s-1.1,1-1.9,1.1l-23.8,4.2c-0.8,0.1-1.5,0.5-1.9,1.1
		c-0.4,0.6-0.6,1.3-0.4,2.2l1.4,8.2c0.1,0.8,0.5,1.5,1.1,1.9s1.3,0.6,2.2,0.4l21.3-3.7c0.8-0.1,1.6,0,2.2,0.4c0.6,0.4,1,1.1,1.1,1.9
		l0.8,4.6c0.1,0.8,0,1.6-0.4,2.2s-1.1,1-1.9,1.1l-21.3,3.7c-0.8,0.1-1.5,0.5-1.9,1.1c-0.4,0.6-0.6,1.3-0.4,2.2l1.7,9.4
		c0.1,0.8,0.5,1.5,1.1,1.9c0.6,0.4,1.3,0.6,2.2,0.4l24.7-4.4c0.8-0.1,1.6,0,2.2,0.4c0.6,0.4,1,1.1,1.1,1.9l0.8,4.6
		c0.1,0.8,0,1.6-0.4,2.2c-0.4,0.6-1.1,1-1.9,1.1l-35.7,6.3c-0.8,0.1-1.6,0-2.2-0.4S229.7,161.7,229.6,160.8L229.6,160.8z"/>
	<path class="st2" d="M279.4,152l-9.5-53.7c-0.1-0.8,0-1.6,0.4-2.2c0.4-0.6,1.1-1,1.9-1.1l6.8-1.2c1-0.2,1.8,0.1,2.5,0.9l26.1,27.5
		c1.7,1.8,3,2.6,3.9,2.5c1.1-0.2,1.4-1.8,0.9-4.9l-5-28.1c-0.1-0.8,0-1.6,0.4-2.2c0.4-0.6,1-1,1.9-1.1l5.5-1c0.8-0.1,1.6,0,2.2,0.4
		c0.6,0.4,1,1.1,1.1,1.9l9.5,53.7c0.1,0.8,0,1.6-0.4,2.2c-0.4,0.6-1.1,1-1.9,1.1l-6.2,1.1c-1,0.2-1.9-0.1-2.6-0.9L290,118.3
		c-1.7-1.8-3-2.6-3.9-2.5c-1.1,0.2-1.4,1.8-0.9,4.9l5.2,29.4c0.1,0.8,0,1.6-0.4,2.2c-0.4,0.6-1.1,1-1.9,1.1l-5.4,1
		c-0.8,0.1-1.6,0-2.2-0.4S279.5,152.9,279.4,152L279.4,152z"/>
	<path class="st2" d="M381.2,114c2.7,15.6-3.6,24.7-18.9,27.4s-24.5-3.7-27.2-19.3l-6-34.2c-0.1-0.8,0-1.6,0.4-2.2s1.1-1,1.9-1.1
		l5.5-1c0.8-0.1,1.6,0,2.2,0.4s1,1.1,1.1,1.9l5.9,33.6c1.6,8.9,6.4,12.6,14.4,11.2c4.3-0.8,7.2-2.5,8.6-5.2c1.4-2.7,1.7-6.1,1-10.2
		l-5.9-33.6c-0.1-0.8,0-1.6,0.4-2.2c0.4-0.6,1-1,1.9-1.1l5.5-1c0.8-0.2,1.6,0,2.2,0.4s1,1.1,1.1,1.9L381.2,114L381.2,114z"/>
</g>
</svg>
