<?xml version="1.0" encoding="UTF-8"?><svg id="_レイヤー_2" xmlns="http://www.w3.org/2000/svg" width="353" height="449" viewBox="0 0 353 449"><defs><style>.cls-1{fill:#f4a452;}.cls-2{fill:#fff;}.cls-3{fill:#c7e9e7;}.cls-4{fill:#1289a1;}</style></defs><g id="_イラスト素材"><rect class="cls-2" x="20" y="20" width="313" height="91" rx="31.116" ry="31.116"/><path class="cls-4" d="m301.884,20c17.185,0,31.116,13.931,31.116,31.116v28.768c0,17.185-13.931,31.116-31.116,31.116H51.116c-17.185,0-31.116-13.931-31.116-31.116v-28.768c0-17.185,13.931-31.116,31.116-31.116h250.768m0-20H51.116C22.931,0,0,22.931,0,51.116v28.768c0,28.186,22.931,51.116,51.116,51.116h250.768c28.186,0,51.116-22.931,51.116-51.116v-28.768c0-28.186-22.931-51.116-51.116-51.116h0Z"/><polygon class="cls-4" points="176.638 126 198.577 126 187.608 145 176.638 164 165.668 145 154.699 126 176.638 126"/><rect class="cls-3" x="20" y="179" width="313" height="91" rx="31.116" ry="31.116"/><path class="cls-4" d="m301.884,179c17.185,0,31.116,13.931,31.116,31.116v28.768c0,17.185-13.931,31.116-31.116,31.116H51.116c-17.185,0-31.116-13.931-31.116-31.116v-28.768c0-17.185,13.931-31.116,31.116-31.116h250.768m0-20H51.116c-28.186,0-51.116,22.931-51.116,51.116v28.768c0,28.186,22.931,51.116,51.116,51.116h250.768c28.186,0,51.116-22.931,51.116-51.116v-28.768c0-28.186-22.931-51.116-51.116-51.116h0Z"/><polygon class="cls-4" points="176.638 285 198.577 285 187.608 304 176.638 323 165.668 304 154.699 285 176.638 285"/><rect class="cls-1" x="20" y="338" width="313" height="91" rx="31.116" ry="31.116"/><path class="cls-4" d="m301.884,338c17.185,0,31.116,13.931,31.116,31.116v28.768c0,17.185-13.931,31.116-31.116,31.116H51.116c-17.185,0-31.116-13.931-31.116-31.116v-28.768c0-17.185,13.931-31.116,31.116-31.116h250.768m0-20H51.116c-28.186,0-51.116,22.931-51.116,51.116v28.768c0,28.186,22.931,51.116,51.116,51.116h250.768c28.186,0,51.116-22.931,51.116-51.116v-28.768c0-28.186-22.931-51.116-51.116-51.116h0Z"/></g></svg>