<?xml version="1.0" encoding="utf-8"?>
<!-- Generator: Adobe Illustrator 27.5.0, SVG Export Plug-In . SVG Version: 6.00 Build 0)  -->
<svg version="1.1" id="レイヤー_1" xmlns="http://www.w3.org/2000/svg" xmlns:xlink="http://www.w3.org/1999/xlink" x="0px"
	 y="0px" viewBox="0 0 38 30" style="enable-background:new 0 0 38 30;" xml:space="preserve">
<style type="text/css">
	.st0{fill:#FFFFFF;}
</style>
<g>
	<polygon class="st0" points="15,22 27,15 15,8.1 	"/>
	<path class="st0" d="M37.2,3.7c-0.4-1.4-1.5-2.5-2.8-2.8C31.9,0.2,22.4,0,19,0C15.6,0,6.1,0.1,3.7,0.8C2.3,1.2,1.2,2.2,0.8,3.6
		C0,6.6,0,14.9,0,15s0,8.4,0.8,11.3c0.4,1.4,1.5,2.5,2.8,2.8C6.1,29.8,15.6,30,19,30c3.4,0,12.9-0.1,15.3-0.8
		c1.4-0.4,2.5-1.5,2.8-2.8C38,23.4,38,15.1,38,15S38,6.6,37.2,3.7z M35.2,25.9c-0.2,0.6-0.7,1.1-1.4,1.4C32.1,27.7,24.8,28,19,28
		S5.9,27.7,4.1,27.2c-0.6-0.2-1.1-0.7-1.3-1.4C2.2,23.9,2,18.3,2,15c0-3.3,0.2-8.9,0.8-10.9C3,3.5,3.5,2.9,4.2,2.7
		C5.9,2.3,13.2,2,19,2s13.1,0.3,14.9,0.8c0.6,0.2,1.1,0.7,1.3,1.4C35.8,6.1,36,11.7,36,15C36,18.3,35.8,23.9,35.2,25.9z"/>
</g>
</svg>
