<?xml version="1.0" encoding="UTF-8"?><svg id="_レイヤー_2" xmlns="http://www.w3.org/2000/svg" width="320.72" height="411.861" viewBox="0 0 320.72 411.861"><defs><style>.cls-1{fill:#fff;}.cls-2{fill:#1289a1;}</style></defs><g id="_イラスト素材"><rect class="cls-1" x="95.86" y="16.93" width="129" height="378" transform="translate(124.449 -52.591) rotate(30)"/><path class="cls-2" d="m116.719,410.519L5.002,346.019c-4.783-2.761-6.421-8.878-3.66-13.66L190.341,5.002c2.761-4.783,8.878-6.421,13.66-3.66l111.717,64.5c4.783,2.761,6.421,8.878,3.66,13.66l-189,327.358c-2.761,4.783-8.878,6.421-13.66,3.66Zm-93.057-76.82l94.397,54.5L297.058,78.162l-94.397-54.5L23.662,333.699Z"/><path class="cls-2" d="m201.937,102.918l-42.435-24.5c-4.783-2.761-6.421-8.878-3.66-13.66,2.761-4.783,8.878-6.421,13.66-3.66l42.435,24.5c4.783,2.761,6.421,8.878,3.66,13.66-2.761,4.783-8.878,6.421-13.66,3.66Z"/><path class="cls-2" d="m177.937,144.487l-42.435-24.5c-4.783-2.761-6.421-8.878-3.66-13.66,2.761-4.783,8.878-6.421,13.66-3.66l42.435,24.5c4.783,2.761,6.421,8.878,3.66,13.66-2.761,4.783-8.878,6.421-13.66,3.66Z"/><path class="cls-2" d="m153.937,186.056l-42.435-24.5c-4.783-2.761-6.421-8.878-3.66-13.66,2.761-4.783,8.878-6.421,13.66-3.66l42.435,24.5c4.783,2.761,6.421,8.878,3.66,13.66-2.761,4.783-8.878,6.421-13.66,3.66Z"/><path class="cls-2" d="m129.937,227.625l-42.435-24.5c-4.783-2.761-6.421-8.878-3.66-13.66,2.761-4.783,8.878-6.421,13.66-3.66l42.435,24.5c4.783,2.761,6.421,8.878,3.66,13.66s-8.878,6.421-13.66,3.66Z"/><path class="cls-2" d="m105.937,269.194l-42.435-24.5c-4.783-2.761-6.421-8.878-3.66-13.66,2.761-4.783,8.878-6.421,13.66-3.66l42.435,24.5c4.783,2.761,6.421,8.878,3.66,13.66-2.761,4.783-8.878,6.421-13.66,3.66Z"/><path class="cls-2" d="m81.937,310.764l-42.435-24.5c-4.783-2.761-6.421-8.878-3.66-13.66,2.761-4.783,8.878-6.421,13.66-3.66l42.435,24.5c4.783,2.761,6.421,8.878,3.66,13.66-2.761,4.783-8.878,6.421-13.66,3.66Z"/></g></svg>