<?xml version="1.0" encoding="utf-8"?>
<!-- Generator: Adobe Illustrator 27.5.0, SVG Export Plug-In . SVG Version: 6.00 Build 0)  -->
<svg version="1.1" id="レイヤー_1" xmlns="http://www.w3.org/2000/svg" xmlns:xlink="http://www.w3.org/1999/xlink" x="0px"
	 y="0px" viewBox="0 0 16 16" style="enable-background:new 0 0 16 16;" xml:space="preserve">
<style type="text/css">
	.st0{fill:#666666;}
</style>
<path class="st0" d="M15.8,14.6l-4.3-4.3c0.8-1.1,1.4-2.4,1.4-3.9C12.8,2.9,9.9,0,6.4,0S0,2.9,0,6.4s2.9,6.4,6.4,6.4
	c1.5,0,2.8-0.5,3.9-1.4l4.3,4.3c0.2,0.2,0.4,0.2,0.6,0.2c0.2,0,0.4-0.1,0.6-0.2C16.1,15.5,16.1,14.9,15.8,14.6z M1.6,6.4
	c0-2.6,2.2-4.8,4.8-4.8s4.8,2.2,4.8,4.8S9,11.2,6.4,11.2S1.6,9,1.6,6.4z"/>
</svg>
