<?xml version="1.0" encoding="utf-8"?>
<!-- Generator: Adobe Illustrator 27.5.0, SVG Export Plug-In . SVG Version: 6.00 Build 0)  -->
<svg version="1.1" id="_レイヤー_2" xmlns="http://www.w3.org/2000/svg" xmlns:xlink="http://www.w3.org/1999/xlink" x="0px"
	 y="0px" viewBox="0 0 600 600" style="enable-background:new 0 0 600 600;" xml:space="preserve">
<style type="text/css">
	.st0{fill:#FFFFFF;}
	.st1{fill:#1289A1;}
	.st2{fill:#C7E9E7;}
	.st3{fill:#F4A452;}
</style>
<g id="_イラスト素材">
	<path class="st0" d="M174.6,95.5h250.8c17.2,0,31.1,13.9,31.1,31.1v28.8c0,17.2-13.9,31.1-31.1,31.1H174.6
		c-17.2,0-31.1-13.9-31.1-31.1v-28.8C143.5,109.4,157.4,95.5,174.6,95.5z"/>
	<path class="st1" d="M425.4,95.5c17.2,0,31.1,13.9,31.1,31.1v28.8c0,17.2-13.9,31.1-31.1,31.1H174.6c-17.2,0-31.1-13.9-31.1-31.1
		v-28.8c0-17.2,13.9-31.1,31.1-31.1H425.4 M425.4,75.5H174.6c-28.2,0-51.1,22.9-51.1,51.1v28.8c0,28.2,22.9,51.1,51.1,51.1h250.8
		c28.2,0,51.1-22.9,51.1-51.1v-28.8C476.5,98.4,453.6,75.5,425.4,75.5C425.4,75.5,425.4,75.5,425.4,75.5z"/>
	<polygon class="st1" points="300.1,201.5 322.1,201.5 311.1,220.5 300.1,239.5 289.2,220.5 278.2,201.5 	"/>
	<path class="st2" d="M174.6,254.5h250.8c17.2,0,31.1,13.9,31.1,31.1v28.8c0,17.2-13.9,31.1-31.1,31.1H174.6
		c-17.2,0-31.1-13.9-31.1-31.1v-28.8C143.5,268.4,157.4,254.5,174.6,254.5z"/>
	<path class="st1" d="M425.4,254.5c17.2,0,31.1,13.9,31.1,31.1v28.8c0,17.2-13.9,31.1-31.1,31.1H174.6c-17.2,0-31.1-13.9-31.1-31.1
		v-28.8c0-17.2,13.9-31.1,31.1-31.1H425.4 M425.4,234.5H174.6c-28.2,0-51.1,22.9-51.1,51.1v28.8c0,28.2,22.9,51.1,51.1,51.1h250.8
		c28.2,0,51.1-22.9,51.1-51.1v-28.8C476.5,257.4,453.6,234.5,425.4,234.5L425.4,234.5z"/>
	<polygon class="st1" points="300.1,360.5 322.1,360.5 311.1,379.5 300.1,398.5 289.2,379.5 278.2,360.5 	"/>
	<path class="st3" d="M174.6,413.5h250.8c17.2,0,31.1,13.9,31.1,31.1v28.8c0,17.2-13.9,31.1-31.1,31.1H174.6
		c-17.2,0-31.1-13.9-31.1-31.1v-28.8C143.5,427.4,157.4,413.5,174.6,413.5z"/>
	<path class="st1" d="M425.4,413.5c17.2,0,31.1,13.9,31.1,31.1v28.8c0,17.2-13.9,31.1-31.1,31.1H174.6c-17.2,0-31.1-13.9-31.1-31.1
		v-28.8c0-17.2,13.9-31.1,31.1-31.1H425.4 M425.4,393.5H174.6c-28.2,0-51.1,22.9-51.1,51.1v28.8c0,28.2,22.9,51.1,51.1,51.1h250.8
		c28.2,0,51.1-22.9,51.1-51.1v-28.8C476.5,416.4,453.6,393.5,425.4,393.5L425.4,393.5z"/>
</g>
</svg>
