<?xml version="1.0" encoding="utf-8"?>
<!-- Generator: Adobe Illustrator 28.1.0, SVG Export Plug-In . SVG Version: 6.00 Build 0)  -->
<svg version="1.1" id="_x32_" xmlns="http://www.w3.org/2000/svg" xmlns:xlink="http://www.w3.org/1999/xlink" x="0px" y="0px"
	 viewBox="0 0 180 180" style="enable-background:new 0 0 180 180;" xml:space="preserve">
<style type="text/css">
	.st0{fill:#026FD6;}
</style>
<g>
	<path class="st0" d="M123.2,93.8C123.2,93.8,123.2,93.8,123.2,93.8L123.2,93.8L123.2,93.8z"/>
	<path class="st0" d="M139.4,94.3L139.4,94.3c-1-1.1-2.2-1.9-3.5-2.5c-1.3-0.6-2.8-0.8-4.4-0.8c-1.5,0-2.9,0.3-4.4,0.7
		c-1.4,0.5-2.8,1.2-4,2.1l-0.1,0.1l0,0l-0.1,0.1c-0.1,0.1-0.4,0.3-0.7,0.5c-1.2,0.9-3.3,2.3-5.8,4c-1.7,1.1-3.5,2.4-5.3,3.6
		c0-0.1,0-0.2,0-0.3c0-3-1.2-5.8-3.2-7.7c-2-2-4.7-3.2-7.7-3.2H77c-3.8,0-7.1,0.4-9.9,1.1c-4.3,1-7.5,2.7-10.2,4.5
		c-2.7,1.9-4.7,3.9-6.5,5.8c-0.4,0.4-0.7,0.8-1.1,1.1l-9.1,7.9c-1.7,1.5-2.7,3.7-2.7,5.9v26.7c0,2.4,1.4,4.5,3.5,5.5v0
		c0.8,0.4,1.6,0.5,2.5,0.5c1.5,0,2.9-0.5,4-1.5l16.9-14.5l26.6,4.8c0.7,0.1,1.5,0.2,2.2,0.2c2.6,0,5.1-0.8,7.2-2.3l0,0
		c1.8-1.3,10.7-7.4,19.5-13.6c4.4-3.1,8.7-6.1,12.2-8.6c1.7-1.2,3.2-2.3,4.3-3.1c0.6-0.4,1.1-0.8,1.4-1.1c0.4-0.3,0.7-0.5,0.9-0.7v0
		l0.1-0.1l0,0l0.1-0.1c1.1-1,2-2.2,2.6-3.5c0.6-1.3,0.9-2.7,0.9-4.2c0,0,0-0.1,0-0.1C142.5,99.1,141.3,96.4,139.4,94.3z
		 M135.4,105.8c-2.6,2.2-38,26.8-38,26.8c-1.6,1.1-3.6,1.6-5.5,1.2l-27.7-5c-0.8-0.1-1.6,0.1-2.3,0.6l-17.8,15.2
		c-0.3,0.2-0.6,0.3-1,0.1c-0.3-0.1-0.5-0.5-0.5-0.8v-26.7c0-0.8,0.3-1.5,0.9-2.1l9.2-8C57.9,102.1,62.5,96,77,96
		c14.5,0,20.3,0,23.2,0c3.2,0,5.8,2.6,5.8,5.8c0,3.2-2.6,5.8-5.8,5.8c0,0-12.1,0-15.9,0l0.1,0c-1.1,0-2.1,0.9-2.1,2
		c0,1.1,0.9,2.1,2,2.1l0.1,0h21.6c0,0,17.8-11.7,20.4-13.9c2.8-2.1,7.1-2.6,9.4-0.1C137.9,100.2,137.9,103.6,135.4,105.8z"/>
	<path class="st0" d="M80.7,77.9c4.7,3.2,10.7,5.6,10.7,5.6c0.5,0.2,1.4,0.3,1.7,0.3c0.3,0,1.1-0.2,1.7-0.3c0,0,5.9-2.4,10.7-5.6
		c7.2-4.9,18.8-14.5,18.8-28.1c0-13.8-7.8-20-16.3-19.8c-6.5,0.1-10.4,4-13,7.8c-0.5,0.7-1.2,1.2-1.9,1.2c-0.7,0-1.4-0.5-1.9-1.2
		c-2.6-3.8-6.4-7.7-13-7.8c-8.6-0.2-16.3,6.1-16.3,19.8C61.9,63.4,73.5,73,80.7,77.9z M74.3,38.6c0.7-0.8,1.5-1.5,2.4-2.1
		c0.9-0.6,2.1-0.3,2.7,0.7c0.6,0.9,0.3,2.1-0.7,2.7c-0.6,0.4-1.1,0.8-1.4,1.2c-0.7,0.8-1.9,1-2.8,0.3C73.7,40.7,73.6,39.5,74.3,38.6
		z M69.7,51.1c0-1.3,0.1-2.5,0.4-3.6c0.3-1,1.3-1.7,2.4-1.4c1,0.3,1.7,1.3,1.4,2.4c-0.2,0.7-0.3,1.6-0.3,2.7c0,1,0.1,2.2,0.3,3.6
		c0.4,2.1,1.3,4.1,2.6,6c0.6,0.9,0.4,2.1-0.5,2.7c-0.9,0.6-2.1,0.4-2.7-0.5c-1.6-2.2-2.8-4.8-3.3-7.6C69.8,53.8,69.7,52.4,69.7,51.1
		z"/>
</g>
</svg>
