<?xml version="1.0" encoding="UTF-8"?><svg id="_レイヤー_2" xmlns="http://www.w3.org/2000/svg" width="541.261" height="350.916" viewBox="0 0 541.261 350.916"><defs><style>.cls-1{fill:#f4a452;}.cls-2{fill:#fff;}.cls-3{fill:#c7e9e7;}.cls-4{fill:#1289a1;}</style></defs><g id="_イラスト素材"><path class="cls-2" d="m153.431,281.128c-31.248-25.363-36.652-5.986-74.539-43.396C41.005,200.321-.446,130.367,31.263,99.646c31.708-30.722,94.246,27.597,116.488,48.53,22.242,20.933,17.868,39.268,33.857,55.056,15.989,15.788,34.402,32.597,72.576,60.679,23.215,17.078,16.525,45.836,5.198,57.306-11.326,11.47-34.796,14.382-61.503-3.065-21.266-13.892-13.2-11.661-44.448-37.024Z"/><path class="cls-4" d="m53.576,90.886c32.938-.004,76.408,40.569,94.175,57.29,22.242,20.933,17.868,39.268,33.857,55.055,15.989,15.788,34.402,32.597,72.576,60.679,23.215,17.078,16.525,45.836,5.198,57.306-5.648,5.72-14.317,9.312-24.899,9.312-10.64,0-23.214-3.63-36.604-12.377-21.266-13.892-13.2-11.661-44.447-37.024-31.248-25.363-36.652-5.986-74.539-43.396C41.005,200.321-.446,130.367,31.263,99.646c6.381-6.182,14.015-8.759,22.313-8.76m.005-20h-.008c-13.982.002-26.509,4.98-36.228,14.396C6.081,96.197.083,111.126,0,128.455c-.093,19.619,7.089,42.159,21.345,66.993,11.596,20.2,27.043,40.271,43.494,56.515,23.022,22.733,36.57,27.882,51.888,32.252,7.851,2.24,13.524,3.858,24.099,12.442,13.653,11.082,19.361,16.565,23.529,20.569,6.232,5.987,10.067,9.492,22.584,17.669,15.655,10.227,32.095,15.633,47.542,15.633s29.414-5.419,39.131-15.259c11.178-11.321,17.289-28.925,15.946-45.942-1.308-16.581-9.663-31.329-23.524-41.527-39.178-28.821-56.869-45.464-70.375-58.801-4.097-4.045-5.926-8.366-9.067-16.286-4.354-10.98-9.773-24.645-25.135-39.102-31.031-29.204-71.335-62.725-107.876-62.725h0Z"/><path class="cls-1" d="m222.897,238.828c-15.73-37.044-29.58-22.455-45.533-73.253-15.953-50.798-19.813-132.019,22.592-144.312,42.404-12.293,70.344,68.524,80.192,97.436,9.848,28.912-2.604,43.063,4.128,64.501,6.732,21.438,15.129,44.913,35.704,87.604,12.513,25.963-6.868,48.237-22.247,53.067-15.379,4.83-37.48-3.59-52.905-31.514-12.282-22.234-6.201-16.485-21.931-53.529Z"/><path class="cls-4" d="m208.623,20c37.552-.007,62.364,71.803,71.524,98.699,9.848,28.912-2.604,43.063,4.128,64.501,6.732,21.438,15.129,44.913,35.704,87.604,12.513,25.962-6.867,48.237-22.247,53.067-2.691.845-5.591,1.285-8.622,1.285-14.29,0-31.557-9.761-44.284-32.799-12.282-22.234-6.201-16.485-21.931-53.529-15.73-37.045-29.58-22.455-45.533-73.253-15.953-50.798-19.813-132.019,22.592-144.312,2.958-.858,5.852-1.262,8.668-1.263m.005-20v20V0h-.009c-4.747,0-9.536.692-14.233,2.054-15.065,4.367-27.356,14.749-35.545,30.021-9.271,17.291-13.483,40.569-12.518,69.188.785,23.279,5.032,48.246,11.959,70.304,9.694,30.868,19.252,41.763,30.739,52.798,5.888,5.656,10.142,9.743,15.466,22.28,6.873,16.185,9.348,23.704,11.155,29.194,2.702,8.209,4.449,13.102,11.679,26.189,7.517,13.607,16.832,24.312,27.687,31.818,10.7,7.399,22.493,11.31,34.103,11.31,5.041,0,9.958-.741,14.614-2.204,15.179-4.767,28.822-17.459,35.606-33.123,6.61-15.263,6.136-32.206-1.335-47.708-21.116-43.814-28.952-66.804-34.639-84.913-1.725-5.493-1.318-10.168-.383-18.636,1.295-11.741,2.907-26.352-3.894-46.321-4.366-12.819-13.452-39.494-26.633-62.824C253.917,16.629,232.446,0,208.629,0h0Z"/><path class="cls-3" d="m418.693,265.863c25.721-30.954,34.789-12.996,64.681-57.058,29.892-44.062,56.953-120.739,19.878-144.711-37.076-23.972-87.083,45.391-104.832,70.249-17.749,24.857-9.894,41.992-22.509,60.587-12.615,18.595-27.41,38.663-59.396,73.63-19.452,21.266-7.299,48.174,6.041,57.224,13.34,9.05,36.928,7.344,59.734-14.962,18.159-17.761,10.681-14.004,36.402-44.958Z"/><path class="cls-4" d="m486.607,59.133c5.724,0,11.321,1.519,16.645,4.961,37.076,23.972,10.014,100.649-19.878,144.711-29.892,44.062-38.96,26.105-64.681,57.058-25.721,30.954-18.243,27.197-36.403,44.958-14.573,14.253-29.464,20.095-41.797,20.095-6.968,0-13.121-1.865-17.937-5.133-13.34-9.05-25.493-35.958-6.041-57.223,31.986-34.968,46.781-55.035,59.396-73.63,12.615-18.595,4.76-35.73,22.509-60.587,15.2-21.287,54.053-75.21,88.187-75.21m0-20c-20.477,0-41.886,11.644-65.451,35.596-17.305,17.59-31.967,38.124-39.013,47.992-12.258,17.168-14.918,31.625-17.054,43.242-1.541,8.38-2.496,12.974-5.728,17.738-10.657,15.708-24.775,35.473-57.602,71.359-11.615,12.698-16.943,28.788-15.003,45.307,1.991,16.954,11.407,33.034,24.573,41.966,8.276,5.614,18.361,8.582,29.165,8.582,18.963,0,38.773-9.162,55.782-25.797,10.689-10.454,13.769-14.638,18.719-21.723,3.31-4.738,7.843-11.227,19.082-24.751,8.705-10.476,13.955-13.166,21.221-16.889,14.177-7.264,26.464-14.949,44.629-41.723,12.98-19.132,24.23-41.823,31.678-63.892,9.157-27.132,11.82-50.638,7.915-69.864-3.449-16.983-12.235-30.461-25.407-38.978-8.381-5.419-17.634-8.166-27.504-8.166h0Z"/></g></svg>