<?xml version="1.0" encoding="UTF-8"?><svg id="_レイヤー_2" xmlns="http://www.w3.org/2000/svg" width="318.678" height="431.172" viewBox="0 0 318.678 431.172"><defs><style>.cls-1{fill:#fff;}.cls-2{fill:#c7e9e7;}.cls-3{fill:#1289a1;}</style></defs><g id="_イラスト素材"><ellipse class="cls-1" cx="87.771" cy="127.932" rx="46" ry="133.5" transform="translate(-52.207 61.025) rotate(-30)"/><path class="cls-3" d="m159.521,252.206c-10.345,5.973-29.027,7.575-59.279-18.711-20.947-18.2-42.599-45.746-60.969-77.564C20.904,124.115,7.874,91.59,2.586,64.35-5.053,25.007,5.676,9.63,16.021,3.657c10.345-5.973,29.027-7.575,59.279,18.711,20.947,18.2,42.599,45.746,60.969,77.564,18.37,31.817,31.399,64.342,36.688,91.582,7.639,39.342-3.09,54.72-13.435,60.693ZM26.021,20.977c-10.88,6.282-9.969,54.733,30.573,124.954,40.542,70.221,82.047,95.236,92.927,88.954,10.88-6.282,9.969-54.733-30.573-124.954C78.406,39.711,36.901,14.696,26.021,20.977Z"/><path class="cls-2" d="m93.586,236.003l28,48.497c-29.176,16.845-36.038,59.58-15.328,95.452,20.711,35.872,61.152,51.297,90.328,34.452,29.176-16.845,37.935-32.294,4.935-89.452l-53.965-93.469-53.971,4.52Zm92.81,142.182c-1.366,1.056-3.746,2.696-7.81,5.043-10.24,5.912-29.659-1.371-41.151-21.275-11.492-19.904-8.09-40.363,2.151-46.275,4.065-2.347,6.675-3.588,8.272-4.243,3.121,2.698,10.309,10.427,22.486,31.518,12.177,21.091,15.276,31.18,16.052,35.232Z"/><path class="cls-3" d="m201.585,423.065c-33.904,19.575-80.553,2.478-103.988-38.112-21.403-37.072-16.154-81.114,10.748-103.384l-23.42-40.565c-1.712-2.965-1.787-6.6-.202-9.634,1.588-3.033,4.615-5.045,8.027-5.33l53.97-4.521c3.859-.324,7.558,1.611,9.495,4.965l53.965,93.47c17.572,30.436,24.183,50.215,22.104,66.138-2.388,18.297-16.166,28.583-30.699,36.974Zm-91.459-178.412l20.12,34.848c2.761,4.783,1.122,10.899-3.66,13.66-24.354,14.061-29.588,50.753-11.667,81.792,17.92,31.039,52.314,44.852,76.667,30.792,21.062-12.16,33.775-19.5,1.275-75.792l-50.792-87.975-31.942,2.675Zm73.459,147.235c-8.045,4.645-18.75,4.436-29.37-.572-10.078-4.751-19.113-13.403-25.441-24.363-6.328-10.96-9.304-23.11-8.379-34.214.973-11.702,6.145-21.077,14.19-25.722,3.76-2.171,6.949-3.798,9.478-4.835,3.488-1.43,7.483-.777,10.334,1.689,4.49,3.882,12.403,12.946,24.606,34.081,12.203,21.136,16.096,32.521,17.212,38.35.71,3.703-.723,7.489-3.705,9.794-2.163,1.672-5.166,3.62-8.926,5.791Zm2.81-13.703l.008-.005-.008.005Zm-41.81-53.847c-4.58,2.644-7.486,17.035,1.51,32.615,8.995,15.58,22.911,20.259,27.49,17.615.381-.22.743-.431,1.087-.634-1.92-5.047-5.672-13.306-12.989-25.98-7.317-12.674-12.594-20.053-16.005-24.239-.348.196-.712.405-1.093.624Z"/><path class="cls-2" d="m147.556,231.483l53.965,93.469c33,57.158,50.759,57.297,79.935,40.452,29.176-16.845,36.038-59.58,15.328-95.452-20.711-35.872-61.152-51.297-90.328-34.452l-28-48.497-30.9,44.48Zm85.141,75.469c-12.177-21.091-15.276-31.18-16.052-35.232,1.366-1.056,3.746-2.696,7.81-5.043,10.24-5.912,29.659,1.371,41.151,21.275,11.492,19.904,8.09,40.363-2.151,46.275-4.065,2.347-6.675,3.588-8.272,4.243-3.121-2.698-10.309-10.427-22.486-31.518Z"/><path class="cls-3" d="m286.456,374.065c-14.533,8.391-30.33,15.179-47.37,8.099-14.829-6.161-28.653-21.775-46.225-52.211l-53.965-93.47c-1.937-3.354-1.762-7.525.448-10.705l30.9-44.479c1.955-2.813,5.21-4.429,8.63-4.287,3.421.144,6.531,2.027,8.243,4.992l23.42,40.565c32.737-12.163,73.504,5.312,94.907,42.384,23.435,40.59,14.917,89.537-18.988,109.112Zm-127.067-142.087l50.792,87.975c32.5,56.292,45.213,48.952,66.275,36.792,24.354-14.061,29.588-50.753,11.667-81.792s-52.314-44.852-76.667-30.792c-4.783,2.761-10.899,1.122-13.66-3.66l-20.12-34.848-18.288,26.325Zm109.067,110.91c-3.76,2.171-6.949,3.798-9.478,4.835-3.487,1.429-7.482.778-10.334-1.687-4.488-3.879-12.4-12.941-24.607-34.083-12.207-21.142-16.098-32.525-17.213-38.352-.709-3.702.724-7.487,3.706-9.793,2.163-1.672,5.166-3.62,8.926-5.791,8.045-4.645,18.75-4.436,29.37.572,10.078,4.751,19.113,13.403,25.441,24.363,6.328,10.96,9.304,23.11,8.379,34.214-.973,11.702-6.145,21.077-14.19,25.722Zm-11.094-16.696c.349-.197.713-.405,1.094-.625,4.58-2.644,7.486-17.035-1.51-32.615-8.995-15.58-22.911-20.259-27.49-17.615-.381.22-.743.431-1.088.635,1.92,5.046,5.672,13.304,12.99,25.98,7.318,12.676,12.594,20.054,16.004,24.24Z"/><circle class="cls-3" cx="110.771" cy="167.769" r="13.5"/></g></svg>