<svg width="172" height="164" viewBox="0 0 172 164" fill="none" xmlns="http://www.w3.org/2000/svg">
<g clip-path="url(#clip0_140_2071)">
<path d="M44.6847 3.68341L1.83887 11.2383L12.2964 70.5458L55.1422 62.9909L44.6847 3.68341Z" fill="#C7E9E7"/>
<path d="M55.3607 64.2288L12.5149 71.7837C11.8369 71.9032 11.1895 71.4457 11.0689 70.762L0.611386 11.4545C0.49083 10.7708 0.942696 10.1194 1.62074 9.99984L44.4665 2.44496C45.1446 2.32541 45.792 2.78294 45.9125 3.46665L56.3701 62.7742C56.4906 63.4579 56.0387 64.1092 55.3607 64.2288ZM13.3059 69.0909L53.6964 61.969L43.6755 5.13774L3.28505 12.2597L13.3059 69.0909Z" fill="#1289A1"/>
<path d="M40.3172 8.34715L7.53833 14.127L16.1401 62.9098L48.9189 57.13L40.3172 8.34715Z" fill="white"/>
<path d="M49.1372 58.3685L16.3584 64.1483C15.6803 64.2678 15.0329 63.8103 14.9124 63.1266L6.3106 14.3436C6.19005 13.6599 6.64191 13.0086 7.31996 12.889L40.0988 7.10919C40.7769 6.98964 41.4243 7.44717 41.5448 8.13088L50.1466 56.9139C50.2671 57.5976 49.8153 58.2489 49.1372 58.3685ZM17.1494 61.4555L47.4729 56.1086L39.3078 9.80197L8.98427 15.1488L17.1494 61.4555Z" fill="#1289A1"/>
<path d="M32.7229 3.49468L13.0149 6.96973L14.5213 15.513L34.2293 12.0379L32.7229 3.49468Z" fill="white"/>
<path d="M34.4477 13.2758L14.7398 16.7508C14.0618 16.8704 13.4144 16.4129 13.2938 15.7292L11.7874 7.18591C11.6669 6.5022 12.1187 5.85084 12.7968 5.73128L32.5046 2.25626C33.1827 2.1367 33.83 2.59423 33.9506 3.27794L35.457 11.8212C35.5776 12.5049 35.1257 13.1563 34.4477 13.2758ZM15.5308 14.0581L32.7833 11.016L31.7136 4.94903L14.4611 7.99112L15.5308 14.0581Z" fill="#1289A1"/>
<path d="M15.699 26.6675C16.377 26.548 16.8289 25.8967 16.7083 25.2129C16.5878 24.5291 15.9404 24.0717 15.2623 24.1912C14.5843 24.3108 14.1324 24.9621 14.253 25.6459C14.3736 26.3297 15.021 26.7871 15.699 26.6675Z" fill="#1289A1"/>
<path d="M37.4289 22.8357L20.2415 25.8663C19.5634 25.9858 18.916 25.5283 18.7955 24.8446C18.6749 24.1609 19.1268 23.5095 19.8048 23.39L36.9923 20.3594C37.6703 20.2398 38.3177 20.6973 38.4382 21.381C38.5588 22.0648 38.1069 22.7161 37.4289 22.8357Z" fill="#1289A1"/>
<path d="M17.1616 34.963C17.8397 34.8434 18.2916 34.1921 18.171 33.5083C18.0504 32.8245 17.403 32.3671 16.725 32.4867C16.047 32.6062 15.5951 33.2575 15.7156 33.9413C15.8362 34.6251 16.4836 35.0825 17.1616 34.963Z" fill="#E99411"/>
<path d="M38.8915 31.1316L21.7041 34.1622C21.0261 34.2817 20.3787 33.8242 20.2581 33.1405C20.1376 32.4568 20.5894 31.8054 21.2675 31.6859L38.4549 28.6553C39.1329 28.5357 39.7803 28.9932 39.9009 29.6769C40.0214 30.3607 39.5696 31.012 38.8915 31.1316Z" fill="#E99411"/>
<path d="M18.6245 43.2584C19.3025 43.1388 19.7544 42.4876 19.6339 41.8037C19.5133 41.1199 18.8659 40.6625 18.1879 40.7821C17.5099 40.9016 17.058 41.5529 17.1785 42.2367C17.2991 42.9205 17.9465 43.3779 18.6245 43.2584Z" fill="#1289A1"/>
<path d="M40.3542 39.427L23.1668 42.4576C22.4887 42.5771 21.8413 42.1196 21.7208 41.4359C21.6002 40.7522 22.0521 40.1008 22.7301 39.9813L39.9175 36.9507C40.5956 36.8311 41.243 37.2886 41.3635 37.9724C41.4841 38.6561 41.0322 39.3074 40.3542 39.427Z" fill="#1289A1"/>
<path d="M20.0872 51.5543C20.7652 51.4347 21.2171 50.7835 21.0965 50.0996C20.9759 49.4158 20.3286 48.9584 19.6505 49.078C18.9725 49.1975 18.5206 49.8488 18.6412 50.5326C18.7617 51.2164 19.4091 51.6738 20.0872 51.5543Z" fill="#1289A1"/>
<path d="M41.8171 47.7229L24.6296 50.7535C23.9516 50.873 23.3042 50.4155 23.1837 49.7318C23.0631 49.0481 23.515 48.3967 24.193 48.2772L41.3804 45.2466C42.0585 45.127 42.7059 45.5845 42.8264 46.2683C42.947 46.952 42.4951 47.6033 41.8171 47.7229Z" fill="#1289A1"/>
</g>
<g clip-path="url(#clip1_140_2071)">
<path d="M102.367 84.4703L122.33 87.9904C131.573 89.6201 137.75 98.3964 136.129 107.593L134.307 117.924C132.686 127.12 123.879 133.255 114.636 131.625L104.625 129.86C101.079 133.231 95.7572 137.516 91.9831 137.082L93.6057 127.88C84.9608 125.788 79.316 117.34 80.8743 108.502L82.6959 98.1714C84.3175 88.975 93.1244 82.8408 102.367 84.4705L102.367 84.4703Z" fill="#C7E9E7"/>
<path d="M91.6596 138.916C91.1916 138.833 90.7709 138.576 90.4846 138.195C90.1759 137.783 90.0512 137.263 90.1403 136.758L91.4737 129.196C82.81 126.225 77.4185 117.325 79.0315 108.177L80.8531 97.8464C82.6504 87.6537 92.4462 80.8308 102.69 82.637L122.653 86.1571C132.897 87.9633 139.768 97.7252 137.971 107.918L136.15 118.249C134.352 128.442 124.556 135.265 114.313 133.458L105.226 131.856C99.7181 136.945 95.1948 139.325 91.7719 138.932C91.7342 138.928 91.6966 138.922 91.6596 138.916ZM102.043 86.3038C93.8318 84.8559 85.9789 90.3253 84.5382 98.4961L82.7165 108.827C81.3413 116.627 86.3172 124.201 94.0445 126.071C95.0042 126.304 95.6185 127.238 95.4479 128.205L94.2656 134.911C96.077 134.295 98.9819 132.648 103.331 128.512C103.761 128.103 104.361 127.923 104.948 128.026L114.959 129.791C123.171 131.239 131.024 125.77 132.465 117.599L134.286 107.268C135.727 99.0971 130.219 91.2716 122.007 89.8237L102.043 86.3038Z" fill="#1289A1"/>
<path d="M150.446 105.236L130.482 101.715C121.24 100.086 112.433 106.22 110.811 115.416L108.99 125.747C107.368 134.944 113.546 143.72 122.788 145.35L132.8 147.115C134.979 151.496 138.514 157.343 142.209 158.226L143.831 149.024C152.67 150.015 160.864 144.007 162.423 135.169L164.244 124.838C165.866 115.642 159.688 106.865 150.446 105.236L150.446 105.236Z" fill="white"/>
<path d="M141.886 160.06C141.848 160.053 141.812 160.045 141.775 160.036C138.424 159.235 134.987 155.451 131.552 148.786L122.465 147.183C112.222 145.377 105.35 135.615 107.147 125.423L108.969 115.091C110.766 104.899 120.562 98.0759 130.806 99.8821L150.769 103.402C161.013 105.208 167.884 114.97 166.087 125.163L164.266 135.494C162.653 144.642 154.542 151.161 145.385 150.99L144.052 158.551C143.963 159.057 143.668 159.503 143.237 159.784C142.837 160.044 142.354 160.142 141.886 160.06L141.886 160.06ZM130.159 103.549C121.948 102.101 114.095 107.57 112.654 115.741L110.832 126.072C109.392 134.243 114.9 142.069 123.112 143.517L133.123 145.282C133.71 145.385 134.212 145.76 134.476 146.291C137.149 151.665 139.315 154.206 140.807 155.405L141.989 148.699C142.16 147.732 143.056 147.064 144.038 147.174C151.939 148.06 159.205 142.644 160.58 134.844L162.402 124.513C163.843 116.343 158.334 108.517 150.123 107.069L130.159 103.549Z" fill="#1289A1"/>
</g>
<path fill-rule="evenodd" clip-rule="evenodd" d="M56.7162 24.9829C56.47 23.9061 57.1434 22.8337 58.2202 22.5876L58.7202 22.4733C59.797 22.2271 60.8695 22.9005 61.1156 23.9773C61.3617 25.0541 60.6883 26.1266 59.6115 26.3727L59.1115 26.487C58.0347 26.7331 56.9623 26.0597 56.7162 24.9829ZM63.2162 23.4972C62.97 22.4204 63.6434 21.348 64.7202 21.1018L65.7202 20.8733C66.797 20.6271 67.8695 21.3005 68.1156 22.3773C68.3617 23.4541 67.6883 24.5266 66.6115 24.7727L65.6115 25.0013C64.5347 25.2474 63.4623 24.574 63.2162 23.4972ZM70.2162 21.8972C69.97 20.8204 70.6434 19.748 71.7202 19.5018L72.7202 19.2733C73.797 19.0271 74.8695 19.7005 75.1156 20.7773C75.3617 21.8541 74.6883 22.9266 73.6115 23.1727L72.6115 23.4013C71.5347 23.6474 70.4623 22.974 70.2162 21.8972ZM77.2162 20.2972C76.97 19.2204 77.6434 18.148 78.7202 17.9018L79.7202 17.6733C80.797 17.4271 81.8695 18.1005 82.1156 19.1773C82.3617 20.2541 81.6883 21.3266 80.6115 21.5727L79.6115 21.8013C78.5347 22.0474 77.4623 21.374 77.2162 20.2972ZM84.2162 18.6972C83.97 17.6204 84.6434 16.548 85.7202 16.3018L86.7202 16.0733C87.797 15.8271 88.8695 16.5005 89.1156 17.5773C89.3617 18.6541 88.6883 19.7266 87.6115 19.9727L86.6115 20.2013C85.5347 20.4474 84.4623 19.774 84.2162 18.6972ZM91.2162 17.0972C90.97 16.0204 91.6434 14.948 92.7202 14.7018L93.7202 14.4733C94.797 14.2271 95.8695 14.9005 96.1156 15.9773C96.3617 17.0541 95.6883 18.1266 94.6115 18.3727L93.6115 18.6013C92.5347 18.8474 91.4623 18.174 91.2162 17.0972ZM98.2162 15.4972C97.97 14.4204 98.6434 13.348 99.7202 13.1018L100.72 12.8733C101.797 12.6271 102.869 13.3005 103.116 14.3773C103.362 15.4541 102.688 16.5266 101.612 16.7727L100.612 17.0013C99.5347 17.2474 98.4623 16.574 98.2162 15.4972ZM105.216 13.8972C104.97 12.8204 105.643 11.748 106.72 11.5018L107.72 11.2733C108.797 11.0271 109.869 11.7005 110.116 12.7773C110.362 13.8541 109.688 14.9266 108.612 15.1727L107.612 15.4013C106.535 15.6474 105.462 14.974 105.216 13.8972ZM112.216 12.2972C111.97 11.2204 112.643 10.148 113.72 9.90184L114.72 9.67327C115.797 9.42714 116.869 10.1005 117.116 11.1773C117.362 12.2541 116.688 13.3266 115.612 13.5727L114.612 13.8013C113.535 14.0474 112.462 13.374 112.216 12.2972ZM119.216 10.6972C118.97 9.62041 119.643 8.54796 120.72 8.30184L121.72 8.07327C122.797 7.82714 123.869 8.50054 124.116 9.57733C124.362 10.6541 123.688 11.7266 122.612 11.9727L121.612 12.2013C120.535 12.4474 119.462 11.774 119.216 10.6972ZM126.216 9.0972C125.97 8.02041 126.643 6.94796 127.72 6.70184L128.22 6.58755C129.297 6.34143 130.369 7.01482 130.616 8.09162C130.862 9.16842 130.188 10.2409 129.112 10.487L128.612 10.6013C127.535 10.8474 126.462 10.174 126.216 9.0972Z" fill="#1289A1"/>
<path fill-rule="evenodd" clip-rule="evenodd" d="M22.2815 79.9774C22.8464 79.0282 24.0739 78.7168 25.023 79.2818L25.4516 79.5369C26.4007 80.1018 26.7122 81.3293 26.1472 82.2784C25.5822 83.2276 24.3548 83.539 23.4057 82.974L22.9771 82.7189C22.0279 82.154 21.7165 80.9265 22.2815 79.9774ZM27.8529 83.2937C28.4179 82.3446 29.6453 82.0331 30.5945 82.5981L31.4516 83.1083C32.4007 83.6733 32.7122 84.9007 32.1472 85.8498C31.5822 86.799 30.3548 87.1104 29.4057 86.5455L28.5485 86.0353C27.5994 85.4703 27.2879 84.2428 27.8529 83.2937ZM33.8529 86.8651C34.4179 85.916 35.6453 85.6045 36.5945 86.1695L37.4516 86.6797C38.4007 87.2447 38.7122 88.4721 38.1472 89.4213C37.5822 90.3704 36.3548 90.6819 35.4057 90.1169L34.5485 89.6067C33.5994 89.0417 33.2879 87.8143 33.8529 86.8651ZM39.8529 90.4366C40.4179 89.4874 41.6453 89.176 42.5945 89.7409L43.4516 90.2511C44.4007 90.8161 44.7122 92.0435 44.1472 92.9927C43.5822 93.9418 42.3548 94.2533 41.4057 93.6883L40.5485 93.1781C39.5994 92.6131 39.2879 91.3857 39.8529 90.4366ZM45.8529 94.008C46.4179 93.0588 47.6453 92.7474 48.5945 93.3124L49.4516 93.8226C50.4007 94.3875 50.7122 95.615 50.1472 96.5641C49.5822 97.5133 48.3548 97.8247 47.4057 97.2597L46.5485 96.7495C45.5994 96.1846 45.2879 94.9571 45.8529 94.008ZM51.8529 97.5794C52.4179 96.6303 53.6453 96.3188 54.5945 96.8838L55.4516 97.394C56.4007 97.959 56.7122 99.1864 56.1472 100.136C55.5822 101.085 54.3548 101.396 53.4057 100.831L52.5485 100.321C51.5994 99.756 51.2879 98.5286 51.8529 97.5794ZM57.8529 101.151C58.4179 100.202 59.6453 99.8903 60.5945 100.455L61.4516 100.965C62.4007 101.53 62.7122 102.758 62.1472 103.707C61.5822 104.656 60.3548 104.968 59.4057 104.403L58.5485 103.892C57.5994 103.327 57.2879 102.1 57.8529 101.151ZM63.8529 104.722C64.4179 103.773 65.6453 103.462 66.5945 104.027L67.023 104.282C67.9722 104.847 68.2836 106.074 67.7186 107.023C67.1537 107.972 65.9262 108.284 64.9771 107.719L64.5485 107.464C63.5994 106.899 63.2879 105.671 63.8529 104.722Z" fill="#1289A1"/>
<path fill-rule="evenodd" clip-rule="evenodd" d="M155.562 98.9517C154.484 98.7098 153.807 97.64 154.049 96.5622L154.161 96.0622C154.403 94.9845 155.473 94.3069 156.55 94.5489C157.628 94.7908 158.306 95.8606 158.064 96.9384L157.952 97.4384C157.71 98.5161 156.64 99.1937 155.562 98.9517ZM157.021 92.4517C155.943 92.2098 155.266 91.14 155.508 90.0622L155.732 89.0622C155.974 87.9845 157.044 87.3069 158.122 87.5489C159.2 87.7908 159.877 88.8606 159.635 89.9384L159.411 90.9384C159.169 92.0161 158.099 92.6937 157.021 92.4517ZM158.593 85.4517C157.515 85.2098 156.837 84.14 157.079 83.0622L157.304 82.0622C157.546 80.9845 158.616 80.3069 159.693 80.5489C160.771 80.7908 161.449 81.8606 161.207 82.9384L160.982 83.9384C160.74 85.0161 159.67 85.6937 158.593 85.4517ZM160.164 78.4517C159.086 78.2098 158.409 77.14 158.651 76.0622L158.875 75.0622C159.117 73.9845 160.187 73.3069 161.265 73.5489C162.342 73.7908 163.02 74.8606 162.778 75.9384L162.554 76.9384C162.312 78.0161 161.242 78.6937 160.164 78.4517ZM161.735 71.4517C160.658 71.2098 159.98 70.14 160.222 69.0622L160.447 68.0622C160.689 66.9845 161.758 66.3069 162.836 66.5489C163.914 66.7908 164.591 67.8606 164.349 68.9384L164.125 69.9384C163.883 71.0161 162.813 71.6937 161.735 71.4517ZM163.307 64.4517C162.229 64.2098 161.552 63.14 161.794 62.0622L162.018 61.0622C162.26 59.9845 163.33 59.3069 164.408 59.5489C165.485 59.7908 166.163 60.8606 165.921 61.9384L165.696 62.9384C165.454 64.0161 164.385 64.6937 163.307 64.4517ZM164.878 57.4517C163.801 57.2098 163.123 56.14 163.365 55.0622L163.589 54.0622C163.831 52.9845 164.901 52.3069 165.979 52.5489C167.057 52.7908 167.734 53.8606 167.492 54.9384L167.268 55.9384C167.026 57.0161 165.956 57.6937 164.878 57.4517ZM166.45 50.4517C165.372 50.2098 164.694 49.14 164.936 48.0622L165.049 47.5622C165.291 46.4845 166.36 45.8069 167.438 46.0489C168.516 46.2908 169.193 47.3606 168.952 48.4384L168.839 48.9384C168.597 50.0161 167.528 50.6937 166.45 50.4517Z" fill="#1289A1"/>
<defs>
<clipPath id="clip0_140_2071">
<rect width="46" height="65" fill="white" transform="translate(0 7.98779) rotate(-10)"/>
</clipPath>
<clipPath id="clip1_140_2071">
<rect width="88.6824" height="69.44" fill="white" transform="translate(84.1125 79.3613) rotate(10)"/>
</clipPath>
</defs>
</svg>
