<svg width="27" height="21" viewBox="0 0 27 21" fill="none" xmlns="http://www.w3.org/2000/svg">
<path d="M2.5 0.5C1.11979 0.5 0 1.61979 0 3C0 3.78646 0.369792 4.52604 1 5L12.3333 13.5C12.9271 13.9427 13.7396 13.9427 14.3333 13.5L25.6667 5C26.2969 4.52604 26.6667 3.78646 26.6667 3C26.6667 1.61979 25.5469 0.5 24.1667 0.5H2.5ZM0 6.33333V17.1667C0 19.0052 1.49479 20.5 3.33333 20.5H23.3333C25.1719 20.5 26.6667 19.0052 26.6667 17.1667V6.33333L15.3333 14.8333C14.1458 15.724 12.5208 15.724 11.3333 14.8333L0 6.33333Z" fill="white"/>
</svg>
