<?xml version="1.0" encoding="UTF-8"?><svg id="_レイヤー_2" xmlns="http://www.w3.org/2000/svg" width="545.265" height="444.811" viewBox="0 0 545.265 444.811"><defs><style>.cls-1{fill:#f4a452;}.cls-2{fill:#e99411;}.cls-3{fill:#fff;}.cls-4{fill:#1289a1;}</style></defs><g id="_イラスト素材"><path class="cls-3" d="m20,259.713l161.49,165.097s275.379-97.835,318.379-92.835l-176.5-160.5s-173.738,18.476-303.369,88.238Z"/><path class="cls-4" d="m323.369,171.475l176.5,160.5c-1.073-.125-2.284-.185-3.639-.185-52.93,0-314.739,93.021-314.739,93.021L20,259.713c129.631-69.762,303.369-88.238,303.369-88.238m0-20c-.703,0-1.409.037-2.116.112-1.82.194-45.261,4.894-105.323,18.328-35.292,7.894-68.999,17.184-100.184,27.612-39.252,13.126-74.655,28.123-105.225,44.574-5.534,2.978-9.346,8.384-10.293,14.596-.948,6.212,1.08,12.509,5.474,17.001l161.49,165.097c3.829,3.914,9.01,6.016,14.301,6.016,2.243,0,4.505-.378,6.693-1.155.652-.232,66.075-23.449,137.049-46.349,122.743-39.604,159.818-45.517,170.994-45.517.822,0,1.226.039,1.33.052.776.09,1.55.134,2.318.134,7.765,0,14.924-4.525,18.197-11.721,3.596-7.908,1.677-17.232-4.75-23.077l-176.5-160.5c-3.7-3.364-8.504-5.203-13.455-5.203h0Z"/><path class="cls-4" d="m351.655,249.88c23.126,0,41.974,6.544,44.825,24.112,4.969,30.625-53.202,54.479-73.948,62.887-9.274,3.759-16.453,4.316-22.951,4.316-2.736,0-5.351-.099-7.951-.099-5.02,0-9.985.368-15.653,2.525-15.578,5.927-32.586,13.103-63.033,29.592-5.075,2.748-10.192,3.89-15.053,3.89-12.698,0-23.66-7.782-27.64-15.037-5.673-10.342-1.633-26.762,19.241-39.919,16.808-10.595,12.714-5.645,41.255-19.753,28.763-14.217,16.403-24.567,56.922-39.982,19.141-7.282,43.278-12.531,63.986-12.531m.003-10v10-10c-20.596,0-45.845,4.93-67.545,13.185-25.151,9.569-32.471,18.092-38.93,25.611-4.346,5.06-8.099,9.43-18.867,14.752-12.698,6.276-18.691,8.648-23.066,10.38-6.039,2.39-9.631,3.915-19.091,9.878-11.397,7.184-19.518,16.056-23.485,25.656-3.96,9.584-3.673,19.362.809,27.533,5.514,10.051,19.79,20.227,36.407,20.227,6.904,0,13.571-1.715,19.815-5.096,31.596-17.111,48.48-23.961,61.826-29.038,4.095-1.558,7.665-1.871,12.097-1.871,1.19,0,2.403.023,3.688.047,1.369.026,2.785.052,4.264.052,7.047,0,15.732-.6,26.707-5.048,9.976-4.043,30.736-12.457,48.349-24.021,23.857-15.663,34.527-32.396,31.714-49.735-1.97-12.142-11.695-32.511-54.693-32.511h0Z"/><path class="cls-4" d="m273.928,292.503c-2.218,0-4.243-1.485-4.833-3.73l-14.062-53.526c-.345-1.311-.142-2.705.561-3.863.703-1.159,1.846-1.982,3.167-2.283l66-15c2.692-.606,5.372,1.075,5.984,3.768.611,2.693-1.075,5.372-3.768,5.984l-60.959,13.854,12.748,48.526c.701,2.671-.895,5.405-3.565,6.106-.426.112-.854.165-1.273.165Z"/><path class="cls-4" d="m251.37,216.476c-1.32,0-2.61-.529-3.53-1.46-.239-.24-.449-.49-.63-.77-.18-.271-.33-.561-.46-.86-.12-.3-.22-.62-.28-.93-.069-.33-.1-.65-.1-.98s.03-.66.1-.979c.061-.32.16-.63.28-.931.13-.3.28-.59.46-.869.181-.271.391-.53.63-.761.221-.229.48-.439.75-.62.28-.18.57-.33.87-.46.3-.12.61-.22.931-.279.649-.13,1.31-.13,1.96,0,.319.06.63.159.93.279.3.13.59.28.86.46.279.181.529.391.76.62.229.24.439.49.63.761.18.279.33.569.46.869.12.301.22.61.28.931.069.319.1.649.1.979s-.03.65-.1.98c-.061.31-.16.63-.28.93-.13.3-.28.59-.46.86-.19.279-.4.529-.63.77-.931.931-2.21,1.46-3.53,1.46Z"/><path class="cls-4" d="m261.12,209.256c-.61-2.69,1.07-5.37,3.771-5.98h0c2.689-.609,5.369,1.07,5.979,3.771h0c.61,2.689-1.07,5.37-3.77,5.979h0c-.37.091-.74.131-1.11.131h0c-2.28,0-4.34-1.58-4.87-3.9Zm14.62-3.32c-.61-2.689,1.08-5.37,3.77-5.989h0c2.69-.61,5.37,1.079,5.99,3.77h0c.61,2.7-1.08,5.37-3.77,5.99h0c-.38.08-.75.12-1.11.12h0c-2.29,0-4.35-1.57-4.88-3.891Zm14.63-3.33c-.61-2.689,1.07-5.37,3.771-5.979h0c2.689-.61,5.369,1.08,5.979,3.77h0c.61,2.69-1.07,5.37-3.77,5.98h0c-.37.09-.74.13-1.11.13h0c-2.28,0-4.35-1.58-4.87-3.9Z"/><path class="cls-4" d="m309.87,203.176c-.33,0-.65-.03-.979-.1-.32-.061-.631-.16-.931-.28-.31-.12-.6-.28-.87-.46-.27-.18-.529-.39-.76-.62-.229-.23-.439-.49-.62-.76-.18-.271-.33-.561-.46-.86-.12-.31-.22-.62-.28-.939-.069-.32-.1-.65-.1-.98,0-1.31.53-2.6,1.46-3.53.23-.229.49-.439.76-.62.271-.18.561-.34.87-.46.3-.13.61-.22.931-.29,1.619-.329,3.35.21,4.52,1.37.93.931,1.46,2.221,1.46,3.53,0,.33-.03.66-.1.98-.061.319-.16.63-.28.939-.13.3-.28.59-.46.86-.19.27-.4.529-.63.76-.931.93-2.21,1.46-3.53,1.46Z"/><path class="cls-2" d="m266.866,338.976c-1.075,0-2.159-.346-3.073-1.059l-70.729-55.228-87.115,35.055c-2.562,1.031-5.474-.211-6.505-2.772-1.03-2.562.21-5.474,2.772-6.505l89.788-36.13c1.654-.667,3.538-.399,4.943.697l73,57c2.177,1.7,2.563,4.842.864,7.019-.986,1.263-2.458,1.923-3.945,1.923Z"/><path class="cls-2" d="m87.74,294.436c-1.03-2.56.21-5.47,2.77-6.5h0c2.561-1.029,5.471.21,6.5,2.771h0c1.04,2.56-.21,5.47-2.77,6.5h0c-.61.25-1.24.37-1.86.37h0c-1.979,0-3.859-1.19-4.64-3.141Zm13.91-5.6c-1.03-2.561.21-5.47,2.77-6.5h0c2.561-1.03,5.48.21,6.51,2.77h0c1.03,2.561-.21,5.471-2.77,6.5h0c-.61.25-1.25.37-1.87.37h0c-1.979,0-3.85-1.189-4.64-3.14Zm13.92-5.601c-1.03-2.56.21-5.47,2.77-6.5h0c2.561-1.029,5.471.211,6.5,2.771h0c1.03,2.56-.21,5.47-2.77,6.5h0c-.61.25-1.24.37-1.86.37h0c-1.979,0-3.859-1.19-4.64-3.141Zm13.91-5.6c-1.03-2.56.21-5.47,2.77-6.5h0c2.57-1.03,5.48.21,6.51,2.771h0c1.03,2.56-.21,5.47-2.77,6.51h0c-.61.24-1.24.359-1.87.359h0c-1.979,0-3.85-1.189-4.64-3.14Zm13.92-5.6c-1.03-2.561.21-5.471,2.77-6.5h0c2.561-1.03,5.48.21,6.5,2.77h0c1.04,2.561-.21,5.47-2.77,6.51h0c-.61.24-1.24.36-1.86.36h0c-1.979,0-3.86-1.19-4.64-3.14Zm13.91-5.601c-1.03-2.56.21-5.47,2.779-6.5h0c2.561-1.029,5.471.21,6.5,2.771h0c1.03,2.56-.21,5.479-2.77,6.51h0c-.61.24-1.24.36-1.86.36h0c-1.99,0-3.859-1.19-4.649-3.141Zm13.92-5.59c-1.03-2.57.21-5.479,2.77-6.51h0c2.561-1.03,5.48.21,6.51,2.77h0c1.03,2.561-.21,5.48-2.77,6.511h0c-.62.239-1.25.359-1.87.359h0c-1.979,0-3.85-1.18-4.64-3.13Z"/><path class="cls-3" d="m406.749,193.491l1.43,72.899,50.688-52.413c-13.534-16.595-30.907-23.424-52.118-20.486Z"/><path class="cls-4" d="m435.687,196.41c8.686,3.414,16.413,9.27,23.18,17.568l-50.688,52.413-1.43-72.899c10.606-1.469,20.252-.496,28.938,2.919m7.317-18.614c-11.879-4.669-25-6.054-38.998-4.116-10.039,1.39-17.452,10.07-17.253,20.203l1.43,72.9c.159,8.077,5.161,15.266,12.68,18.221s16.077,1.097,21.693-4.71l50.688-52.413c7.046-7.286,7.528-18.69,1.122-26.544-8.931-10.951-19.483-18.871-31.362-23.541h0Z"/><polygon class="cls-3" points="406.749 193.491 408.179 266.391 458.867 213.978 500.511 108.036 448.704 87.672 406.749 193.491"/><path class="cls-4" d="m500.511,108.036l-41.643,105.942-50.688,52.413-1.43-72.899,41.955-105.819,51.807,20.364m7.317-18.614l-51.807-20.364c-10.259-4.032-21.846.996-25.909,11.242l-41.955,105.819c-.979,2.469-1.456,5.108-1.404,7.764l1.43,72.899c.159,8.077,5.161,15.266,12.68,18.221s16.077,1.097,21.693-4.71l50.688-52.413c1.833-1.895,3.272-4.134,4.237-6.587l41.643-105.942c4.041-10.28-1.017-21.889-11.297-25.93h0Z"/><path class="cls-1" d="m458.867,213.978c-13.534-16.595-30.907-23.424-52.118-20.486L472.599,25.969c6.403-16.29,58.522,4.196,52.118,20.486l-65.849,167.523Z"/><path class="cls-4" d="m503.46,23.994c13.03,5.122,24.458,14.316,21.257,22.461l-65.849,167.523c-6.767-8.297-14.494-14.153-23.18-17.568-8.686-3.414-18.333-4.387-28.938-2.919L472.599,25.969c3.202-8.145,17.832-7.096,30.862-1.975m7.317-18.614c-6.528-2.566-16.484-5.581-26.84-5.37-20.585.419-27.804,13.176-29.952,18.642l-65.849,167.523c-2.599,6.612-1.495,14.106,2.899,19.688,2.234,2.838,5.148,4.965,8.398,6.242,3.143,1.235,6.6,1.676,10.059,1.197,7.215-.999,13.39-.436,18.878,1.721,5.488,2.157,10.394,5.95,14.998,11.594,2.207,2.706,5.04,4.738,8.182,5.973,3.25,1.278,6.832,1.704,10.401,1.147,7.019-1.095,12.931-5.832,15.53-12.444l65.849-167.523c2.148-5.465,5.548-19.724-9.241-34.048-7.44-7.206-16.784-11.778-23.312-14.344h0Z"/><circle class="cls-4" cx="408.298" cy="266.09" r="17"/></g></svg>