<?xml version="1.0" encoding="UTF-8"?><svg id="_レイヤー_2" xmlns="http://www.w3.org/2000/svg" width="186.81" height="349.37" viewBox="0 0 186.81 349.37"><defs><style>.cls-1{fill:#c7e9e7;}.cls-2{fill:#1289a1;}</style></defs><g id="_イラスト素材"><path class="cls-1" d="m118.169,239.342c13.583-37.884,28.246-24.111,41.265-75.739,13.019-51.628,12.223-132.937-30.815-142.782C85.581,10.974,62.313,93.258,54.136,122.687c-8.177,29.429,5.065,42.843-.429,64.631-5.494,21.788-12.533,45.706-30.631,89.504-11.006,26.636,9.617,47.765,25.248,51.706,15.631,3.942,37.213-5.729,51.014-34.49,10.99-22.901,5.247-16.813,18.831-54.697Z"/><path class="cls-2" d="m111.281,21.851c5.379-1.958,11.157-2.445,17.338-1.031,43.038,9.845,43.834,91.154,30.815,142.782-13.019,51.628-27.682,37.855-41.265,75.74-13.584,37.884-7.841,31.796-18.831,54.697-8.819,18.378-20.814,28.96-32.403,33.179-6.548,2.383-12.968,2.735-18.611,1.312-15.631-3.942-36.254-25.07-25.248-51.706,18.098-43.799,25.136-67.716,30.631-89.504,5.494-21.788-7.747-35.203.429-64.631,7.002-25.202,25.07-89.161,57.145-100.836m-6.84-18.794c-19.242,7.004-35.378,25.267-49.329,55.835-10.245,22.448-17,46.758-20.246,58.441-5.647,20.325-3.201,34.82-1.236,46.467,1.418,8.401,2.092,13.046.684,18.628-4.641,18.406-11.149,41.807-29.722,86.757-6.572,15.904-6.075,32.847,1.398,47.706,7.669,15.25,22.017,27.14,37.444,31.031,9.697,2.445,20.189,1.785,30.342-1.911,17.819-6.486,33.301-21.87,43.594-43.32,6.469-13.479,7.932-18.465,10.16-26.815,1.49-5.584,3.531-13.232,9.465-29.785,4.597-12.821,8.611-17.145,14.165-23.129,10.837-11.675,19.756-23.099,27.667-54.471,5.653-22.418,8.464-47.588,7.915-70.873-.675-28.627-6.212-51.626-16.458-68.358-9.05-14.779-21.915-24.44-37.206-27.937-9.728-2.226-19.364-1.642-28.639,1.733h0Z"/></g></svg>