<?xml version="1.0" encoding="UTF-8"?><svg id="_レイヤー_2" xmlns="http://www.w3.org/2000/svg" width="96.006" height="300.451" viewBox="0 0 96.006 300.451"><defs><style>.cls-1{fill:#fff;}.cls-2{fill:#c7e9e7;}.cls-3{fill:#1289a1;}</style></defs><g id="_イラスト素材"><path class="cls-1" d="m20.003,213.128l28,67.323,28-67.323c-18.667-10.493-37.333-10.493-56,0Z"/><path class="cls-3" d="m48.003,205.258c9.333,0,18.667,2.623,28,7.87l-28,67.323-28-67.323c9.333-5.247,18.667-7.87,28-7.87m0-20c-12.764,0-25.482,3.511-37.8,10.436-8.835,4.966-12.558,15.757-8.666,25.115l28,67.323c3.102,7.459,10.388,12.32,18.467,12.32s15.364-4.86,18.467-12.32l28-67.323c3.892-9.358.169-20.148-8.666-25.115-12.318-6.925-25.036-10.436-37.8-10.436h0Z"/><polygon class="cls-1" points="20.003 213.128 48.003 280.451 76.003 213.128 76.003 99.296 20.338 99.296 20.003 213.128"/><path class="cls-3" d="m76.003,99.296v113.832l-28,67.323-28-67.323.334-113.832h55.666m0-20H20.338c-11.023,0-19.968,8.919-20,19.941L.003,213.069c-.008,2.656.513,5.287,1.533,7.739l28,67.323c3.102,7.459,10.388,12.32,18.467,12.32s15.364-4.86,18.467-12.32l28-67.323c1.012-2.434,1.533-5.044,1.533-7.68v-113.832c0-11.046-8.954-20-20-20h0Z"/><path class="cls-2" d="m76.003,213.128c-18.667-10.493-37.333-10.493-56,0V33.128c0-17.504,56-17.504,56,0v180Z"/><path class="cls-3" d="m48.003,20c14,0,28,4.376,28,13.128v180c-9.333-5.247-18.667-7.87-28-7.87s-18.667,2.623-28,7.87V33.128c0-8.752,14-13.128,28-13.128m0-20c-7.014,0-17.383.836-26.944,4.821C2.055,12.741.003,27.255.003,33.128v180c0,7.104,3.769,13.675,9.901,17.263,3.117,1.824,6.608,2.737,10.1,2.737,3.377,0,6.755-.854,9.8-2.566,6.349-3.569,12.302-5.304,18.2-5.304s11.85,1.735,18.2,5.304c3.044,1.711,6.424,2.566,9.8,2.566,3.492,0,6.982-.913,10.1-2.737,6.132-3.587,9.901-10.158,9.901-17.263V33.128c0-5.872-2.052-20.387-21.056-28.307C65.386.836,55.017,0,48.003,0h0Z"/><circle class="cls-3" cx="48.003" cy="280.128" r="17"/></g></svg>