<?xml version="1.0" encoding="UTF-8"?><svg id="_レイヤー_2" xmlns="http://www.w3.org/2000/svg" width="377.916" height="477.423" viewBox="0 0 377.916 477.423"><defs><style>.cls-1{fill:#fff;}.cls-2{fill:#c7e9e7;}.cls-3{fill:#1289a1;}</style></defs><g id="_イラスト素材"><ellipse class="cls-1" cx="239.406" cy="100.107" rx="73.5" ry="131" transform="translate(63.455 290.837) rotate(-70)"/><path class="cls-3" d="m210.848,178.571c-37.992-13.828-67.242-26.685-86.5-44.482-23.516-21.732-29.382-49.39-17.438-82.207C118.854,19.065,141.126,1.649,173.11.117c26.192-1.255,56.863,7.698,94.855,21.526s67.242,26.685,86.5,44.482c23.516,21.732,29.382,49.39,17.438,82.207-11.944,32.817-34.217,50.233-66.2,51.765-26.192,1.255-56.863-7.698-94.855-21.526Zm50.277-138.135c-35.724-13.002-64.2-21.438-87.057-20.342-24.146,1.156-39.061,13.07-48.364,38.628-9.302,25.558-5.534,44.272,12.219,60.678,16.806,15.532,44.042,27.374,79.765,40.377,35.724,13.002,64.2,21.438,87.057,20.342,24.146-1.156,39.061-13.07,48.364-38.628,9.302-25.558,5.534-44.272-12.219-60.678-16.806-15.532-44.042-27.374-79.765-40.377Z"/><path class="cls-1" d="m191.066,335.255l-66.718-24.283,66.119-181.661c4.577-12.576,71.295,11.708,66.718,24.283l-66.119,181.661Z"/><path class="cls-3" d="m187.645,344.652l-66.718-24.283c-5.189-1.889-7.866-7.628-5.977-12.817l66.119-181.661c1.956-5.375,7.607-11.439,23.423-9.807,7.398.764,16.697,3.086,26.186,6.54,9.489,3.454,18.106,7.652,24.264,11.822,7.266,4.921,15.183,12.831,11.639,22.568l-66.119,181.661c-1.889,5.189-7.628,7.866-12.817,5.977Zm-50.481-39.657l47.924,17.443,61.585-169.203c-2.868-2.525-10.264-7.241-22.836-11.817-12.571-4.576-21.269-5.717-25.089-5.626l-61.585,169.203Z"/><ellipse class="cls-2" cx="138.51" cy="377.316" rx="73.5" ry="131" transform="translate(-263.424 378.424) rotate(-70)"/><path class="cls-3" d="m109.952,455.781c-37.992-13.828-67.242-26.685-86.5-44.482C-.064,389.566-5.931,361.908,6.014,329.092c11.944-32.817,34.217-50.233,66.2-51.765,26.192-1.255,56.863,7.698,94.855,21.526s67.242,26.685,86.5,44.482c23.516,21.732,29.382,49.39,17.438,82.207-11.944,32.817-34.217,50.233-66.2,51.765-26.192,1.255-56.863-7.698-94.855-21.526Zm50.277-138.135c-35.724-13.002-64.2-21.438-87.057-20.342-24.146,1.156-39.061,13.07-48.364,38.628-9.302,25.558-5.534,44.272,12.219,60.678,16.806,15.532,44.042,27.374,79.765,40.377,35.724,13.002,64.2,21.438,87.057,20.342,24.146-1.156,39.061-13.07,48.364-38.628,9.302-25.558,5.534-44.272-12.219-60.678-16.806-15.532-44.042-27.374-79.765-40.377Z"/></g></svg>