<?xml version="1.0" encoding="utf-8"?>
<!-- Generator: Adobe Illustrator 28.1.0, SVG Export Plug-In . SVG Version: 6.00 Build 0)  -->
<svg version="1.1" id="_x32_" xmlns="http://www.w3.org/2000/svg" xmlns:xlink="http://www.w3.org/1999/xlink" x="0px" y="0px"
	 viewBox="0 0 180 180" style="enable-background:new 0 0 180 180;" xml:space="preserve">
<style type="text/css">
	.st0{fill:#026FD6;}
</style>
<g>
	<path class="st0" d="M96.9,92.2l-8.8-1c-1.2-0.1-2.2-0.9-2.7-2c0,0,0,0,0,0c-0.5-1.1-0.3-2.4,0.5-3.3l5.5-6.9
		c1-1.3,0.9-3.2-0.2-4.4L80.8,64.3c-1.2-1.2-3.1-1.3-4.4-0.2l-6.9,5.5c-0.9,0.8-2.2,0.9-3.3,0.5c0,0,0,0,0,0c-1.1-0.5-1.9-1.5-2-2.7
		l-1-8.8c-0.2-1.7-1.6-2.9-3.2-2.9H45.3c-1.7,0-3.1,1.3-3.2,2.9l-1,8.8c-0.1,1.2-0.9,2.2-2,2.7c0,0,0,0,0,0
		c-1.1,0.5-2.4,0.3-3.3-0.5L28.8,64c-1.3-1-3.2-0.9-4.4,0.2L14.1,74.6c-1.2,1.2-1.3,3.1-0.2,4.4l5.5,6.9c0.8,0.9,0.9,2.2,0.5,3.3
		c0,0,0,0,0,0c-0.5,1.1-1.5,1.9-2.7,2l-8.8,1c-1.7,0.2-2.9,1.6-2.9,3.2v14.7c0,1.7,1.3,3.1,2.9,3.2l8.8,1c1.2,0.1,2.2,0.9,2.7,2
		c0,0,0,0,0,0c0.5,1.1,0.3,2.4-0.5,3.3l-5.5,6.9c-1,1.3-0.9,3.2,0.2,4.4l10.4,10.4c1.2,1.2,3.1,1.3,4.4,0.2l6.9-5.5
		c0.9-0.8,2.2-0.9,3.3-0.5c0,0,0,0,0,0c1.1,0.5,1.9,1.5,2,2.7l1,8.8c0.2,1.7,1.6,2.9,3.2,2.9H60c1.7,0,3.1-1.3,3.2-2.9l1-8.8
		c0.1-1.2,0.9-2.2,2-2.7c0,0,0,0,0,0c1.1-0.5,2.4-0.3,3.3,0.5l6.9,5.5c1.3,1,3.2,0.9,4.4-0.2L91.2,131c1.2-1.2,1.3-3.1,0.2-4.4
		l-5.5-6.9c-0.8-0.9-0.9-2.2-0.5-3.3c0,0,0,0,0,0c0.5-1.1,1.5-1.9,2.7-2l8.8-1c1.7-0.2,2.9-1.6,2.9-3.2V95.5
		C99.9,93.8,98.6,92.4,96.9,92.2z M52.7,117.5c-8.1,0-14.7-6.6-14.7-14.7c0-8.1,6.6-14.7,14.7-14.7s14.7,6.6,14.7,14.7
		S60.8,117.5,52.7,117.5z"/>
	<path class="st0" d="M173,77.5l-6-4.8c-1-0.8-1.5-1.9-1.5-3.1c0,0,0,0,0,0c0-1.2,0.5-2.4,1.5-3.2l6-4.8c1.4-1.1,1.9-3,1.2-4.6
		l-2.6-6.4c-0.7-1.6-2.3-2.6-4.1-2.4l-7.6,0.9c-1.2,0.1-2.4-0.3-3.3-1.2c0,0,0,0,0,0c-0.9-0.9-1.3-2.1-1.2-3.3l0.9-7.6
		c0.2-1.7-0.8-3.4-2.4-4.1l-6.4-2.6c-1.6-0.7-3.5-0.2-4.6,1.2l-4.8,6c-0.8,1-1.9,1.5-3.1,1.5c0,0,0,0,0,0c-1.2,0-2.4-0.5-3.2-1.5
		l-4.8-6c-1.1-1.4-3-1.9-4.6-1.2l-6.4,2.6c-1.6,0.7-2.6,2.3-2.4,4.1l0.9,7.6c0.1,1.2-0.3,2.4-1.2,3.3c0,0,0,0,0,0
		c-0.9,0.9-2.1,1.3-3.3,1.2l-7.6-0.9c-1.7-0.2-3.4,0.8-4.1,2.4l-2.6,6.4c-0.7,1.6-0.2,3.5,1.2,4.6l6,4.8c1,0.8,1.5,1.9,1.5,3.1
		c0,0,0,0,0,0c0,1.2-0.5,2.4-1.5,3.2l-6,4.8c-1.4,1.1-1.9,3-1.2,4.6l2.6,6.4c0.7,1.6,2.3,2.6,4.1,2.4L110,90
		c1.2-0.1,2.4,0.3,3.3,1.2c0,0,0,0,0,0c0.9,0.9,1.3,2.1,1.2,3.3l-0.9,7.6c-0.2,1.7,0.8,3.4,2.4,4.1l6.4,2.6c1.6,0.7,3.5,0.2,4.6-1.2
		l4.8-6c0.8-1,1.9-1.5,3.1-1.5c0,0,0,0,0,0c1.2,0,2.4,0.5,3.2,1.5l4.8,6c1.1,1.4,3,1.9,4.6,1.2l6.4-2.6c1.6-0.7,2.6-2.3,2.4-4.1
		l-0.9-7.6c-0.1-1.2,0.3-2.4,1.2-3.3c0,0,0,0,0,0c0.9-0.9,2.1-1.3,3.3-1.2l7.6,0.9c1.7,0.2,3.4-0.8,4.1-2.4l2.6-6.4
		C174.9,80.5,174.4,78.6,173,77.5z M138.9,81c-6.1,2.5-13.2-0.4-15.7-6.5c-2.5-6.1,0.4-13.2,6.5-15.7s13.2,0.4,15.7,6.5
		C147.9,71.4,145,78.4,138.9,81z"/>
</g>
</svg>
