<?xml version="1.0" encoding="UTF-8"?><svg id="_レイヤー_2" xmlns="http://www.w3.org/2000/svg" width="446.879" height="553.692" viewBox="0 0 446.879 553.692"><defs><style>.cls-1{fill:#fff;}.cls-2{fill:#c7e9e7;}.cls-3{fill:#1289a1;}</style></defs><g id="_イラスト素材"><rect class="cls-2" x="48.939" y="38.028" width="349" height="479" transform="translate(51.587 -34.584) rotate(10)"/><path class="cls-3" d="m351.963,553.539L8.265,492.935c-5.439-.959-9.071-6.146-8.112-11.585L83.331,9.628c.959-5.439,6.146-9.071,11.585-8.112l343.698,60.603c5.439.959,9.071,6.146,8.112,11.585l-83.177,471.723c-.959,5.439-6.146,9.071-11.585,8.112ZM21.586,474.976l324.002,57.13,79.705-452.027L101.291,22.949,21.586,474.976Z"/><rect class="cls-1" x="92.023" y="68.711" width="267" height="393.997" transform="translate(49.566 -35.125) rotate(10)"/><path class="cls-3" d="m321.05,492.746l-262.944-46.364c-5.439-.959-9.071-6.146-8.112-11.585L118.412,46.785c.959-5.439,6.146-9.071,11.585-8.112l262.944,46.364c5.439.959,9.071,6.146,8.112,11.585l-68.417,388.012c-.959,5.439-6.146,9.071-11.585,8.112Zm-249.623-64.324l243.248,42.891,64.944-368.316-243.248-42.891-64.944,368.316Z"/><rect class="cls-1" x="181.898" y="23.415" width="160.531" height="69" transform="translate(14.04 -44.644) rotate(10)"/><path class="cls-3" d="m333.481,115.677l-158.091-27.876c-5.439-.959-9.071-6.146-8.112-11.585l11.982-67.952c.959-5.439,6.146-9.071,11.585-8.112l158.091,27.876c5.439.959,9.071,6.146,8.112,11.585l-11.982,67.952c-.959,5.439-6.146,9.071-11.585,8.112Zm-144.77-45.835l138.395,24.403,8.509-48.256-138.395-24.403-8.509,48.256Z"/><circle class="cls-3" cx="157.268" cy="154.671" r="10"/><path class="cls-3" d="m329.842,195.254l-137.873-24.311c-5.439-.959-9.071-6.146-8.112-11.585s6.146-9.071,11.585-8.112l137.873,24.311c5.439.959,9.071,6.146,8.112,11.585s-6.146,9.071-11.585,8.112Z"/><circle class="cls-3" cx="145.634" cy="220.653" r="10"/><path class="cls-3" d="m318.208,261.236l-137.873-24.311c-5.439-.959-9.071-6.146-8.112-11.585s6.146-9.071,11.585-8.112l137.873,24.311c5.439.959,9.071,6.146,8.112,11.585s-6.146,9.071-11.585,8.112Z"/><circle class="cls-3" cx="133.999" cy="286.635" r="10"/><path class="cls-3" d="m306.574,327.219l-137.873-24.311c-5.439-.959-9.071-6.146-8.112-11.585s6.146-9.071,11.585-8.112l137.873,24.311c5.439.959,9.071,6.146,8.112,11.585s-6.146,9.071-11.585,8.112Z"/><circle class="cls-3" cx="122.365" cy="352.617" r="10"/><path class="cls-3" d="m294.939,393.201l-137.873-24.311c-5.439-.959-9.071-6.146-8.112-11.585s6.146-9.071,11.585-8.112l137.873,24.311c5.439.959,9.071,6.146,8.112,11.585s-6.146,9.071-11.585,8.112Z"/></g></svg>