<?xml version="1.0" encoding="UTF-8"?><svg id="_レイヤー_2" xmlns="http://www.w3.org/2000/svg" width="446.879" height="552.329" viewBox="0 0 446.879 552.329"><defs><style>.cls-1{fill:#f4a452;}.cls-2{fill:#fff;}.cls-3{fill:#1289a1;}</style></defs><g id="_イラスト素材"><rect class="cls-2" x="48.939" y="36.665" width="349" height="479" transform="translate(-44.561 42.995) rotate(-10)"/><path class="cls-3" d="m438.614,491.573l-343.698,60.603c-5.439.959-10.626-2.673-11.585-8.112L.154,72.341c-.959-5.439,2.673-10.626,8.112-11.585L351.963.154c5.439-.959,10.626,2.673,11.585,8.112l83.177,471.723c.959,5.439-2.673,10.626-8.112,11.585Zm-337.323,39.171l324.002-57.13L345.588,21.586,21.586,78.716l79.705,452.027Z"/><path class="cls-3" d="m104.928,200.088c-2.72.48-5.313-1.337-5.792-4.056l-3.169-17.973c-.479-2.719,1.336-5.313,4.056-5.792s5.313,1.337,5.792,4.056l3.169,17.973c.479,2.719-1.336,5.313-4.056,5.792Z"/><path class="cls-3" d="m139.397,194.01c-2.72.48-5.313-1.337-5.792-4.056l-3.169-17.973c-.479-2.719,1.336-5.313,4.056-5.792s5.313,1.337,5.792,4.056l3.169,17.973c.479,2.719-1.336,5.313-4.056,5.792Z"/><path class="cls-3" d="m157.123,190.885c-2.72.48-5.313-1.337-5.792-4.056l-3.169-17.973c-.479-2.719,1.336-5.313,4.056-5.792s5.313,1.337,5.792,4.056l3.169,17.973c.479,2.719-1.336,5.313-4.056,5.792Z"/><path class="cls-3" d="m174.85,187.759c-2.72.48-5.313-1.337-5.792-4.056l-3.169-17.973c-.479-2.719,1.336-5.313,4.056-5.792s5.313,1.337,5.792,4.056l3.169,17.973c.479,2.719-1.336,5.313-4.056,5.792Z"/><path class="cls-3" d="m192.576,184.633c-2.72.48-5.313-1.337-5.792-4.056l-3.169-17.973c-.479-2.719,1.336-5.313,4.056-5.792s5.313,1.337,5.792,4.056l3.169,17.973c.479,2.719-1.336,5.313-4.056,5.792Z"/><path class="cls-3" d="m210.303,181.508c-2.72.48-5.313-1.337-5.792-4.056l-3.169-17.973c-.479-2.719,1.336-5.313,4.056-5.792s5.313,1.337,5.792,4.056l3.169,17.973c.479,2.719-1.336,5.313-4.056,5.792Z"/><path class="cls-3" d="m228.029,178.382c-2.72.48-5.313-1.337-5.792-4.056l-3.169-17.973c-.479-2.719,1.336-5.313,4.056-5.792s5.313,1.337,5.792,4.056l3.169,17.973c.479,2.719-1.336,5.313-4.056,5.792Z"/><path class="cls-3" d="m273.33,170.394c-2.72.48-5.313-1.337-5.792-4.056l-3.169-17.973c-.479-2.719,1.336-5.313,4.056-5.792s5.313,1.337,5.792,4.056l3.169,17.973c.479,2.719-1.336,5.313-4.056,5.792Z"/><path class="cls-3" d="m291.057,167.269c-2.72.48-5.313-1.337-5.792-4.056l-3.169-17.973c-.479-2.719,1.336-5.313,4.056-5.792s5.313,1.337,5.792,4.056l3.169,17.973c.479,2.719-1.336,5.313-4.056,5.792Z"/><path class="cls-3" d="m308.784,164.143c-2.72.48-5.313-1.337-5.792-4.056l-3.169-17.973c-.479-2.719,1.336-5.313,4.056-5.792s5.313,1.337,5.792,4.056l3.169,17.973c.479,2.719-1.336,5.313-4.056,5.792Z"/><path class="cls-3" d="m336.239,181.641l-251.126,44.28c-2.72.48-5.313-1.337-5.792-4.056s1.336-5.313,4.056-5.792l251.126-44.28c2.72-.48,5.313,1.337,5.792,4.056s-1.336,5.313-4.056,5.792Z"/><path class="cls-3" d="m120.383,287.736c-2.72.48-5.313-1.337-5.792-4.056l-3.169-17.973c-.479-2.719,1.336-5.313,4.056-5.792s5.313,1.337,5.792,4.056l3.169,17.973c.479,2.719-1.336,5.313-4.056,5.792Z"/><path class="cls-3" d="m154.851,281.658c-2.72.48-5.313-1.337-5.792-4.056l-3.169-17.973c-.479-2.719,1.336-5.313,4.056-5.792s5.313,1.337,5.792,4.056l3.169,17.973c.479,2.719-1.336,5.313-4.056,5.792Z"/><path class="cls-3" d="m172.578,278.533c-2.72.48-5.313-1.337-5.792-4.056l-3.169-17.973c-.479-2.719,1.336-5.313,4.056-5.792s5.313,1.337,5.792,4.056l3.169,17.973c.479,2.719-1.336,5.313-4.056,5.792Z"/><path class="cls-3" d="m190.304,275.407c-2.72.48-5.313-1.337-5.792-4.056l-3.169-17.973c-.479-2.719,1.336-5.313,4.056-5.792s5.313,1.337,5.792,4.056l3.169,17.973c.479,2.719-1.336,5.313-4.056,5.792Z"/><path class="cls-3" d="m208.031,272.281c-2.72.48-5.313-1.337-5.792-4.056l-3.169-17.973c-.479-2.719,1.336-5.313,4.056-5.792s5.313,1.337,5.792,4.056l3.169,17.973c.479,2.719-1.336,5.313-4.056,5.792Z"/><path class="cls-3" d="m225.757,269.156c-2.72.48-5.313-1.337-5.792-4.056l-3.169-17.973c-.479-2.719,1.336-5.313,4.056-5.792s5.313,1.337,5.792,4.056l3.169,17.973c.479,2.719-1.336,5.313-4.056,5.792Z"/><path class="cls-3" d="m243.484,266.03c-2.72.48-5.313-1.337-5.792-4.056l-3.169-17.973c-.479-2.719,1.336-5.313,4.056-5.792s5.313,1.337,5.792,4.056l3.169,17.973c.479,2.719-1.336,5.313-4.056,5.792Z"/><path class="cls-3" d="m288.785,258.042c-2.72.48-5.313-1.337-5.792-4.056l-3.169-17.973c-.479-2.719,1.336-5.313,4.056-5.792s5.313,1.337,5.792,4.056l3.169,17.973c.479,2.719-1.336,5.313-4.056,5.792Z"/><path class="cls-3" d="m306.512,254.917c-2.72.48-5.313-1.337-5.792-4.056l-3.169-17.973c-.479-2.719,1.336-5.313,4.056-5.792s5.313,1.337,5.792,4.056l3.169,17.973c.479,2.719-1.336,5.313-4.056,5.792Z"/><path class="cls-3" d="m324.238,251.791c-2.72.48-5.313-1.337-5.792-4.056l-3.169-17.973c-.479-2.719,1.336-5.313,4.056-5.792s5.313,1.337,5.792,4.056l3.169,17.973c.479,2.719-1.336,5.313-4.056,5.792Z"/><path class="cls-3" d="m351.694,269.289l-251.126,44.28c-2.72.48-5.313-1.337-5.792-4.056s1.336-5.313,4.056-5.792l251.126-44.28c2.72-.48,5.313,1.337,5.792,4.056s-1.336,5.313-4.056,5.792Z"/><path class="cls-3" d="m135.838,375.384c-2.72.48-5.313-1.337-5.792-4.056l-3.169-17.973c-.479-2.719,1.336-5.313,4.056-5.792s5.313,1.337,5.792,4.056l3.169,17.973c.479,2.719-1.336,5.313-4.056,5.792Z"/><path class="cls-3" d="m170.306,369.306c-2.72.48-5.313-1.337-5.792-4.056l-3.169-17.973c-.479-2.719,1.336-5.313,4.056-5.792s5.313,1.337,5.792,4.056l3.169,17.973c.479,2.719-1.336,5.313-4.056,5.792Z"/><path class="cls-3" d="m188.033,366.181c-2.72.48-5.313-1.337-5.792-4.056l-3.169-17.973c-.479-2.719,1.336-5.313,4.056-5.792s5.313,1.337,5.792,4.056l3.169,17.973c.479,2.719-1.336,5.313-4.056,5.792Z"/><path class="cls-3" d="m205.759,363.055c-2.72.48-5.313-1.337-5.792-4.056l-3.169-17.973c-.479-2.719,1.336-5.313,4.056-5.792s5.313,1.337,5.792,4.056l3.169,17.973c.479,2.719-1.336,5.313-4.056,5.792Z"/><path class="cls-3" d="m223.486,359.929c-2.72.48-5.313-1.337-5.792-4.056l-3.169-17.973c-.479-2.719,1.336-5.313,4.056-5.792s5.313,1.337,5.792,4.056l3.169,17.973c.479,2.719-1.336,5.313-4.056,5.792Z"/><path class="cls-3" d="m241.212,356.804c-2.72.48-5.313-1.337-5.792-4.056l-3.169-17.973c-.479-2.719,1.336-5.313,4.056-5.792s5.313,1.337,5.792,4.056l3.169,17.973c.479,2.719-1.336,5.313-4.056,5.792Z"/><path class="cls-3" d="m258.939,353.678c-2.72.48-5.313-1.337-5.792-4.056l-3.169-17.973c-.479-2.719,1.336-5.313,4.056-5.792s5.313,1.337,5.792,4.056l3.169,17.973c.479,2.719-1.336,5.313-4.056,5.792Z"/><path class="cls-3" d="m304.24,345.69c-2.72.48-5.313-1.337-5.792-4.056l-3.169-17.973c-.479-2.719,1.336-5.313,4.056-5.792s5.313,1.337,5.792,4.056l3.169,17.973c.479,2.719-1.336,5.313-4.056,5.792Z"/><path class="cls-3" d="m321.966,342.564c-2.72.48-5.313-1.337-5.792-4.056l-3.169-17.973c-.479-2.719,1.336-5.313,4.056-5.792s5.313,1.337,5.792,4.056l3.169,17.973c.479,2.719-1.336,5.313-4.056,5.792Z"/><path class="cls-3" d="m339.693,339.439c-2.72.48-5.313-1.337-5.792-4.056l-3.169-17.973c-.479-2.719,1.336-5.313,4.056-5.792s5.313,1.337,5.792,4.056l3.169,17.973c.479,2.719-1.336,5.313-4.056,5.792Z"/><path class="cls-3" d="m367.149,356.937l-251.126,44.28c-2.72.48-5.313-1.337-5.792-4.056s1.336-5.313,4.056-5.792l251.126-44.28c2.72-.48,5.313,1.337,5.792,4.056s-1.336,5.313-4.056,5.792Z"/><path class="cls-3" d="m151.292,463.032c-2.72.48-5.313-1.337-5.792-4.056l-3.169-17.973c-.479-2.719,1.336-5.313,4.056-5.792s5.313,1.337,5.792,4.056l3.169,17.973c.479,2.719-1.336,5.313-4.056,5.792Z"/><path class="cls-3" d="m185.761,456.954c-2.72.48-5.313-1.337-5.792-4.056l-3.169-17.973c-.479-2.719,1.336-5.313,4.056-5.792s5.313,1.337,5.792,4.056l3.169,17.973c.479,2.719-1.336,5.313-4.056,5.792Z"/><path class="cls-3" d="m203.487,453.828c-2.72.48-5.313-1.337-5.792-4.056l-3.169-17.973c-.479-2.719,1.336-5.313,4.056-5.792s5.313,1.337,5.792,4.056l3.169,17.973c.479,2.719-1.336,5.313-4.056,5.792Z"/><path class="cls-3" d="m221.214,450.703c-2.72.48-5.313-1.337-5.792-4.056l-3.169-17.973c-.479-2.719,1.336-5.313,4.056-5.792s5.313,1.337,5.792,4.056l3.169,17.973c.479,2.719-1.336,5.313-4.056,5.792Z"/><path class="cls-3" d="m238.94,447.577c-2.72.48-5.313-1.337-5.792-4.056l-3.169-17.973c-.479-2.719,1.336-5.313,4.056-5.792s5.313,1.337,5.792,4.056l3.169,17.973c.479,2.719-1.336,5.313-4.056,5.792Z"/><path class="cls-3" d="m256.667,444.451c-2.72.48-5.313-1.337-5.792-4.056l-3.169-17.973c-.479-2.719,1.336-5.313,4.056-5.792s5.313,1.337,5.792,4.056l3.169,17.973c.479,2.719-1.336,5.313-4.056,5.792Z"/><path class="cls-3" d="m274.393,441.326c-2.72.48-5.313-1.337-5.792-4.056l-3.169-17.973c-.479-2.719,1.336-5.313,4.056-5.792s5.313,1.337,5.792,4.056l3.169,17.973c.479,2.719-1.336,5.313-4.056,5.792Z"/><path class="cls-3" d="m319.695,433.338c-2.72.48-5.313-1.337-5.792-4.056l-3.169-17.973c-.479-2.719,1.336-5.313,4.056-5.792s5.313,1.337,5.792,4.056l3.169,17.973c.479,2.719-1.336,5.313-4.056,5.792Z"/><path class="cls-3" d="m337.421,430.212c-2.72.48-5.313-1.337-5.792-4.056l-3.169-17.973c-.479-2.719,1.336-5.313,4.056-5.792s5.313,1.337,5.792,4.056l3.169,17.973c.479,2.719-1.336,5.313-4.056,5.792Z"/><path class="cls-3" d="m355.148,427.087c-2.72.48-5.313-1.337-5.792-4.056l-3.169-17.973c-.479-2.719,1.336-5.313,4.056-5.792s5.313,1.337,5.792,4.056l3.169,17.973c.479,2.719-1.336,5.313-4.056,5.792Z"/><path class="cls-3" d="m382.603,444.585l-251.126,44.28c-2.72.48-5.313-1.337-5.792-4.056s1.336-5.313,4.056-5.792l251.126-44.28c2.72-.48,5.313,1.337,5.792,4.056s-1.336,5.313-4.056,5.792Z"/><path class="cls-1" d="m87.631,148.523l-9.468-53.694c-.149-.846-.014-1.569.404-2.167.419-.597,1.051-.972,1.898-1.121l6.607-1.165c1.071-.189,1.942.125,2.61.937l16.915,20.158c1.01,1.103,1.923,1.583,2.743,1.438s1.485-.902,2.001-2.275l8.831-24.698c.35-.992,1.059-1.584,2.132-1.773l6.692-1.18c.846-.149,1.568-.014,2.167.404s.972,1.051,1.121,1.898l9.468,53.694c.149.847.015,1.569-.404,2.167-.419.598-1.051.972-1.898,1.121l-5.59.986c-.847.149-1.57.015-2.168-.404-.597-.418-.971-1.051-1.12-1.898l-4.719-26.762c-.607-3.443-1.449-5.072-2.521-4.883-.96.169-1.917,1.678-2.87,4.523l-4.625,13.39c-.339,1.05-1.045,1.669-2.118,1.858l-3.218.567c-1.073.189-1.947-.15-2.625-1.022l-8.926-11.001c-1.87-2.348-3.284-3.438-4.243-3.269-1.073.189-1.306,2.007-.699,5.45l4.719,26.762c.149.847.015,1.569-.403,2.166-.418.598-1.051.972-1.899,1.121l-5.505.971c-.846.149-1.568.015-2.167-.404s-.972-1.05-1.121-1.898Z"/><path class="cls-1" d="m153.011,136.994l-9.468-53.694c-.149-.846-.014-1.569.404-2.167.419-.597,1.051-.972,1.898-1.121l34.809-6.138c.846-.149,1.568-.014,2.167.404s.972,1.051,1.121,1.898l.807,4.574c.149.846.015,1.569-.404,2.167s-1.051.972-1.898,1.121l-23.799,4.196c-.846.149-1.479.523-1.898,1.12-.419.598-.554,1.32-.404,2.168l1.449,8.215c.149.846.523,1.48,1.121,1.898s1.32.554,2.167.404l21.258-3.748c.846-.149,1.569-.015,2.167.403.597.419.971,1.052,1.12,1.899l.806,4.573c.149.847.015,1.569-.403,2.166s-1.052.972-1.899,1.121l-21.258,3.748c-.846.149-1.479.523-1.898,1.12-.419.598-.554,1.32-.404,2.168l1.658,9.401c.149.846.523,1.48,1.121,1.898.598.419,1.32.554,2.167.404l24.73-4.361c.847-.149,1.57-.015,2.167.403.597.419.971,1.052,1.12,1.899l.806,4.573c.149.847.015,1.569-.403,2.166-.418.598-1.051.972-1.899,1.121l-35.74,6.302c-.846.149-1.568.015-2.167-.404s-.972-1.05-1.121-1.898Z"/><path class="cls-1" d="m202.81,128.214l-9.468-53.694c-.149-.846-.015-1.569.403-2.166.419-.597,1.052-.972,1.899-1.121l6.775-1.195c.959-.169,1.796.121,2.51.867l26.076,27.538c1.712,1.793,3.021,2.611,3.925,2.451,1.129-.199,1.425-1.823.887-4.872l-4.958-28.118c-.149-.846-.015-1.569.404-2.167.418-.597,1.05-.972,1.898-1.121l5.505-.971c.847-.149,1.569-.014,2.167.404.598.418.972,1.051,1.121,1.898l9.468,53.694c.149.847.015,1.569-.404,2.167-.418.598-1.05.972-1.898,1.121l-6.183,1.09c-1.016.179-1.882-.105-2.595-.852l-26.892-28.703c-1.715-1.794-3.023-2.61-3.926-2.451-1.13.199-1.425,1.823-.887,4.872l5.182,29.387c.149.847.015,1.569-.403,2.166s-1.052.972-1.899,1.121l-5.42.956c-.846.149-1.569.015-2.168-.404s-.971-1.051-1.12-1.898Z"/><path class="cls-1" d="m304.644,90.173c2.748,15.583-3.557,24.729-18.914,27.436s-24.494-3.715-27.242-19.298l-6.033-34.215c-.149-.846-.015-1.569.403-2.166s1.051-.972,1.899-1.121l5.505-.971c.846-.149,1.568-.014,2.167.404s.972,1.051,1.121,1.898l5.929,33.623c1.563,8.864,6.353,12.589,14.37,11.175,4.347-.766,7.212-2.507,8.597-5.227,1.383-2.718,1.717-6.111,1-10.175l-5.929-33.623c-.149-.846-.015-1.569.404-2.167.418-.597,1.05-.972,1.898-1.121l5.504-.97c.848-.15,1.57-.014,2.168.404s.971,1.052,1.12,1.898l6.033,34.215Z"/></g></svg>