<?xml version="1.0" encoding="utf-8"?>
<!-- Generator: Adobe Illustrator 27.5.0, SVG Export Plug-In . SVG Version: 6.00 Build 0)  -->
<svg version="1.1" id="_レイヤー_2" xmlns="http://www.w3.org/2000/svg" xmlns:xlink="http://www.w3.org/1999/xlink" x="0px"
	 y="0px" viewBox="0 0 1466 120" style="enable-background:new 0 0 1466 120;" xml:space="preserve">
<style type="text/css">
	.st0{fill:#FFFFFF;}
	.st1{fill:#1289A1;}
	.st2{fill:#C7E9E7;}
	.st3{fill:#F4A452;}
</style>
<g>
	<path class="st0" d="M721.8,75.3c-6.8-5.5-8-1.3-16.2-9.4c-8.2-8.1-17.2-23.3-10.3-30c6.9-6.7,20.4,6,25.3,10.5s3.9,8.5,7.3,11.9
		c3.4,3.4,7.5,7.1,15.7,13.2c5,3.7,3.6,9.9,1.1,12.4s-7.6,3.1-13.3-0.7C726.9,80.3,728.6,80.8,721.8,75.3z"/>
	<path class="st1" d="M700.2,34.1c7.1,0,16.5,8.8,20.4,12.4c4.8,4.5,3.9,8.5,7.3,11.9c3.4,3.4,7.5,7.1,15.7,13.2
		c5,3.7,3.6,9.9,1.1,12.4c-1.3,1.3-3.1,2-5.4,2c-2.3,0-5-0.8-8-2.7c-4.6-3-2.9-2.5-9.7-8.1c-6.8-5.5-8-1.3-16.2-9.4
		s-17.2-23.3-10.3-30C696.7,34.6,698.4,34.1,700.2,34.1 M700.2,29.7L700.2,29.7c-3,0-5.7,1.1-7.9,3.1c-2.4,2.4-3.8,5.6-3.8,9.4
		c0,4.3,1.5,9.1,4.6,14.5c2.5,4.4,5.9,8.7,9.4,12.3c5,5,7.9,6,11.2,7c1.7,0.5,2.9,0.8,5.2,2.7c2.9,2.4,4.2,3.6,5.1,4.4
		c1.3,1.3,2.2,2.1,4.9,3.9c3.4,2.2,7,3.4,10.3,3.4c3.4,0,6.4-1.2,8.5-3.3c2.4-2.4,3.8-6.3,3.4-10c-0.3-3.6-2.1-6.8-5.1-9
		c-8.5-6.2-12.3-9.8-15.3-12.8c-0.9-0.8-1.3-1.8-1.9-3.5c-0.9-2.4-2.1-5.4-5.5-8.5C716.9,36.9,708.1,29.7,700.2,29.7L700.2,29.7
		L700.2,29.7z"/>
	<path class="st2" d="M1175.3,75.3c-6.8-5.5-8-1.3-16.2-9.4c-8.2-8.1-17.2-23.3-10.3-30c6.9-6.7,20.4,6,25.3,10.5
		c4.9,4.5,3.9,8.5,7.3,11.9s7.5,7.1,15.7,13.2c5,3.7,3.6,9.9,1.1,12.4s-7.6,3.1-13.3-0.7C1180.3,80.3,1182.1,80.8,1175.3,75.3z"/>
	<path class="st1" d="M1153.6,34.1c7.1,0,16.5,8.8,20.4,12.4c4.8,4.5,3.9,8.5,7.3,11.9c3.4,3.4,7.5,7.1,15.7,13.2
		c5,3.7,3.6,9.9,1.1,12.4c-1.3,1.3-3.1,2-5.4,2c-2.3,0-5-0.8-8-2.7c-4.6-3-2.9-2.5-9.7-8.1s-8-1.3-16.2-9.4
		c-8.2-8.1-17.2-23.3-10.3-30C1150.2,34.6,1151.9,34.1,1153.6,34.1 M1153.6,29.7L1153.6,29.7c-3,0-5.7,1.1-7.9,3.1
		c-2.4,2.4-3.8,5.6-3.8,9.4c0,4.3,1.5,9.1,4.6,14.5c2.5,4.4,5.9,8.7,9.4,12.3c5,5,7.9,6,11.2,7c1.7,0.5,2.9,0.8,5.2,2.7
		c2.9,2.4,4.2,3.6,5.1,4.4c1.3,1.3,2.2,2.1,4.9,3.9c3.4,2.2,7,3.4,10.3,3.4c3.4,0,6.4-1.2,8.5-3.3c2.4-2.4,3.8-6.3,3.4-10
		c-0.3-3.6-2.1-6.8-5.1-9c-8.5-6.2-12.3-9.8-15.3-12.8c-0.9-0.8-1.3-1.8-1.9-3.5c-0.9-2.4-2.1-5.4-5.5-8.5
		C1170.3,36.9,1161.6,29.7,1153.6,29.7L1153.6,29.7L1153.6,29.7z"/>
	<path class="st3" d="M494.2,74c2.9-8.2,6.1-5.2,9-16.5c2.9-11.2,2.7-28.8-6.7-31c-9.4-2.2-14.4,15.7-16.1,22.1s1.1,9.3-0.1,14
		c-1.2,4.7-2.7,9.9-6.6,19.4c-2.4,5.8,2.1,10.3,5.5,11.2c3.4,0.8,8.1-1.3,11.1-7.5C492.6,80.9,491.3,82.3,494.2,74L494.2,74z"/>
	<path class="st1" d="M492.7,26.9c1.2-0.4,2.4-0.5,3.8-0.3c9.3,2.1,9.5,19.7,6.7,31c-2.9,11.2-6,8.2-9,16.5
		c-2.9,8.2-1.7,6.9-4.1,11.8c-1.9,3.9-4.5,6.3-7.1,7.2c-1.4,0.5-2.8,0.6-4,0.3c-3.4-0.8-7.9-5.5-5.5-11.2c3.9-9.5,5.5-14.7,6.6-19.4
		c1.2-4.7-1.7-7.6,0.1-14C481.9,43.3,485.9,29.4,492.7,26.9 M491.3,22.8c-4.2,1.5-7.6,5.5-10.7,12.1c-2.2,4.9-3.7,10.2-4.4,12.7
		c-1.3,4.4-0.7,7.6-0.3,10.1c0.3,1.8,0.4,2.9,0.2,4c-1,4-2.4,9.1-6.5,18.8c-1.4,3.4-1.3,7.1,0.3,10.3c1.7,3.3,4.8,5.9,8.1,6.7
		c2.1,0.5,4.4,0.4,6.5-0.4c3.9-1.4,7.2-4.7,9.5-9.4c1.4-2.9,1.7-4,2.2-5.8c0.3-1.2,0.8-2.9,2-6.5c1-2.8,1.8-3.7,3.1-5
		c2.4-2.5,4.3-5,6-11.8c1.3-4.9,1.8-10.3,1.7-15.4c-0.2-6.2-1.3-11.2-3.6-14.9c-1.9-3.2-4.8-5.3-8.1-6
		C495.4,22,493.3,22.1,491.3,22.8L491.3,22.8L491.3,22.8z"/>
	<path class="st0" d="M1399.1,74c2.9-8.2,6.1-5.2,9-16.5c2.9-11.2,2.7-28.8-6.7-31s-14.4,15.7-16.1,22.1s1.1,9.3-0.1,14
		c-1.2,4.7-2.7,9.9-6.6,19.4c-2.4,5.8,2.1,10.3,5.5,11.2c3.4,0.8,8.1-1.3,11.1-7.5C1397.3,80.9,1396.1,82.3,1399.1,74z"/>
	<path class="st1" d="M1397.5,26.9c1.2-0.4,2.4-0.5,3.8-0.3c9.3,2.1,9.5,19.7,6.7,31c-2.9,11.2-6,8.2-9,16.5
		c-2.9,8.2-1.7,6.9-4.1,11.8c-1.9,3.9-4.5,6.3-7.1,7.2c-1.4,0.5-2.8,0.6-4,0.3c-3.4-0.8-7.9-5.5-5.5-11.2c3.9-9.5,5.5-14.7,6.6-19.4
		s-1.7-7.6,0.1-14C1386.6,43.3,1390.6,29.4,1397.5,26.9 M1396,22.8c-4.2,1.5-7.6,5.5-10.7,12.1c-2.2,4.9-3.7,10.2-4.4,12.7
		c-1.3,4.4-0.7,7.6-0.3,10.1c0.3,1.8,0.4,2.9,0.2,4c-1,4-2.4,9.1-6.5,18.8c-1.4,3.4-1.3,7.1,0.3,10.3c1.7,3.3,4.8,5.9,8.1,6.7
		c2.1,0.5,4.4,0.4,6.5-0.4c3.9-1.4,7.2-4.7,9.5-9.4c1.4-2.9,1.7-4,2.2-5.8c0.3-1.2,0.8-2.9,2-6.5c1-2.8,1.8-3.7,3.1-5
		c2.4-2.5,4.3-5,6-11.8c1.3-4.9,1.8-10.3,1.7-15.4c-0.2-6.2-1.3-11.2-3.6-14.9c-1.9-3.2-4.8-5.3-8.1-6
		C1400.2,22,1398.1,22.1,1396,22.8L1396,22.8L1396,22.8z"/>
	<path class="st0" d="M956.8,75.6l12.6,9.6l-2-15.7C962.6,69.6,959.2,71.6,956.8,75.6z"/>
	<path class="st1" d="M961.2,71.1c1.8-1,3.8-1.5,6.1-1.6l2,15.7l-12.6-9.6C957.9,73.6,959.5,72.1,961.2,71.1 M959,67.3
		c-2.4,1.3-4.4,3.4-6,6c-1.1,1.9-0.7,4.3,1.1,5.6l12.6,9.6c1.4,1.1,3.3,1.2,4.8,0.3c1.5-0.8,2.4-2.6,2.1-4.3l-2-15.7
		c-0.3-2.2-2.2-3.8-4.4-3.8C964.2,65.2,961.5,66,959,67.3L959,67.3L959,67.3z"/>
	<polygon class="st0" points="956.8,75.6 969.4,85.2 967.3,69.6 955,48.2 944.5,54.2 	"/>
	<path class="st1" d="M955,48.2l12.3,21.4l2,15.7l-12.6-9.6l-12.3-21.4L955,48.2 M952.8,44.4l-10.5,6c-2.1,1.2-2.8,3.9-1.6,5.9
		L953,77.7c0.3,0.5,0.7,0.9,1.1,1.3l12.6,9.6c1.4,1.1,3.3,1.2,4.8,0.3c1.5-0.8,2.4-2.6,2.1-4.3l-2-15.7c-0.1-0.6-0.3-1.1-0.5-1.6
		l-12.3-21.4C957.5,43.9,954.8,43.2,952.8,44.4L952.8,44.4L952.8,44.4z"/>
	<path class="st0" d="M967.3,69.6c-4.6,0.1-8.1,2.1-10.5,6l-19.5-33.8c-1.9-3.3,8.6-9.3,10.5-6C947.8,35.8,967.3,69.6,967.3,69.6z"
		/>
	<path class="st1" d="M941.2,36.4c2.6-1.5,5.7-2.2,6.7-0.6l19.5,33.8c-2.4,0-4.4,0.6-6.1,1.6c-1.8,1-3.2,2.5-4.4,4.5l-19.5-33.8
		C936.4,40.2,938.5,37.9,941.2,36.4 M939,32.6c-1.3,0.8-3.2,2-4.5,3.9c-2.7,3.5-1.5,6.5-0.9,7.6L953,77.9c0.8,1.3,2.2,2.2,3.7,2.2
		c0.8,0,1.5-0.2,2.2-0.6c0.7-0.3,1.2-0.9,1.6-1.5c0.8-1.3,1.8-2.4,2.9-2.9s2.4-0.9,4-1c0.8,0,1.5-0.3,2.1-0.6
		c0.7-0.4,1.2-0.9,1.6-1.6c0.8-1.3,0.8-3,0-4.3l-19.5-34c-0.7-1.1-2.6-3.6-7.1-3C942.3,30.8,940.2,31.8,939,32.6L939,32.6L939,32.6z
		"/>
	<circle class="st1" cx="969.3" cy="85.2" r="3.7"/>
	<path class="st0" d="M262.6,73.6l6,14.6l6-14.6C270.7,71.4,266.7,71.4,262.6,73.6L262.6,73.6z"/>
	<path class="st1" d="M268.7,72c2,0,4,0.6,6,1.7l-6,14.6l-6-14.6C264.6,72.5,266.7,72,268.7,72 M268.7,67.6c-2.8,0-5.5,0.8-8.2,2.3
		c-1.9,1.1-2.7,3.4-1.8,5.5l6,14.6c0.7,1.6,2.3,2.7,4,2.7c1.8,0,3.4-1.1,4-2.7l6-14.6c0.8-2,0-4.4-1.8-5.5
		C274.2,68.4,271.5,67.6,268.7,67.6L268.7,67.6z"/>
	<polygon class="st0" points="262.6,73.6 268.7,88.2 274.7,73.6 274.7,48.9 262.7,48.9 	"/>
	<path class="st1" d="M274.7,48.9v24.7l-6,14.6l-6-14.6l0.1-24.7L274.7,48.9 M274.7,44.7h-12.1c-2.4,0-4.4,1.9-4.4,4.4l-0.1,24.7
		c0,0.6,0.1,1.2,0.3,1.7l6,14.6c0.7,1.6,2.3,2.7,4,2.7c1.8,0,3.4-1.1,4-2.7l6-14.6c0.3-0.5,0.3-1.1,0.3-1.7V48.9
		C279.1,46.6,277.1,44.7,274.7,44.7L274.7,44.7z"/>
	<path class="st2" d="M274.7,73.6c-4-2.3-8.1-2.3-12.2,0V34.7c0-3.8,12.2-3.8,12.2,0V73.6z"/>
	<path class="st1" d="M268.7,31.8c3,0,6,0.9,6,2.9v39c-2-1.2-4-1.7-6-1.7c-2,0-4,0.6-6,1.7v-39C262.6,32.7,265.6,31.8,268.7,31.8
		 M268.7,27.5c-1.5,0-3.8,0.2-5.9,1c-4.1,1.7-4.5,4.9-4.5,6.1v39c0,1.5,0.8,2.9,2.2,3.8c0.7,0.4,1.4,0.6,2.2,0.6
		c0.8,0,1.4-0.2,2.1-0.6c1.3-0.8,2.7-1.2,3.9-1.2s2.6,0.3,3.9,1.2c0.7,0.3,1.4,0.6,2.1,0.6c0.8,0,1.5-0.2,2.2-0.6
		c1.3-0.8,2.2-2.2,2.2-3.8V34.7c0-1.3-0.4-4.4-4.5-6.1C272.5,27.6,270.2,27.5,268.7,27.5L268.7,27.5L268.7,27.5z"/>
	<circle class="st1" cx="268.7" cy="88.2" r="3.7"/>
	
		<rect x="-3.5" y="22.3" transform="matrix(0.1736 -0.9848 0.9848 0.1736 -19.2104 97.379)" class="st2" width="103.8" height="75.6"/>
	<path class="st1" d="M76.3,120L1.8,106.9c-1.2-0.2-1.9-1.3-1.8-2.5L18,2.1c0.2-1.2,1.3-1.9,2.5-1.8l74.5,13.1
		c1.2,0.2,1.9,1.3,1.8,2.5l-18,102.3C78.6,119.5,77.5,120.2,76.3,120z M4.7,103L75,115.4l17.3-98L22,5L4.7,103z"/>
	
		<rect x="6.1" y="28.6" transform="matrix(0.1736 -0.9848 0.9848 0.1736 -16.302 95.7023)" class="st0" width="85.5" height="57.9"/>
	<path class="st1" d="M69.6,106.9l-57-10.1c-1.2-0.2-1.9-1.3-1.8-2.5l14.9-84.1C25.8,9,27,8.2,28.2,8.4l57,10.1
		c1.2,0.2,1.9,1.3,1.8,2.5l-14.9,84.1C71.9,106.3,70.8,107,69.6,106.9z M15.4,92.9l52.7,9.3l14.1-79.8L29.5,13L15.4,92.9z"/>
	
		<rect x="49.3" y="-4.8" transform="matrix(0.1736 -0.9848 0.9848 0.1736 34.5749 66.3478)" class="st0" width="14.9" height="34.8"/>
	<path class="st1" d="M72.3,25.1l-34.2-6c-1.2-0.2-1.9-1.3-1.8-2.5l2.6-14.7c0.2-1.2,1.3-1.9,2.5-1.8l34.2,6
		c1.2,0.2,1.9,1.3,1.8,2.5l-2.6,14.7C74.6,24.5,73.4,25.3,72.3,25.1z M40.9,15.1l30,5.3l1.8-10.5l-30-5.2L40.9,15.1z"/>
	<circle class="st1" cx="34.1" cy="33.5" r="2.2"/>
	<path class="st1" d="M71.5,42.3L41.6,37c-1.2-0.2-1.9-1.3-1.8-2.5s1.3-1.9,2.5-1.8L72.3,38c1.2,0.2,1.9,1.3,1.8,2.5
		C73.9,41.7,72.7,42.6,71.5,42.3z"/>
	<circle class="st1" cx="31.6" cy="47.9" r="2.2"/>
	<path class="st1" d="M69,56.7l-29.9-5.3c-1.2-0.2-1.9-1.3-1.8-2.5s1.3-1.9,2.5-1.8l29.9,5.3c1.2,0.2,1.9,1.3,1.8,2.5
		C71.3,56.1,70.2,56.8,69,56.7z"/>
	<circle class="st1" cx="29" cy="62.1" r="2.2"/>
	<path class="st1" d="M66.5,70.9l-29.9-5.3c-1.2-0.2-1.9-1.3-1.8-2.5c0.2-1.2,1.3-1.9,2.5-1.8l29.9,5.3c1.2,0.2,1.9,1.3,1.8,2.5
		C68.8,70.4,67.7,71.2,66.5,70.9z"/>
	<circle class="st1" cx="26.5" cy="76.5" r="2.2"/>
	<path class="st1" d="M64,85.3L34.1,80c-1.2-0.2-1.9-1.3-1.8-2.5c0.2-1.2,1.3-1.9,2.5-1.8L64.7,81c1.2,0.2,1.9,1.3,1.8,2.5
		C66.3,84.7,65.1,85.5,64,85.3z"/>
	<ellipse class="st0" cx="1063.3" cy="41.7" rx="10" ry="29"/>
	<path class="st1" d="M1063.3,72.8c-2.6,0-6.3-1.8-9.1-9.9c-1.9-5.7-3-13.2-3-21.2s1.1-15.4,3-21.2c2.9-8.2,6.5-9.9,9.1-9.9
		c2.5,0,6.3,1.8,9.1,9.9c1.9,5.7,3,13.2,3,21.2s-1.1,15.4-3,21.2C1069.6,71.1,1065.9,72.8,1063.3,72.8z M1063.3,15
		c-2.7,0-7.8,9.2-7.8,26.8s5.1,26.8,7.8,26.8c2.7,0,7.8-9.2,7.8-26.8S1066.1,15,1063.3,15z"/>
	<path class="st2" d="M1052.7,62.6v12.2c-7.3,0-13.3,7.3-13.3,16.3s6,16.3,13.3,16.3c7.3,0,10.7-1.9,10.7-16.3V67.7
		C1063.3,67.7,1052.7,62.6,1052.7,62.6z M1054.7,99.4c-0.3,0.1-1,0.1-2,0.1c-2.6,0-5.5-3.4-5.5-8.5c0-5,2.9-8.5,5.5-8.5
		c1,0,1.7,0.1,2,0.1c0.3,0.8,0.8,3.1,0.8,8.4S1055,98.6,1054.7,99.4z"/>
	<path class="st1" d="M1052.7,109.5c-8.5,0-15.4-8.2-15.4-18.5c0-9.3,5.8-17,13.3-18.2V62.6c0-0.8,0.4-1.4,1-1.8
		c0.6-0.4,1.4-0.4,2.1-0.2l10.7,5c0.8,0.3,1.3,1.1,1.3,1.9V91c0,7.6-0.9,12.1-3,14.8C1060,109.1,1056.3,109.5,1052.7,109.5z
		 M1054.9,66.1v8.7c0,1.2-1,2.2-2.2,2.2c-6.1,0-11.1,6.3-11.1,14.1s5,14.1,11.1,14.1c5.3,0,8.5,0,8.5-14.1V69
		C1061.1,69,1054.9,66.1,1054.9,66.1z M1052.7,101.7c-2,0-4-1.2-5.5-3.3c-1.3-2-2.1-4.6-2.1-7.3c0-2.7,0.8-5.4,2.1-7.3
		c1.4-2.1,3.4-3.3,5.5-3.3c0.9,0,1.7,0,2.3,0.1c0.8,0.1,1.5,0.7,1.8,1.4c0.4,1.2,0.9,3.8,0.9,9.1c0,5.3-0.5,7.9-0.9,9.1
		c-0.3,0.8-0.9,1.3-1.8,1.4C1054.4,101.6,1053.6,101.7,1052.7,101.7L1052.7,101.7z M1054.7,99.4L1054.7,99.4L1054.7,99.4z
		 M1052.7,84.7c-1.2,0-3.3,2.4-3.3,6.3s2.1,6.3,3.3,6.3c0.1,0,0.2,0,0.3,0c0.2-1.2,0.3-3.1,0.3-6.3c0-3.2-0.2-5.1-0.3-6.3
		C1052.9,84.7,1052.8,84.7,1052.7,84.7z"/>
	<path class="st3" d="M1063.3,67.7v23.4c0,14.3,3.4,16.3,10.7,16.3c7.3,0,13.3-7.3,13.3-16.3s-6-16.3-13.3-16.3V62.6
		C1074,62.6,1063.3,67.7,1063.3,67.7z M1071.1,91c0-5.3,0.5-7.5,0.8-8.4c0.3-0.1,1-0.1,2-0.1c2.6,0,5.5,3.4,5.5,8.5
		c0,5-2.9,8.5-5.5,8.5c-1,0-1.7-0.1-2-0.1C1071.6,98.6,1071.1,96.3,1071.1,91z"/>
	<path class="st1" d="M1074,109.5c-3.6,0-7.3-0.4-9.7-3.6c-2.1-2.8-3-7.2-3-14.8V67.7c0-0.8,0.5-1.6,1.3-1.9l10.7-5
		c0.7-0.3,1.4-0.3,2.1,0.2c0.6,0.4,1,1.1,1,1.8v10.2c7.5,1.3,13.3,9,13.3,18.2C1089.3,101.2,1082.4,109.5,1074,109.5L1074,109.5z
		 M1065.5,69v22c0,14.1,3.2,14.1,8.5,14.1c6.1,0,11.1-6.3,11.1-14.1s-5-14.1-11.1-14.1c-1.2,0-2.2-1-2.2-2.2v-8.6L1065.5,69z
		 M1074,101.7c-0.9,0-1.7,0-2.3-0.1c-0.8-0.1-1.5-0.7-1.8-1.4c-0.4-1.2-0.9-3.8-0.9-9.1c0-5.3,0.5-7.9,0.9-9.1
		c0.3-0.8,0.9-1.3,1.8-1.4c0.6-0.1,1.3-0.1,2.3-0.1c2,0,4,1.2,5.5,3.3c1.3,2,2.1,4.6,2.1,7.3c0,2.7-0.8,5.4-2.1,7.3
		C1078,100.5,1076,101.7,1074,101.7z M1073.7,97.3c0.1,0,0.2,0,0.3,0c1.2,0,3.3-2.4,3.3-6.3s-2.1-6.3-3.3-6.3c-0.1,0-0.2,0-0.3,0
		c-0.2,1.2-0.3,3.1-0.3,6.3C1073.4,94.2,1073.4,96.1,1073.7,97.3z"/>
	<circle class="st1" cx="1063.3" cy="51.7" r="2.9"/>
	<rect x="337.8" y="46.1" transform="matrix(0.5 -0.866 0.866 0.5 137.3519 358.0072)" class="st0" width="81.9" height="28"/>
	<path class="st1" d="M369.3,104.4l-24.3-14c-1-0.6-1.4-1.9-0.8-2.9l41-70.9c0.6-1,1.9-1.4,2.9-0.8l24.3,14c1,0.6,1.4,1.9,0.8,2.9
		l-41,70.9C371.7,104.6,370.3,105,369.3,104.4L369.3,104.4z M349.1,87.7l20.5,11.8l38.8-67.2l-20.5-11.8L349.1,87.7z"/>
	<path class="st1" d="M387.8,37.7l-9.2-5.3c-1-0.6-1.4-1.9-0.8-2.9c0.7-1,1.9-1.4,2.9-0.8L390,34c1,0.6,1.4,1.9,0.8,2.9
		C390.1,38,388.8,38.3,387.8,37.7z"/>
	<path class="st1" d="M382.6,46.7l-9.2-5.3c-1-0.6-1.4-1.9-0.8-2.9c0.7-1,1.9-1.4,2.9-0.8l9.2,5.3c1,0.6,1.4,1.9,0.8,2.9
		C384.9,46.9,383.6,47.3,382.6,46.7z"/>
	<path class="st1" d="M377.4,55.7l-9.2-5.3c-1-0.6-1.4-1.9-0.8-2.9c0.7-1,1.9-1.4,2.9-0.8l9.2,5.3c1,0.6,1.4,1.9,0.8,2.9
		C379.7,56,378.4,56.3,377.4,55.7z"/>
	<path class="st1" d="M372.2,64.7l-9.2-5.3c-1-0.6-1.4-1.9-0.8-2.9c0.7-1,1.9-1.4,2.9-0.8l9.2,5.3c1,0.6,1.4,1.9,0.8,2.9
		C374.5,65,373.2,65.3,372.2,64.7z"/>
	<path class="st1" d="M367,73.7l-9.2-5.3c-1-0.6-1.4-1.9-0.8-2.9c0.7-1,1.9-1.4,2.9-0.8l9.2,5.3c1,0.6,1.4,1.9,0.8,2.9
		C369.3,74,368,74.4,367,73.7z"/>
	<path class="st1" d="M361.8,82.8l-9.2-5.3c-1-0.6-1.4-1.9-0.8-2.9c0.7-1,1.9-1.4,2.9-0.8l9.2,5.3c1,0.6,1.4,1.9,0.8,2.9
		C364.1,83,362.8,83.4,361.8,82.8z"/>
	<ellipse transform="matrix(0.866 -0.5 0.5 0.866 0.7721 84.9523)" class="st0" cx="158.9" cy="41" rx="10" ry="29"/>
	<path class="st1" d="M174.4,68c-2.3,1.3-6.3,1.7-12.8-4c-4.5-3.9-9.2-9.9-13.2-16.8c-3.9-6.9-6.8-13.9-8-19.9
		c-1.7-8.6,0.7-11.8,2.9-13.2s6.3-1.7,12.8,4c4.5,3.9,9.2,9.9,13.2,16.8s6.8,13.9,8,19.9C179,63.3,176.7,66.7,174.4,68z M145.5,17.8
		c-2.4,1.3-2.2,11.8,6.6,27.1c8.8,15.3,17.8,20.6,20.1,19.3c2.4-1.3,2.2-11.8-6.6-27.1S147.8,16.5,145.5,17.8L145.5,17.8z"/>
	<path class="st2" d="M160.2,64.5l6,10.5c-6.3,3.7-7.8,12.9-3.4,20.7s13.3,11.1,19.6,7.5c6.3-3.6,8.2-7,1.1-19.4l-11.7-20.2
		L160.2,64.5L160.2,64.5z M180.2,95.3c-0.3,0.3-0.8,0.6-1.7,1.1c-2.2,1.3-6.5-0.3-8.9-4.6c-2.4-4.3-1.8-8.7,0.5-10.1
		c0.8-0.5,1.4-0.8,1.8-0.9c0.7,0.6,2.3,2.3,4.9,6.8C179.4,92.2,180.1,94.4,180.2,95.3L180.2,95.3z"/>
	<path class="st1" d="M183.6,105c-7.4,4.3-17.5,0.5-22.6-8.2c-4.6-8.1-3.5-17.5,2.4-22.4l-5-8.8c-0.3-0.7-0.4-1.4-0.1-2.1
		c0.3-0.7,1-1.1,1.8-1.2l11.7-1c0.8-0.1,1.7,0.3,2.1,1.1l11.7,20.2c3.8,6.6,5.2,10.9,4.8,14.4C189.7,101,186.7,103.2,183.6,105
		L183.6,105z M163.7,66.3l4.4,7.6c0.6,1,0.3,2.4-0.8,2.9c-5.3,3-6.4,11-2.5,17.7c3.9,6.7,11.3,9.7,16.6,6.7
		c4.5-2.6,7.3-4.2,0.3-16.5l-11-19.1L163.7,66.3L163.7,66.3z M179.6,98.2c-1.8,1-4,0.9-6.4-0.1c-2.2-1-4.1-2.9-5.5-5.3
		c-1.4-2.4-2-5-1.8-7.4c0.3-2.5,1.3-4.5,3.1-5.5c0.8-0.5,1.5-0.8,2-1c0.8-0.3,1.6-0.2,2.3,0.3c1,0.8,2.7,2.8,5.4,7.4
		c2.7,4.6,3.5,7.1,3.7,8.3c0.2,0.8-0.2,1.6-0.8,2.1C181.1,97.4,180.5,97.8,179.6,98.2L179.6,98.2z M180.2,95.3L180.2,95.3
		L180.2,95.3z M171.2,83.6c-1,0.6-1.6,3.7,0.3,7.1s5,4.4,6,3.8c0.1-0.1,0.2-0.1,0.3-0.2c-0.4-1.1-1.3-2.9-2.9-5.6
		c-1.6-2.8-2.8-4.4-3.4-5.3C171.3,83.5,171.2,83.5,171.2,83.6z"/>
	<path class="st2" d="M171.8,63.5l11.7,20.2c7.1,12.4,11,12.4,17.3,8.7s7.8-12.9,3.4-20.7c-4.4-7.8-13.3-11.1-19.6-7.5l-6-10.5
		C178.5,53.8,171.8,63.5,171.8,63.5z M190.3,79.8c-2.6-4.5-3.3-6.8-3.4-7.6c0.3-0.3,0.8-0.6,1.7-1.1c2.2-1.3,6.5,0.3,8.9,4.6
		c2.5,4.3,1.8,8.7-0.5,10.1c-0.8,0.5-1.4,0.8-1.8,0.9C194.5,86.1,192.9,84.4,190.3,79.8L190.3,79.8z"/>
	<path class="st1" d="M202,94.4c-3.2,1.8-6.5,3.3-10.2,1.8c-3.2-1.3-6.2-4.7-10-11.3l-11.7-20.2c-0.4-0.8-0.4-1.6,0.1-2.4l6.7-9.7
		c0.4-0.6,1.1-0.9,1.8-0.9s1.4,0.4,1.8,1.1l5,8.8c7.1-2.6,15.9,1.2,20.6,9.1C211.1,79.5,209.3,90.2,202,94.4z M174.4,63.6l11,19.1
		c7.1,12.2,9.8,10.6,14.4,8c5.3-3,6.4-11,2.5-17.7c-3.9-6.7-11.3-9.7-16.6-6.7c-1,0.6-2.4,0.3-2.9-0.8l-4.4-7.6L174.4,63.6z
		 M198,87.6c-0.8,0.5-1.5,0.8-2,1c-0.8,0.3-1.6,0.2-2.3-0.3c-1-0.8-2.7-2.8-5.4-7.4c-2.7-4.6-3.5-7.1-3.7-8.3
		c-0.2-0.8,0.2-1.6,0.8-2.1c0.5-0.3,1.1-0.8,1.9-1.3c1.8-1,4-0.9,6.4,0.1c2.2,1,4.1,2.9,5.5,5.3c1.4,2.4,2,5,1.8,7.4
		C200.9,84.6,199.8,86.6,198,87.6L198,87.6z M195.7,84c0.1-0.1,0.2-0.1,0.3-0.2c1-0.6,1.6-3.7-0.3-7.1c-1.9-3.4-5-4.4-6-3.8
		c-0.1,0.1-0.2,0.1-0.3,0.2c0.4,1.1,1.3,2.9,2.9,5.6C193.8,81.6,194.9,83.1,195.7,84L195.7,84z"/>
	<circle class="st1" cx="163.9" cy="49.7" r="2.9"/>
	
		<ellipse transform="matrix(0.6428 -0.766 0.766 0.6428 281.2639 674.2756)" class="st0" cx="863.7" cy="35.5" rx="15.9" ry="28.4"/>
	<path class="st1" d="M852,49.4c-6.7-5.6-11.8-10.4-14.4-15.4c-3.2-6.2-2.4-12.3,2.5-18s10.7-7.7,17.3-5.6c5.5,1.7,11,5.8,17.7,11.4
		c6.7,5.6,11.8,10.4,14.4,15.4c3.2,6.2,2.4,12.3-2.5,18c-4.9,5.8-10.7,7.7-17.3,5.6C864.3,59.1,858.7,55,852,49.4L852,49.4z
		 M872.5,25c-6.3-5.3-11.5-9.1-16.2-10.6c-5-1.6-8.9-0.3-12.7,4.3s-4.4,8.6-2,13.3c2.3,4.4,7,8.8,13.3,14.1s11.5,9.1,16.2,10.6
		c5,1.6,8.9,0.3,12.7-4.3s4.4-8.6,2-13.3C883.5,34.7,878.8,30.3,872.5,25z"/>
	<path class="st0" d="M836.4,79.8l-11.8-9.9l26.9-32.1c1.8-2.2,13.7,7.6,11.8,9.9L836.4,79.8L836.4,79.8z"/>
	<path class="st1" d="M835,81.5l-11.8-9.9c-0.9-0.8-1-2.1-0.3-3l26.9-32.1c0.8-0.9,2.4-1.8,5.5-0.3c1.4,0.7,3.2,1.8,4.9,3.3
		c1.7,1.4,3.1,2.9,4,4.2c1.1,1.5,2.2,3.8,0.7,5.5l-26.9,32.1C837.2,82.2,835.9,82.3,835,81.5L835,81.5z M827.6,69.7l8.5,7.1
		l25.1-29.9c-0.4-0.8-1.6-2.3-3.8-4.1c-2.2-1.8-3.9-2.8-4.7-3L827.6,69.7z"/>
	
		<ellipse transform="matrix(0.6428 -0.766 0.766 0.6428 229.0265 660.3016)" class="st2" cx="822.6" cy="84.6" rx="15.9" ry="28.4"/>
	<path class="st1" d="M810.9,98.4c-6.7-5.6-11.8-10.4-14.4-15.4c-3.2-6.2-2.4-12.3,2.5-18c4.9-5.8,10.7-7.7,17.3-5.6
		c5.5,1.7,11,5.8,17.7,11.4c6.7,5.6,11.8,10.4,14.4,15.4c3.2,6.2,2.4,12.3-2.5,18s-10.7,7.7-17.3,5.6
		C823.2,108.1,817.6,104,810.9,98.4z M831.4,74c-6.3-5.3-11.5-9.1-16.2-10.6c-5-1.6-8.9-0.3-12.7,4.3s-4.4,8.6-2,13.3
		c2.3,4.4,7,8.8,13.3,14.1c6.3,5.3,11.5,9.1,16.2,10.6c5,1.6,8.9,0.3,12.7-4.3c3.8-4.5,4.4-8.6,2-13.3
		C842.4,83.7,837.7,79.3,831.4,74z"/>
	
		<ellipse transform="matrix(0.9636 -0.2675 0.2675 0.9636 22.7762 348.9564)" class="st0" cx="1292.1" cy="90.9" rx="28.4" ry="15.9"/>
	<path class="st1" d="M1287.2,73.4c8.5-2.4,15.2-3.8,20.9-3c6.9,0.8,11.4,5,13.4,12.3s0.3,13.2-5.1,17.5c-4.4,3.5-11,5.8-19.5,8.1
		s-15.2,3.8-20.9,3c-6.9-0.8-11.4-5-13.4-12.3s-0.3-13.2,5.1-17.5C1272.3,78,1278.8,75.7,1287.2,73.4z M1295.8,104.1
		c8-2.2,14-4.3,18-7.4c4.1-3.3,5.2-7.2,3.7-12.9c-1.5-5.7-4.6-8.5-9.8-9.1c-5-0.6-11.2,0.8-19.1,2.9c-7.9,2.2-14,4.3-18,7.4
		c-4.1,3.3-5.2,7.2-3.7,12.9c1.5,5.7,4.6,8.5,9.8,9.1C1281.5,107.6,1287.8,106.3,1295.8,104.1z"/>
	<path class="st0" d="M1271,43.2l14.9-4.1l11.2,40.4c0.8,2.8-14,6.9-14.9,4.1C1282.2,83.6,1271,43.2,1271,43.2z"/>
	<path class="st1" d="M1270.5,41.1l14.9-4.1c1.2-0.3,2.4,0.3,2.7,1.5l11.2,40.4c0.3,1.2,0.1,2.9-2.9,4.7c-1.4,0.8-3.4,1.6-5.5,2.2
		s-4.2,0.9-5.8,1c-1.9,0.1-4.3-0.3-4.9-2.5l-11.2-40.4C1268.6,42.7,1269.3,41.5,1270.5,41.1z M1284.3,41.8l-10.7,2.9l10.4,37.6
		c0.8,0.1,2.7,0,5.5-0.8c2.9-0.8,4.4-1.7,5.1-2.2C1294.8,79.4,1284.3,41.8,1284.3,41.8z"/>
	
		<ellipse transform="matrix(0.9636 -0.2675 0.2675 0.9636 38.6335 342.1318)" class="st3" cx="1274.9" cy="29.3" rx="28.4" ry="15.9"/>
	<path class="st1" d="M1270.1,11.8c8.5-2.4,15.2-3.8,20.9-3c6.9,0.8,11.4,5,13.4,12.3s0.3,13.2-5.1,17.5c-4.4,3.5-11,5.8-19.5,8.1
		c-8.5,2.4-15.2,3.8-20.9,3c-6.9-0.8-11.4-5-13.4-12.3c-2-7.3-0.3-13.2,5.1-17.5C1255.2,16.4,1261.7,14.1,1270.1,11.8z M1278.7,42.5
		c8-2.2,14-4.3,18-7.4c4.1-3.3,5.2-7.2,3.7-12.9c-1.5-5.7-4.6-8.5-9.8-9.1c-5-0.6-11.2,0.8-19.1,2.9c-7.9,2.2-14,4.3-18,7.4
		c-4.1,3.3-5.2,7.2-3.7,12.9s4.6,8.5,9.8,9.1C1264.4,46,1270.7,44.7,1278.7,42.5z"/>
	<path class="st0" d="M632.7,67V41.7h-67.2V67c0,13.9,15,25.3,33.7,25.3C617.6,92.2,632.7,80.9,632.7,67z"/>
	<path class="st1" d="M599,94.4c-9.5,0-18.4-2.8-25.1-7.8c-6.9-5.2-10.7-12.2-10.7-19.6V41.7c0-1.2,1-2.2,2.2-2.2h67.2
		c1.2,0,2.2,1,2.2,2.2V67c0,7.5-3.8,14.4-10.7,19.6C617.4,91.6,608.5,94.4,599,94.4L599,94.4z M567.5,43.9V67
		c0,12.7,14.1,23.1,31.5,23.1s31.5-10.3,31.5-23.1V43.9H567.5L567.5,43.9z"/>
	<ellipse class="st0" cx="599" cy="41.7" rx="33.7" ry="25.3"/>
	<path class="st1" d="M599,69.2c-9.5,0-18.4-2.8-25.1-7.8c-6.9-5.2-10.7-12.2-10.7-19.6s3.8-14.4,10.7-19.6c6.7-5,15.6-7.8,25.1-7.8
		c9.5,0,18.4,2.8,25.1,7.8c6.9,5.2,10.7,12.2,10.7,19.6s-3.8,14.4-10.7,19.6C617.4,66.4,608.5,69.2,599,69.2z M599,18.7
		c-17.4,0-31.5,10.3-31.5,23.1s14.1,23.1,31.5,23.1s31.5-10.3,31.5-23.1S616.4,18.7,599,18.7L599,18.7z"/>
	<ellipse class="st2" cx="599" cy="40.7" rx="13.9" ry="6.2"/>
	<path class="st1" d="M599,49.1c-1.3,0-5.5-0.1-9.3-1.3c-5.6-1.8-6.8-4.8-6.8-7.1c0-2.3,1.2-5.4,6.8-7.1c3.8-1.2,8.1-1.3,9.3-1.3
		s5.5,0.1,9.3,1.3c5.6,1.8,6.8,4.8,6.8,7.1c0,2.3-1.2,5.4-6.8,7.1C604.5,49,600.3,49.1,599,49.1z M599,36.7c-5.7,0-11.8,1.5-11.8,4
		c0,2.5,6.1,4,11.8,4s11.8-1.5,11.8-4C610.8,38.2,604.7,36.7,599,36.7z"/>
	<path class="st0" d="M632.7,41.7c0.3,19.8-35.3,34.5-52.8,34.5v27.3c0,0,52.8-3.5,52.8-35.5V41.7L632.7,41.7z"/>
	<path class="st1" d="M579.9,105.7c-0.6,0-1.1-0.2-1.5-0.6c-0.4-0.4-0.7-1-0.7-1.6V76.2c0-1.2,1-2.2,2.2-2.2
		c12.3,0,33.4-7.6,44-18.3c4.4-4.4,6.5-8.9,6.6-13.4v-0.5c0-1.2,0.9-2.2,2.2-2.2l0,0c1.2,0,2.2,0.9,2.2,2.1c0,0.2,0,0.4,0,0.6V68
		c0,7.9-3,14.9-8.9,20.6c-4.6,4.4-11,8.2-18.9,11.2c-13.3,5-26.4,5.9-27,5.9C580,105.7,579.9,105.7,579.9,105.7L579.9,105.7z
		 M582,78.3v22.7c4.3-0.5,14-1.9,23.6-5.5c7.4-2.8,13.2-6.2,17.4-10.2c5-4.9,7.6-10.7,7.6-17.5V54.6c-1,1.4-2.2,2.9-3.5,4.2
		C616,69.9,595.6,77.6,582,78.3L582,78.3z"/>
</g>
</svg>
