<?xml version="1.0" encoding="UTF-8"?><svg id="_レイヤー_2" xmlns="http://www.w3.org/2000/svg" viewBox="0 0 206.23267 357.23403"><g id="_レイヤー_2-2"><path d="m114.59166,186.66005c-17.04786-30.299-27.54311-16.4485-46.09836-58.53427-18.55525-42.08577-29.63804-111.44647,5.59121-126.05642,35.22925-14.60995,66.94718,52.10066,78.16739,75.98062,11.22021,23.87996,1.88328,37.21976,9.71393,54.98073,7.83065,17.76097,17.28468,37.11201,39.03243,71.79513,13.2259,21.09256-1.2818,42.06967-14.02336,47.68732-12.74156,5.61764-32.52061.50321-48.43484-21.99469-12.67154-17.91372-6.90055-13.55942-23.94841-43.85842Z" fill="#03638d"/><path d="m80.49933,184.73403c8,2,16.69946-18.97327,16.69946-18.97327-5.58368-4.41089-11.01343-7.88104-17.1792-16.50519-2.16382,11.93506-5.33972,34.02362.47974,35.47845Z" fill="#dda399"/><path d="m111.90656,198.87881c.04547-.02313,3.86298-1.9715,7.00848-4.3844-1.01855-1.88721-2.15674-3.95941-3.42413-6.22845-1.38361,3.77295-2.62732,7.35773-3.58435,10.61285Z" fill="#dda399"/><path d="m124.52899,133.56698c-7.86096-5.01276-18.83569,13.72357-27.3302,32.19379,0,0-8.69946,20.97327-16.69946,18.97327-5.81946-1.45483-2.64355-23.5434-.47974-35.47845-3.54272-4.95532-7.32764-11.60663-11.52631-21.12982-.26263-.59564-.52319-1.19843-.78271-1.80475-7.97839,5.8349-16.66608,12.05579-18.71124,16.91302-8,19-5.28461,52.73615-13,87C21.90491,292.82675,0,357.23403,0,357.23403h68.99933s8-95,12-108,15-9,27-35c1.87646-4.06561,2.7243-8.06445,2.94128-11.78247,4.97083-20.75836,26.88098-60.4082,13.58838-68.88458Z" fill="#ebb8ac"/></g></svg>