<?xml version="1.0" encoding="UTF-8"?><svg id="_レイヤー_2" xmlns="http://www.w3.org/2000/svg" viewBox="0 0 274.59961 51.13281"><g id="_レイヤー_1-2"><path d="M8.64746,43.54492h22.59277v6.9043H0V.68359h8.64746v42.86133Z" fill="#0159b0" stroke-width="0"/><path d="M46.99707,50.44922h-8.61328V.68359h8.61328v49.76562Z" fill="#0159b0" stroke-width="0"/><path d="M95.77148,43.98926c-1.80029,2.34717-4.29541,4.12451-7.48535,5.33203-3.19043,1.20752-6.81348,1.81152-10.86914,1.81152-4.16992,0-7.86133-.94531-11.07422-2.83691-3.21289-1.89111-5.69092-4.59717-7.43408-8.11768s-2.64893-7.62744-2.71729-12.32178v-3.89648c0-7.51953,1.7998-13.39258,5.40039-17.61963,3.6001-4.22656,8.62451-6.34033,15.07324-6.34033,5.53711,0,9.93457,1.37305,13.19336,4.11865,3.2583,2.74609,5.21777,6.69385,5.87891,11.84326h-8.47656c-.95703-5.99268-4.43213-8.98926-10.4248-8.98926-3.87402,0-6.81885,1.39453-8.83545,4.18311-2.0166,2.78906-3.05908,6.88135-3.12744,12.27637v3.82471c0,5.37256,1.1333,9.54443,3.40088,12.51562,2.26709,2.9707,5.41748,4.45605,9.45068,4.45605,4.42041,0,7.56494-1.00244,9.43359-3.00781v-9.74121h-10.25391v-6.5625h18.86719v19.07227Z" fill="#0159b0" stroke-width="0"/><path d="M144.78516,50.44922h-8.61328v-22.08008h-22.25098v22.08008h-8.64746V.68359h8.64746v20.71289h22.25098V.68359h8.61328v49.76562Z" fill="#0159b0" stroke-width="0"/><path d="M190.96191,7.65625h-15.51758v42.79297h-8.5791V7.65625h-15.38086V.68359h39.47754v6.97266Z" fill="#0159b0" stroke-width="0"/><path d="M226.57715,28.23242h-20.43945v15.3125h23.8916v6.9043h-32.53906V.68359h32.2998v6.97266h-23.65234v13.74023h20.43945v6.83594Z" fill="#0159b0" stroke-width="0"/><path d="M255.35645,31.30859h-9.63867v19.14062h-8.64746V.68359h17.5c5.74219,0,10.17383,1.28857,13.2959,3.86572,3.12158,2.57715,4.68262,6.30615,4.68262,11.18604,0,3.33008-.80322,6.11768-2.40967,8.36377-1.60645,2.24658-3.84521,3.97412-6.71631,5.18262l11.17676,20.72363v.44385h-9.2627l-9.98047-19.14062ZM245.71777,24.33594h8.88672c2.9165,0,5.19531-.73486,6.83594-2.20459s2.46094-3.48047,2.46094-6.03271c0-2.66602-.75781-4.72803-2.27295-6.18652-1.51562-1.45801-3.77686-2.20996-6.78467-2.25586h-9.12598v16.67969Z" fill="#0159b0" stroke-width="0"/></g></svg>