<?xml version="1.0" encoding="UTF-8"?><svg id="_レイヤー_2" xmlns="http://www.w3.org/2000/svg" width="1933.206" height="280" viewBox="0 0 1933.206 280"><defs><style>.cls-1{fill:#fff;}</style></defs><g id="aside_wh"><path class="cls-1" d="m422.754,123.006c-.529.354-.793.838-.793,1.455v55.94l.132,8.596c0,1.941-.661,3.613-1.984,5.025-1.322,1.587-2.998,2.38-5.025,2.38h-1.19c-2.116,0-3.88-.793-5.29-2.38-1.322-1.412-1.984-3.084-1.984-5.025l.264-8.596v-47.212c0-.264-.111-.439-.331-.529-.221-.087-.419-.087-.595,0-13.137,6.967-26.759,12.696-40.864,17.192-.971.354-1.896.529-2.777.529-1.147,0-2.293-.22-3.438-.661-2.116-.881-3.748-2.291-4.893-4.232-.529-.881-.793-1.806-.793-2.777,0-.704.176-1.455.529-2.248.705-1.762,1.984-2.864,3.835-3.306,9.874-2.732,19.528-6.126,28.962-10.183,9.433-4.055,17.676-8.287,24.73-12.696,11.638-7.229,21.689-15.383,30.152-24.466,1.498-1.497,3.306-2.335,5.422-2.513h.529c1.851,0,3.482.619,4.893,1.851,1.674,1.5,2.513,3.351,2.513,5.554,0,2.029-.75,3.748-2.248,5.158-9.435,8.641-19.353,16.356-29.756,23.143Z"/><path class="cls-1" d="m491.549,193.494c-.793.175-1.587.264-2.38.264-1.411,0-2.822-.309-4.232-.926-2.205-.883-3.924-2.335-5.158-4.364l-.661-.793c-.529-.881-.793-1.806-.793-2.777,0-.704.132-1.41.397-2.116.793-1.674,2.071-2.687,3.835-3.042,16.75-3.348,31.959-9.212,45.625-17.589,9.08-5.642,17.368-12.365,24.862-20.168,7.493-7.803,13.621-15.804,18.382-24.003.881-1.497,2.16-2.248,3.835-2.248s2.909.706,3.703,2.116l.661,1.19c1.145,2.029,1.719,4.232,1.719,6.612,0,2.558-.661,4.851-1.984,6.877-5.203,8.025-11.528,15.716-18.977,23.077-7.451,7.364-15.628,13.777-24.532,19.242-14.283,8.818-29.051,15.034-44.303,18.647Zm-6.745-88.209c-1.5-1.145-2.337-2.687-2.513-4.629-.089-.175-.132-.397-.132-.661,0-1.587.573-2.997,1.719-4.232,1.41-1.497,3.174-2.38,5.29-2.645h.926c1.674,0,3.218.487,4.629,1.455,8.375,6.173,16.134,12.476,23.275,18.911,1.587,1.412,2.38,3.219,2.38,5.422,0,2.116-.75,3.925-2.248,5.422-1.411,1.5-3.174,2.248-5.29,2.248h-.132c-2.116,0-3.924-.704-5.422-2.116-7.583-7.051-15.076-13.444-22.482-19.176Z"/><path class="cls-1" d="m605.705,105.682c-.706-1.233-1.058-2.468-1.058-3.703,0-.616.087-1.233.264-1.851.529-1.939,1.674-3.348,3.438-4.232,1.234-.704,2.513-1.058,3.835-1.058.705,0,1.455.132,2.248.397,2.027.529,3.614,1.719,4.761,3.571,4.584,7.231,9.654,15.782,15.208,25.656.616,1.148.926,2.38.926,3.703,0,.706-.089,1.455-.264,2.248-.618,2.029-1.851,3.571-3.703,4.629l-.397.264c-1.147.619-2.337.926-3.571.926-.706,0-1.455-.132-2.248-.397-1.94-.616-3.395-1.851-4.364-3.703-5.025-9.786-10.051-18.602-15.076-26.449Zm34.913,86.886c-1.676.881-3.438,1.322-5.29,1.322-.442,0-.882-.045-1.322-.132-2.38-.264-4.453-1.19-6.216-2.777l-.926-.793c-1.147-.968-1.719-2.158-1.719-3.571,0-.264.044-.529.132-.793.264-1.762,1.19-3.042,2.777-3.835,16.399-8.022,29.756-19.615,40.071-34.781,7.758-11.461,13.268-25.698,16.531-42.716.352-1.674.661-3.526.926-5.554.264-2.116,1.19-3.835,2.777-5.158,1.322-1.058,2.777-1.587,4.364-1.587h1.058l1.587.264c2.027.264,3.614,1.235,4.761,2.909.793,1.235,1.19,2.513,1.19,3.835,0,.619-.045,1.235-.132,1.851-.529,1.941-.971,3.703-1.322,5.29-3.792,18.779-9.963,34.781-18.515,48.006-5.025,7.67-10.91,14.746-17.655,21.226-6.745,6.48-14.437,12.146-23.077,16.994Z"/><path class="cls-1" d="m732.82,147.34h-.264c-2.029,0-3.748-.704-5.158-2.116-1.587-1.497-2.38-3.306-2.38-5.422v-1.058c0-2.026.793-3.79,2.38-5.29,1.41-1.322,3.085-1.984,5.025-1.984h.397c4.319.177,8.419.264,12.299.264h73.529c2.38,0,4.848-.042,7.406-.132h.397c1.939,0,3.614.661,5.025,1.984,1.587,1.412,2.38,3.132,2.38,5.158v1.058c0,2.116-.793,3.925-2.38,5.422-1.411,1.322-3.13,1.984-5.158,1.984h-.264c-2.734-.087-5.158-.132-7.274-.132h-73.662c-3.967,0-8.067.09-12.299.264Z"/><path class="cls-1" d="m872.103,190.584c-1.5,1.587-3.438,2.468-5.819,2.645h-.661c-2.029,0-3.88-.574-5.554-1.719-1.676-1.058-2.513-2.645-2.513-4.761,0-1.762.705-3.261,2.116-4.496,8.022-7.493,13.754-16.838,17.192-28.036,2.645-8.022,3.967-26.008,3.967-53.957v-3.571c0-1.939.616-3.658,1.851-5.158,1.234-1.497,2.864-2.248,4.893-2.248h.132c2.027,0,3.747.751,5.158,2.248,1.322,1.5,1.984,3.219,1.984,5.158v3.438c0,28.126-1.411,47.389-4.232,57.792-3.438,12.431-9.61,23.32-18.515,32.665Zm57.527,1.984c-1.587.881-3.13,1.322-4.629,1.322-1.676,0-3.219-.574-4.629-1.719-2.469-2.026-3.703-4.803-3.703-8.332,0-.352.044-.749.132-1.19.087-.968.132-1.894.132-2.777v-80.142l-.132-3.571c0-1.851.616-3.526,1.851-5.025,1.41-1.497,3.129-2.248,5.158-2.248h.132c2.116,0,3.835.751,5.158,2.248,1.322,1.5,1.984,3.219,1.984,5.158v77.365c0,.177.087.331.264.463.176.132.397.156.661.066,5.29-2.468,10.778-5.906,16.465-10.315,5.687-4.406,10.733-9.345,15.142-14.812,1.145-1.322,2.556-1.984,4.232-1.984,1.763.09,3.129.838,4.1,2.248,1.145,1.587,1.719,3.396,1.719,5.422,0,2.293-.706,4.232-2.116,5.819-5.554,6.348-12.079,12.344-19.573,17.986-7.494,5.644-14.812,10.273-21.953,13.886-.089.087-.221.132-.397.132Z"/><path class="cls-1" d="m1071.225,103.434c1.145-.793,2.38-1.19,3.703-1.19.44,0,.926.09,1.455.264,1.939.354,3.393,1.322,4.364,2.909.616,1.148.926,2.338.926,3.571,0,.619-.089,1.235-.264,1.851-.442,1.941-1.543,3.351-3.306,4.232-1.587.883-3.351,1.809-5.29,2.777-.353.177-2.888,1.455-7.604,3.835-4.717,2.38-8.354,4.232-10.91,5.554-2.558,1.322-5.907,3.153-10.051,5.488-4.145,2.338-7.715,4.475-10.712,6.414-12.873,8.377-19.308,16.973-19.308,25.788,0,5.29,2.513,9.368,7.538,12.233,5.025,2.867,12.475,4.298,22.35,4.298,11.725,0,23.672-1.013,35.839-3.042.44-.087.837-.132,1.19-.132,1.498,0,2.821.487,3.967,1.455,1.498,1.235,2.248,2.777,2.248,4.629,0,2.293-.706,4.277-2.116,5.951-1.411,1.674-3.219,2.645-5.422,2.909-11.021,1.497-22.746,2.248-35.178,2.248-6.701,0-12.696-.529-17.986-1.587-5.29-1.058-9.985-2.687-14.084-4.893-4.1-2.203-7.274-5.2-9.522-8.993-2.248-3.79-3.372-8.287-3.372-13.489,0-6.7,1.895-12.828,5.687-18.382,3.79-5.554,9.212-10.887,16.266-16.002.529-.439.661-.926.397-1.455-4.321-8.109-9.567-19.218-15.737-33.326-.442-.881-.661-1.806-.661-2.777,0-.881.176-1.762.529-2.645.793-1.851,2.116-3.129,3.967-3.835.881-.352,1.719-.529,2.513-.529.969,0,1.939.177,2.909.529,1.763.793,3.042,2.116,3.835,3.967,4.143,10.492,8.948,20.808,14.415,30.946.264.619.705.751,1.322.397,4.496-2.645,10.514-5.993,18.052-10.051,7.538-4.055,11.88-6.39,13.026-7.009,2.203-1.322,3.879-2.291,5.025-2.909Z"/><path class="cls-1" d="m1183.264,89.019c0,.619.352.926,1.058.926h41.129c1.498,0,2.798.529,3.901,1.587,1.102,1.058,1.653,2.359,1.653,3.901s-.551,2.843-1.653,3.901c-1.103,1.058-2.403,1.587-3.901,1.587h-85.035c-.618,0-.926.309-.926.926v30.417c0,28.655-5.467,50.212-16.399,64.669-.971,1.233-2.271,1.851-3.901,1.851s-3.042-.574-4.232-1.719c-1.19-1.148-1.874-2.513-2.05-4.1v-.793c0-1.322.397-2.555,1.19-3.703,6.083-8.374,10.051-18.999,11.902-31.872,0-.175-.066-.331-.198-.463s-.287-.153-.463-.066c-4.585,2.645-8.023,4.674-10.315,6.083-.793.442-1.632.661-2.513.661-.529,0-1.103-.087-1.719-.264-1.5-.529-2.513-1.542-3.042-3.042-.177-.793-.264-1.542-.264-2.248,0-.881.176-1.762.529-2.645.616-1.587,1.719-2.732,3.306-3.438,5.377-2.645,10.403-5.245,15.076-7.803.529-.352.837-.836.926-1.455.087-2.203.132-5.422.132-9.654v-34.516c0-2.116.771-3.944,2.314-5.488,1.542-1.542,3.372-2.314,5.488-2.314h33.855c.705,0,1.058-.307,1.058-.926v-4.629c0-1.851.639-3.415,1.918-4.695,1.278-1.278,2.821-1.918,4.629-1.918s3.35.64,4.629,1.918c1.278,1.28,1.918,2.843,1.918,4.695v4.629Zm-58.189,32.401c.176.706.264,1.367.264,1.984,0,.883-.177,1.719-.529,2.513-.706,1.5-1.808,2.603-3.306,3.306-1.235.706-2.469.751-3.703.132-1.235-.616-2.029-1.587-2.38-2.909-1.5-5.113-3.438-10.315-5.819-15.605-.618-1.322-.706-2.645-.264-3.967.44-1.322,1.322-2.248,2.645-2.777,1.234-.616,2.534-.704,3.901-.264,1.366.442,2.358,1.28,2.976,2.513,2.645,5.38,4.716,10.405,6.216,15.076Zm92.441,12.299c2.116,0,3.945.751,5.488,2.248,1.542,1.5,2.314,3.351,2.314,5.554v49.064c0,2.732-.376,4.803-1.124,6.216-.75,1.41-2.095,2.555-4.034,3.438-2.293.881-6.657,1.365-13.092,1.455-1.411,0-2.69-.442-3.835-1.322-1.147-.883-1.984-2.029-2.513-3.438-.353-1.058-.221-2.05.397-2.976.616-.926,1.498-1.389,2.645-1.389h7.406c.881,0,1.476-.156,1.785-.463.308-.309.463-.86.463-1.653v-9.522c0-.616-.353-.926-1.058-.926h-19.705c-.618,0-.926.309-.926.926v13.754c0,1.587-.574,2.952-1.719,4.1-1.147,1.145-2.513,1.719-4.1,1.719s-2.954-.574-4.1-1.719c-1.147-1.148-1.719-2.513-1.719-4.1v-13.754c0-.616-.353-.926-1.058-.926h-18.515c-.706,0-1.058.309-1.058.926v15.076c0,1.674-.574,3.084-1.719,4.232-1.147,1.145-2.535,1.719-4.166,1.719s-3.021-.574-4.166-1.719c-1.147-1.148-1.719-2.558-1.719-4.232v-54.486c0-2.203.771-4.055,2.314-5.554,1.542-1.497,3.372-2.248,5.488-2.248h25.656c.087,0,.132-.066.132-.198s-.045-.198-.132-.198c-5.996-2.645-11.33-4.761-16.002-6.348-1.058-.352-1.719-1.079-1.984-2.182-.264-1.1,0-2.05.793-2.843,1.674-1.587,3.482-2.38,5.422-2.38.881,0,1.806.132,2.777.397,3.35,1.148,7.714,2.777,13.092,4.893.616.177,1.234.132,1.851-.132,4.408-2.203,8.772-4.803,13.092-7.803.176-.087.242-.198.198-.331-.045-.132-.155-.198-.331-.198h-44.832c-1.235,0-2.271-.439-3.108-1.322-.838-.881-1.256-1.939-1.256-3.174s.418-2.291,1.256-3.174c.837-.881,1.873-1.322,3.108-1.322h57.792c.44-.175.837-.264,1.19-.264,1.058,0,2.027.397,2.909,1.19l1.851,1.587c.969.793,1.432,1.83,1.389,3.108-.045,1.28-.551,2.314-1.521,3.108-6.612,4.761-13.799,9.125-21.556,13.092-.177.09-.264.222-.264.397,0,.177.087.309.264.397,2.821,1.412,4.937,2.47,6.348,3.174.529.354,1.145.529,1.851.529h12.034Zm-37.426,10.315c0-.704-.353-1.058-1.058-1.058h-18.515c-.706,0-1.058.354-1.058,1.058v7.406c0,.619.352.926,1.058.926h18.515c.705,0,1.058-.307,1.058-.926v-7.406Zm-20.631,25.92c0,.619.352.926,1.058.926h18.515c.705,0,1.058-.307,1.058-.926v-7.67c0-.616-.353-.926-1.058-.926h-18.515c-.706,0-1.058.309-1.058.926v7.67Zm52.899-17.589c.705,0,1.058-.307,1.058-.926v-7.406c0-.704-.353-1.058-1.058-1.058h-19.705c-.618,0-.926.354-.926,1.058v7.406c0,.619.308.926.926.926h19.705Zm-20.631,17.589c0,.619.308.926.926.926h19.705c.705,0,1.058-.307,1.058-.926v-7.67c0-.616-.353-.926-1.058-.926h-19.705c-.618,0-.926.309-.926.926v7.67Z"/><path class="cls-1" d="m1365.792,152.233c1.851,1.235,3.129,2.954,3.835,5.158.264.883.397,1.764.397,2.645,0,1.235-.264,2.47-.793,3.703l-.132.264c-.793,1.764-2.116,2.867-3.967,3.306-.529.177-1.014.264-1.455.264-1.322,0-2.558-.439-3.703-1.322-1.94-1.587-3.924-3.084-5.951-4.496-.618-.352-1.014-.22-1.19.397-5.114,14.195-14.415,25.436-27.904,33.723-1.676.968-3.395,1.455-5.158,1.455h-1.058c-2.205-.264-4.188-1.103-5.951-2.513-1.058-.883-1.587-2.029-1.587-3.438v-.661c.176-1.674,1.013-2.909,2.513-3.703,13.754-7.316,23.055-17.941,27.904-31.872.176-.704,0-1.19-.529-1.455-11.373-5.993-22.527-9.654-33.458-10.977-.706-.087-1.19.177-1.455.793-7.319,17.105-12.608,28.036-15.87,32.797-4.761,6.967-10.977,10.448-18.647,10.448-5.467,0-9.963-1.806-13.489-5.422-3.527-3.613-5.29-8.419-5.29-14.415,0-10.051,4.1-18.515,12.299-25.391,8.199-6.877,18.779-10.667,31.739-11.373.705,0,1.19-.307,1.455-.926,6.259-14.105,10.094-22.657,11.505-25.656.176-.175.198-.373.066-.595-.132-.22-.331-.331-.595-.331-8.377.264-16.576.661-24.598,1.19-.971.09-2.161.177-3.571.264-.177.09-.353.132-.529.132-1.676,0-3.13-.571-4.364-1.719-1.5-1.233-2.248-2.864-2.248-4.893,0-1.674.639-3.129,1.918-4.364,1.278-1.233,2.798-1.851,4.563-1.851h3.835c10.667,0,20.453-.397,29.359-1.19.881,0,1.719-.087,2.513-.264.969-.087,1.851-.132,2.645-.132,2.732,0,5.025.706,6.877,2.116,1.058.883,1.653,2.074,1.785,3.571.132,1.5-.243,2.867-1.124,4.1-.177.264-.309.529-.397.793-2.205,3.528-6.833,13.357-13.886,29.491-.264.619-.045.971.661,1.058,10.138,1.5,20.542,4.629,31.21,9.39.616.264.969.09,1.058-.529.352-2.291.573-4.496.661-6.612.176-2.026.264-4.142.264-6.348,0-1.851.661-3.393,1.984-4.629,1.145-1.058,2.468-1.587,3.967-1.587h.661c1.939.177,3.571,1.016,4.893,2.513,1.145,1.322,1.719,2.867,1.719,4.629,0,4.232-.75,10.273-2.248,18.118-.089.619.176,1.103.793,1.455,2.468,1.412,5.158,3.042,8.067,4.893Zm-86.357,15.87c2.468-3.438,6.656-11.68,12.563-24.73.087-.175.066-.352-.066-.529-.132-.175-.331-.264-.595-.264-8.023,1.148-14.371,3.859-19.044,8.133-4.674,4.277-7.009,9.017-7.009,14.217,0,2.293.639,4.166,1.918,5.62,1.278,1.455,2.843,2.182,4.695,2.182,2.732,0,5.245-1.542,7.538-4.629Z"/><path class="cls-1" d="m1462.491,194.552c-.793.175-1.543.264-2.248.264-1.411,0-2.822-.309-4.232-.926-2.029-.971-3.659-2.425-4.893-4.364-.529-.793-.793-1.629-.793-2.513,0-.704.176-1.41.529-2.116.705-1.497,1.939-2.423,3.703-2.777,1.587-.264,3.085-.571,4.496-.926,4.408-.968,8.507-2.489,12.299-4.563,3.79-2.071,7.229-4.65,10.315-7.736,3.085-3.084,5.488-6.832,7.207-11.241,1.719-4.406,2.579-9.257,2.579-14.547,0-9.786-2.756-18.073-8.265-24.862-5.511-6.787-13.159-10.887-22.945-12.299-.618-.087-1.014.177-1.19.793-2.205,14.283-4.806,26.539-7.803,36.765-4.056,13.754-8.839,24.291-14.349,31.607-5.511,7.319-11.617,10.977-18.316,10.977-6.79,0-12.718-3.505-17.787-10.514-5.07-7.009-7.604-15.978-7.604-26.912,0-7.316,1.564-14.37,4.695-21.16,3.129-6.787,7.34-12.717,12.63-17.787,5.29-5.068,11.659-9.101,19.11-12.101,7.449-2.997,15.318-4.496,23.606-4.496,7.846,0,15.097,1.301,21.755,3.901,6.656,2.603,12.21,6.194,16.663,10.778,4.451,4.586,7.935,9.963,10.448,16.134,2.513,6.173,3.769,12.786,3.769,19.837,0,12.96-3.748,23.871-11.241,32.731-7.494,8.861-18.206,14.878-32.136,18.052Zm-43.377-24.598c6.435,0,12.607-9.786,18.515-29.359,3.35-10.49,5.73-21.689,7.141-33.591.087-.175.021-.352-.198-.529-.221-.175-.419-.264-.595-.264-5.643,1.058-10.867,3.042-15.671,5.951-4.806,2.909-8.751,6.306-11.836,10.183-3.087,3.88-5.488,8.001-7.207,12.365-1.719,4.364-2.579,8.62-2.579,12.762,0,7.141,1.278,12.675,3.835,16.597,2.556,3.925,5.422,5.885,8.596,5.885Z"/><path class="cls-1" d="m1552.017,123.8c1.587.883,2.556,2.206,2.909,3.967.087.529.132,1.016.132,1.455,0,1.235-.353,2.425-1.058,3.571-.971,1.412-2.337,2.293-4.1,2.645-.442.09-.882.132-1.322.132-1.235,0-2.425-.397-3.571-1.19-4.496-2.82-9.522-5.422-15.076-7.803-1.322-.616-2.205-1.629-2.645-3.042-.177-.439-.264-.881-.264-1.322,0-.968.308-1.851.926-2.645,1.058-1.497,2.424-2.468,4.1-2.909.705-.264,1.455-.397,2.248-.397.881,0,1.763.177,2.645.529,5.642,2.206,10.667,4.541,15.076,7.009Zm-8.728,70.62c-.882,1.587-2.205,2.513-3.967,2.777-.442.087-.838.132-1.19.132-1.322,0-2.558-.442-3.703-1.322-1.5-1.148-2.38-2.645-2.645-4.496-.089-.439-.132-.881-.132-1.322,0-1.41.397-2.732,1.19-3.967,6.348-9.961,12.475-20.498,18.382-31.607.793-1.41,1.984-2.291,3.571-2.645h.926c1.145,0,2.203.397,3.174,1.19,1.41,1.235,2.292,2.777,2.645,4.629.087.529.132,1.058.132,1.587,0,1.235-.309,2.47-.926,3.703-5.732,11.199-11.55,21.646-17.457,31.343Zm16.266-105.93c1.498.971,2.424,2.338,2.777,4.1v1.19c0,1.322-.397,2.558-1.19,3.703-.971,1.412-2.337,2.248-4.1,2.513h-.926c-1.411,0-2.69-.397-3.835-1.19-4.145-2.909-9.081-5.774-14.812-8.596-1.322-.616-2.161-1.674-2.513-3.174-.177-.439-.264-.836-.264-1.19,0-.968.308-1.894.926-2.777,1.058-1.41,2.424-2.38,4.1-2.909.616-.175,1.278-.264,1.984-.264.969,0,1.939.222,2.909.661,5.554,2.47,10.535,5.115,14.944,7.935Zm55.94,19.308c-.706-.968-1.058-1.984-1.058-3.042,0-.352.044-.704.132-1.058.264-1.497,1.102-2.6,2.513-3.306,1.145-.616,2.292-.926,3.438-.926.529,0,1.058.09,1.587.264,1.851.354,3.35,1.19,4.496,2.513,8.022,9.522,14.767,18.956,20.234,28.301.616,1.058.926,2.116.926,3.174,0,.619-.089,1.235-.264,1.851-.529,1.851-1.632,3.219-3.306,4.1-.971.619-1.984.926-3.042.926-.618,0-1.235-.132-1.851-.397-1.764-.529-3.087-1.587-3.967-3.174-.618-1.322-1.367-2.732-2.248-4.232-.353-.616-.838-.881-1.455-.793-4.232.264-25.391,1.632-63.479,4.1h-.529c-1.587,0-2.998-.529-4.232-1.587-1.411-1.145-2.205-2.6-2.38-4.364v-.793c0-1.41.44-2.645,1.322-3.703,1.145-1.322,2.6-2.026,4.364-2.116,2.027-.087,3.879-.175,5.554-.264.705,0,1.19-.307,1.455-.926,5.642-11.638,10.535-24.201,14.679-37.69.616-2.026,1.806-3.571,3.571-4.629,1.234-.704,2.556-1.058,3.967-1.058.529,0,1.102.09,1.719.264,1.939.442,3.393,1.5,4.364,3.174.44.971.661,1.984.661,3.042,0,.793-.132,1.587-.397,2.38-5.29,13.137-10.315,24.423-15.076,33.855-.089.177-.066.376.066.595.132.222.286.288.463.198,7.229-.264,19.395-.836,36.5-1.719.264,0,.44-.108.529-.331.087-.22.044-.418-.132-.595-3.174-4.406-6.216-8.419-9.125-12.034Zm-37.955,94.292c-1.676,0-3.108-.595-4.298-1.785-1.19-1.19-1.785-2.624-1.785-4.298v-40.997c0-2.116.771-3.944,2.314-5.488,1.542-1.542,3.372-2.314,5.488-2.314h50.651c2.116,0,3.945.772,5.488,2.314,1.542,1.545,2.314,3.372,2.314,5.488v40.335c0,1.762-.618,3.261-1.851,4.496-1.235,1.233-2.734,1.851-4.496,1.851h-1.719c-1.322,0-2.425-.463-3.306-1.389-.882-.926-1.322-2.05-1.322-3.372,0-.354-.221-.529-.661-.529h-40.071c-.442,0-.661.22-.661.661,0,1.41-.485,2.6-1.455,3.571-.971.968-2.161,1.455-3.571,1.455h-1.058Zm47.477-42.187c0-.704-.353-1.058-1.058-1.058h-39.277c-.706,0-1.058.354-1.058,1.058v23.804c0,.706.352,1.058,1.058,1.058h39.277c.705,0,1.058-.352,1.058-1.058v-23.804Z"/><path class="cls-1" d="m1777.128,124.329c.969-.881,2.093-1.41,3.372-1.587,1.278-.175,2.49.132,3.637.926.969.706,1.498,1.677,1.587,2.909.087,1.235-.309,2.248-1.19,3.042-1.94,1.764-4.012,3.438-6.216,5.025-.264.09-.397.264-.397.529s.132.442.397.529c2.821,2.029,5.73,3.748,8.728,5.158,1.234.619,2.005,1.587,2.314,2.909.308,1.322.021,2.513-.86,3.571-1.147,1.322-2.469,2.206-3.967,2.645-.529.177-1.103.264-1.719.264-.882,0-1.808-.22-2.777-.661-1.322-.704-2.601-1.497-3.835-2.38-.177-.087-.353-.087-.529,0-.177.09-.264.264-.264.529v16.002c0,2.206-.75,4.057-2.248,5.554-1.5,1.5-3.351,2.248-5.554,2.248h-16.002c-.618,0-.926.354-.926,1.058v17.986c0,2.82-.376,4.98-1.124,6.48-.75,1.497-2.095,2.645-4.034,3.438-2.822.968-7.186,1.542-13.092,1.719h-.132c-1.5,0-2.866-.487-4.1-1.455-1.322-.971-2.293-2.248-2.909-3.835-.442-1.148-.331-2.227.331-3.24.661-1.016,1.608-1.521,2.843-1.521h3.042c2.292,0,3.879-.045,4.761-.132.881,0,1.498-.132,1.851-.397.352-.264.529-.749.529-1.455v-17.589c0-.704-.353-1.058-1.058-1.058h-15.605c-2.116,0-3.946-.749-5.488-2.248-1.543-1.497-2.314-3.348-2.314-5.554v-15.737c0-.264-.089-.439-.264-.529-.177-.087-.353-.087-.529,0-.793.529-1.543,1.016-2.248,1.455-1.411.793-2.822,1.19-4.232,1.19-.618,0-1.235-.087-1.851-.264-2.029-.439-3.924-1.497-5.687-3.174-.442-.352-.882-.749-1.322-1.19-.177-.087-.353-.087-.529,0-.177.09-.264.222-.264.397-1.322,21.953-6.393,39.103-15.208,51.444-.971,1.233-2.248,1.894-3.835,1.984h-.132c-1.587,0-2.954-.574-4.1-1.719-1.235-1.148-1.94-2.558-2.116-4.232v-.661c0-1.41.397-2.687,1.19-3.835,5.995-8.464,9.83-19.35,11.505-32.665,0-.175-.066-.331-.198-.463s-.287-.108-.463.066c-3.438,2.116-6.525,3.967-9.257,5.554-.793.442-1.632.661-2.513.661-.529,0-1.103-.087-1.719-.264-1.5-.616-2.469-1.629-2.909-3.042-.264-.704-.397-1.455-.397-2.248s.176-1.629.529-2.513c.616-1.497,1.719-2.645,3.306-3.438,2.116-1.058,6.788-3.438,14.018-7.141.529-.352.837-.836.926-1.455v-44.699c0-2.203.771-4.055,2.314-5.554,1.542-1.497,3.372-2.248,5.488-2.248h34.384c.705,0,1.058-.352,1.058-1.058v-3.967c0-1.851.639-3.415,1.918-4.695,1.278-1.278,2.821-1.918,4.629-1.918s3.35.64,4.629,1.918c1.278,1.28,1.918,2.843,1.918,4.695v3.967c0,.706.352,1.058,1.058,1.058h42.187c1.498,0,2.777.529,3.835,1.587s1.587,2.338,1.587,3.835-.529,2.777-1.587,3.835c-1.058,1.058-2.337,1.587-3.835,1.587h-86.754c-.706,0-1.058.309-1.058.926v31.607c0,2.206-.045,5.599-.132,10.183,0,.264.087.442.264.529.176.09.352.09.529,0,4.584-2.116,8.948-4.761,13.092-7.935.529-.439.529-.881,0-1.322-1.411-1.322-3.087-2.732-5.025-4.232-.882-.616-1.345-1.497-1.389-2.645-.045-1.145.331-2.071,1.124-2.777,1.058-.793,2.226-1.233,3.505-1.322,1.278-.087,2.447.264,3.505,1.058,1.763,1.235,3.526,2.558,5.29,3.967.529.442,1.013.442,1.455,0,2.292-2.291,4.276-4.629,5.951-7.009.176-.087.198-.241.066-.463-.132-.22-.287-.331-.463-.331h-17.457c-1.322,0-2.469-.463-3.438-1.389-.971-.926-1.455-2.071-1.455-3.438s.484-2.513,1.455-3.438c.969-.926,2.116-1.389,3.438-1.389h23.408c.705,0,1.19-.307,1.455-.926.616-1.322,1.19-2.687,1.719-4.1.616-1.587,1.674-2.82,3.174-3.703,1.145-.793,2.38-1.19,3.703-1.19h.926c1.498.264,2.645,1.016,3.438,2.248.529.793.793,1.587.793,2.38,0,.619-.132,1.19-.397,1.719-.353.883-.706,1.764-1.058,2.645-.089.177-.066.376.066.595.132.222.286.331.463.331h39.013c1.322,0,2.468.463,3.438,1.389.969.926,1.455,2.074,1.455,3.438s-.485,2.513-1.455,3.438c-.971.926-2.116,1.389-3.438,1.389h-21.292c-.177,0-.309.111-.397.331-.089.222-.045.376.132.463,2.292,3.087,4.672,5.732,7.141,7.935.44.442.926.442,1.455,0,1.939-1.674,3.747-3.306,5.422-4.893Zm-93.234-2.38c.176.529.264,1.058.264,1.587,0,.971-.264,1.941-.793,2.909-.706,1.412-1.808,2.47-3.306,3.174-1.235.529-2.469.463-3.703-.198-1.235-.661-1.984-1.653-2.248-2.976-1.235-5.464-2.954-11.019-5.158-16.663-.442-1.322-.397-2.621.132-3.901.529-1.278,1.41-2.182,2.645-2.711,1.234-.529,2.513-.529,3.835,0,1.322.529,2.248,1.412,2.777,2.645,2.38,5.644,4.232,11.021,5.554,16.134Zm28.169,56.734c1.145-1.322,2.513-2.291,4.1-2.909.969-.352,1.939-.529,2.909-.529.705,0,1.41.09,2.116.264,1.41.354,2.38,1.214,2.909,2.579.529,1.367.352,2.669-.529,3.901-3.616,5.115-8.067,9.919-13.357,14.415-1.235.968-2.601,1.455-4.1,1.455h-.397c-1.676-.09-3.219-.706-4.629-1.851-1.058-.883-1.587-2.029-1.587-3.438s.529-2.513,1.587-3.306c4.319-3.261,7.978-6.787,10.977-10.58Zm51.444-29.491c.616,0,.926-.352.926-1.058v-4.893c0-.704-.309-1.058-.926-1.058h-37.426c-.706,0-1.058.354-1.058,1.058v4.893c0,.706.352,1.058,1.058,1.058h37.426Zm0,14.415c.616,0,.926-.307.926-.926v-5.158c0-.616-.309-.926-.926-.926h-37.426c-.706,0-1.058.309-1.058.926v5.158c0,.619.352.926,1.058.926h37.426Zm-12.167-42.187c-.353-.616-.882-.926-1.587-.926h-9.257c-.618,0-1.103.309-1.455.926-2.734,4.409-5.819,8.464-9.257,12.167-.089.177-.111.354-.066.529.044.177.198.264.463.264h29.756c.176,0,.308-.087.397-.264.087-.175.087-.352,0-.529-3.703-4.142-6.701-8.199-8.993-12.167Zm12.034,61.23c-.971-.881-1.367-1.96-1.19-3.24.176-1.278.837-2.224,1.984-2.843,1.145-.616,2.335-.926,3.571-.926.352,0,.705.045,1.058.132,1.587.177,2.997.793,4.232,1.851,5.025,4.674,9.169,8.861,12.431,12.563.969,1.233,1.3,2.579.992,4.034-.309,1.455-1.169,2.534-2.579,3.24-.971.529-1.94.793-2.909.793-.529,0-1.058-.09-1.587-.264-1.587-.354-2.909-1.19-3.967-2.513-3.351-4.142-7.362-8.419-12.034-12.828Z"/><path class="cls-1" d="m1844.732,83.464c.352-.087.661-.132.926-.132.793,0,1.542.177,2.248.529l2.645,1.587c1.145.706,1.984,1.698,2.513,2.976.529,1.28.573,2.579.132,3.901-4.496,13.402-8.156,23.585-10.977,30.549-.264.619-.177,1.19.264,1.719,7.053,8.464,10.58,17.589,10.58,27.375,0,8.199-1.851,13.579-5.554,16.134-2.116,1.412-4.585,2.293-7.406,2.645-.882.177-1.94.264-3.174.264h-.264c-1.411,0-2.69-.529-3.835-1.587-1.235-1.058-2.072-2.423-2.513-4.1-.264-1.233-.045-2.38.661-3.438.705-1.058,1.674-1.587,2.909-1.587.44,0,.881-.042,1.322-.132,1.587,0,2.953-.397,4.1-1.19,1.674-1.145,2.513-3.967,2.513-8.464,0-6.612-2.072-13.003-6.216-19.176-1.94-2.997-2.909-5.993-2.909-8.993,0-1.497.22-2.997.661-4.496,2.027-5.993,4.232-13.357,6.612-22.085.087-.264.066-.484-.066-.661-.132-.175-.331-.264-.595-.264h-12.563c-.618,0-.926.309-.926.926v100.772c0,1.497-.551,2.798-1.653,3.901-1.103,1.1-2.403,1.653-3.901,1.653s-2.8-.553-3.901-1.653c-1.103-1.103-1.653-2.404-1.653-3.901v-105.269c0-2.203.771-4.055,2.314-5.554,1.542-1.497,3.372-2.248,5.488-2.248h22.217Zm67.71,105.798h7.274c1.058,0,1.785-.661,2.182-1.984.397-1.322.682-4.142.86-8.464.087-1.233.682-2.158,1.785-2.777,1.102-.616,2.269-.704,3.505-.264,1.587.706,2.864,1.764,3.835,3.174.881,1.235,1.322,2.513,1.322,3.835,0,.264-.045.529-.132.793-.618,6.438-1.83,10.865-3.637,13.291-1.808,2.423-4.607,3.637-8.398,3.637h-10.58c-5.025,0-8.398-1.082-10.117-3.24-1.719-2.161-2.579-6.149-2.579-11.968v-32.004c0-.704-.353-1.058-1.058-1.058h-10.977c-.706,0-1.058.354-1.058,1.058-.529,5.996-1.279,11.175-2.248,15.539-.971,4.364-2.447,8.575-4.43,12.63-1.984,4.057-4.651,7.583-8.001,10.58-3.351,2.997-7.538,5.597-12.563,7.803-.793.352-1.587.529-2.38.529s-1.587-.132-2.38-.397c-1.5-.619-2.734-1.677-3.703-3.174-.618-.793-.926-1.677-.926-2.645,0-.354.044-.706.132-1.058.352-1.412,1.145-2.38,2.38-2.909,7.846-3.348,13.312-7.89,16.399-13.621,3.085-5.729,4.98-13.489,5.687-23.275,0-.704-.309-1.058-.926-1.058h-9.786c-1.587,0-2.954-.55-4.1-1.653-1.147-1.1-1.719-2.447-1.719-4.034s.573-2.952,1.719-4.1c1.145-1.145,2.513-1.719,4.1-1.719h64.008c1.587,0,2.953.574,4.1,1.719,1.145,1.148,1.719,2.513,1.719,4.1s-.574,2.933-1.719,4.034c-1.147,1.103-2.513,1.653-4.1,1.653h-15.341c-.618,0-.926.354-.926,1.058v31.872c0,1.764.153,2.888.463,3.372.308.487,1.079.727,2.314.727Zm-57.792-88.473c0-2.203.771-4.055,2.314-5.554,1.542-1.497,3.372-2.248,5.488-2.248h22.35c.705,0,1.058-.352,1.058-1.058v-7.67c0-1.674.595-3.108,1.785-4.298,1.19-1.19,2.622-1.785,4.298-1.785s3.108.595,4.298,1.785c1.19,1.19,1.785,2.624,1.785,4.298v7.67c0,.706.308,1.058.926,1.058h24.995c2.116,0,3.945.751,5.488,2.248,1.542,1.5,2.314,3.351,2.314,5.554v9.654c0,2.116-.772,3.946-2.314,5.488-1.543,1.545-3.372,2.314-5.488,2.314h-1.984c-.618,0-.926.354-.926,1.058v.793c0,2.116-.772,3.946-2.314,5.488-1.543,1.545-3.372,2.314-5.488,2.314h-40.468c-2.205,0-4.056-.77-5.554-2.314-1.5-1.542-2.248-3.372-2.248-5.488v-.793c0-.704-.353-1.058-1.058-1.058h-1.455c-2.116,0-3.946-.77-5.488-2.314-1.543-1.542-2.314-3.372-2.314-5.488v-9.654Zm64.404,16.134c.705,0,1.058-.352,1.058-1.058v-11.109c0-.704-.353-1.058-1.058-1.058h-52.105c-.706,0-1.058.354-1.058,1.058v11.109c0,.706.352,1.058,1.058,1.058h52.105Z"/><path class="cls-1" d="m185.468,39.099c1.905,1.446,4.069,2.187,6.342,2.187.616,0,1.239-.054,1.867-.163,7.63-1.328,11.93-8.452,10.955-18.149-.606-6.026-3.139-11.054-6.951-13.794-2.404-1.728-5.15-2.359-7.733-1.769-5.998,1.365-12.002,6.845-10.868,18.131.612,6.082,2.88,10.896,6.387,13.557Zm5.249-28.318c.385-.087.774-.131,1.166-.131,1.264,0,2.551.452,3.781,1.337,2.963,2.13,5.03,6.367,5.529,11.333.792,7.873-2.316,13.39-8.108,14.398-1.978.343-3.891-.131-5.527-1.372-2.734-2.074-4.522-6.034-5.037-11.149-1.144-11.385,5.983-13.912,8.196-14.415Z"/><path class="cls-1" d="m154.55,44.351c.329.032.658.047.989.047,3.816,0,7.743-2.058,10.675-5.642,4.225-5.165,5.504-12.348,3.421-19.215-4.294-14.162-11.273-20.684-20.765-19.377-9.806,1.349-16.42,12.356-14.744,24.536,1.499,10.9,9.516,18.613,20.423,19.651Zm-5.208-40.763c.609-.084,1.205-.125,1.787-.125,6.737,0,11.72,5.612,15.198,17.081,1.747,5.762.705,11.752-2.789,16.023-2.456,3.001-5.691,4.622-8.661,4.343-7.363-.7-15.781-5.45-17.326-16.681-1.416-10.291,3.874-19.551,11.791-20.641Z"/><path class="cls-1" d="m268.861,91.71c-28.37-33.539-86.537-49.918-109.252-37.667-14.37,7.752-23.706,17.672-27.789,29.505-4.183-1.945-8.736-3.217-13.566-3.787-30.525-3.599-69.337,24.744-83.064,60.657-5.968,15.615-6.725,31.644-2.187,46.354,5.239,16.983,17.256,32.176,35.718,45.156,1.964,1.381,3.899,2.728,5.811,4.048.291.201.634.306.982.306.123,0,.246-.013.368-.039.468-.102.872-.393,1.117-.805,8.411-14.122,19.618-27.128,25.893-32.196.559-.451.78-1.201.556-1.884s-.847-1.155-1.565-1.188c-.886-.04-1.827-.166-2.797-.375-4.455-.959-12.542-4.532-16.647-17.687-3.098-9.929-2.261-21.183,1.906-25.622,1.45-1.544,3.153-2.051,5.208-1.551,5.288,1.291,11.8,8.918,16.204,18.981,4.178,9.545,5.278,18.597,2.802,23.061-.373.673-.257,1.511.286,2.057.542.545,1.38.667,2.055.298,5.155-2.819,21.237-.767,36.073,6.687,7.537,3.786,9.549,6.658,9.55,7.759.003,2.564-4.36,5.373-10.611,6.83-11.005,2.563-29.688,1.116-36.041-13.381h0c-.325-.742-.583-1.458-.767-2.128-.142-.519-.518-.942-1.016-1.144-.498-.203-1.062-.161-1.526.111-5.123,3.01-9.731,8.261-13.697,15.607-3.307,6.125-6.12,13.682-8.135,21.855-.174.708.114,1.449.721,1.853,18.653,12.409,35.834,22.549,51.066,30.14.001,0,.003,0,.004.002,4.663,2.325,9.243,4.457,13.613,6.337.216.093.449.141.683.141.071,0,.143-.005.215-.014,13.062-1.637,29.046-10.271,47.509-25.661,20.115-16.768,42.908-41.453,67.744-73.368,12.944-16.633,19.298-33.238,18.881-49.35-.365-14.115-5.851-27.539-16.305-39.898Zm-155.966,103.322c1.4-6.571-.926-15.541-3.972-22.5-3.713-8.484-10.8-19.062-18.552-20.953-3.279-.802-6.235.079-8.547,2.542-5.023,5.351-6.178,17.826-2.685,29.017,3.318,10.633,10.129,17.865,18.734,19.926-6.404,6.059-15.562,17.081-22.887,29.022-1.412-.979-2.837-1.973-4.277-2.986-45.067-31.684-39.575-68.389-32.29-87.448,6.319-16.531,18.775-32.432,34.175-43.623,13.422-9.755,27.875-15.111,40.434-15.111,1.641,0,3.251.092,4.821.277,4.639.547,8.993,1.791,12.965,3.7-.026.102-.046.205-.071.306-.069.28-.131.563-.195.844-.081.361-.162.722-.233,1.085-.057.29-.109.582-.16.873-.063.358-.125.716-.179,1.077-.045.297-.084.596-.122.895-.046.358-.089.716-.126,1.075-.031.304-.058.608-.083.913-.029.357-.055.716-.076,1.075-.018.31-.032.62-.043.931-.013.358-.021.717-.026,1.077-.004.314-.005.629-.003.944.003.361.012.722.023,1.085.01.317.022.634.039.953.019.363.045.728.072,1.093.024.32.049.641.08.962.035.367.078.735.121,1.104.038.322.076.643.12.966.051.372.111.745.171,1.119.052.322.102.644.16.967.068.379.146.759.223,1.14.065.32.127.64.198.962.086.389.183.779.278,1.17.077.315.15.63.233.946.106.404.224.811.339,1.217.087.305.169.609.261.915.129.427.271.856.411,1.285.094.288.181.574.279.862.163.478.341.958.517,1.438.089.241.17.481.262.723.275.723.564,1.448.869,2.176.574,1.369,1.126,2.76,1.66,4.17.018.046.036.092.053.138.518,1.373,1.015,2.767,1.496,4.177.029.086.06.171.089.258.468,1.382.915,2.784,1.346,4.202.036.119.074.237.11.357.42,1.394.821,2.807,1.206,4.235.041.15.082.299.123.45.375,1.409.732,2.837,1.073,4.278.042.176.085.35.126.526.333,1.428.648,2.874.948,4.334.04.197.082.393.122.591.293,1.451.568,2.918.828,4.4.038.214.076.428.113.643.254,1.475.49,2.967.711,4.472.034.229.068.459.101.689.215,1.503.414,3.022.598,4.554.029.24.057.479.085.719.178,1.534.34,3.083.486,4.646.023.246.046.493.068.74.141,1.568.267,3.151.376,4.748.017.249.033.498.049.748.105,1.607.194,3.228.266,4.864.011.245.02.491.031.736.068,1.651.121,3.316.156,4.996.005.234.008.47.013.705.031,1.7.047,3.412.045,5.141,0,.221-.002.443-.003.665-.007,1.753-.028,3.519-.069,5.302-.005.197-.011.396-.016.593-.045,1.814-.106,3.642-.187,5.487-.002.054-.005.11-.008.164-9.662-4.385-24.351-8.554-33.251-6.765Zm-6.36,13.183c.055.133.111.266.17.399,6.749,15.399,25.326,17.909,37.618,15.835-.075.648-.151,1.292-.229,1.932-.031.259-.064.513-.096.771-.051.416-.103.832-.155,1.244-.038.298-.077.592-.115.888-.048.372-.096.743-.146,1.112-.039.296-.079.589-.119.883-.05.365-.099.729-.149,1.09-.04.291-.081.581-.122.87-.051.362-.103.723-.155,1.082-.041.281-.081.562-.122.841-.054.365-.108.726-.162,1.087-.04.268-.08.537-.121.803-.059.388-.119.771-.178,1.155-.036.231-.072.464-.108.693-.089.566-.179,1.127-.269,1.683-.02.124-.04.247-.061.37-.083.51-.167,1.017-.251,1.518-.038.226-.076.449-.114.674-.061.361-.123.721-.184,1.077-.042.243-.084.483-.126.724-.058.334-.117.667-.176.997-.043.243-.086.484-.13.724-.058.32-.115.639-.173.955-.044.241-.088.48-.132.718-.058.316-.117.628-.175.939-.042.227-.085.454-.128.679-.06.319-.121.633-.181.947-.041.212-.081.425-.122.635-.072.372-.144.737-.216,1.101-.028.14-.055.283-.083.423-.099.497-.197.987-.295,1.47-.034.168-.068.331-.102.497-.064.315-.128.629-.192.937-.043.207-.085.409-.128.613-.055.265-.111.529-.166.789-.044.21-.088.416-.132.623-.052.242-.103.483-.154.721-.045.21-.09.419-.135.626-.051.233-.101.463-.151.692-.043.196-.086.392-.129.585-.051.231-.102.458-.152.684-.042.186-.083.373-.124.556-.052.229-.102.452-.153.675-.039.169-.078.342-.116.508-.063.276-.125.543-.187.81-.061.262-.121.519-.18.773-.045.193-.091.387-.135.575-.041.173-.081.34-.121.509-.042.174-.083.35-.124.519-.04.165-.079.326-.118.486-.04.163-.079.325-.117.483-.039.159-.077.316-.115.47-.037.151-.074.301-.11.448-.036.147-.073.293-.108.435-.037.148-.073.292-.109.435-.034.133-.067.268-.1.397-.008.03-.015.058-.022.088-14.347-7.273-30.4-16.78-47.766-28.288,4.02-15.608,10.542-27.418,18.152-32.963Zm44.529,68.28c-3.787-1.639-7.732-3.468-11.751-5.447.002-.008.004-.017.006-.025.037-.145.076-.299.115-.452.03-.117.059-.23.089-.351.036-.144.074-.295.112-.445.035-.14.07-.279.106-.424.036-.144.073-.293.11-.441.04-.16.079-.321.12-.487.038-.153.076-.31.115-.469.041-.167.082-.335.123-.507.04-.165.08-.333.121-.503.043-.178.086-.359.13-.542.041-.17.081-.342.122-.516.046-.194.092-.392.139-.592.041-.177.083-.354.125-.536.046-.199.093-.402.14-.605.044-.192.088-.382.133-.578.048-.212.097-.429.146-.645.044-.193.087-.384.131-.581.052-.232.105-.469.157-.706.043-.193.085-.383.129-.58.058-.265.118-.537.177-.808.038-.176.076-.348.115-.527.096-.445.193-.899.291-1.36.035-.166.071-.339.106-.507.065-.307.129-.613.194-.927.044-.21.088-.426.132-.64.057-.278.114-.554.172-.836.049-.239.098-.483.146-.726.053-.265.106-.529.16-.797.05-.252.1-.508.151-.764.053-.269.106-.538.159-.81.05-.259.101-.521.151-.784.054-.279.107-.559.161-.842.05-.266.101-.533.151-.802.053-.283.106-.568.159-.855.051-.276.102-.553.153-.832.053-.289.105-.579.158-.872.051-.284.102-.569.153-.856.052-.295.105-.594.157-.892.051-.289.101-.578.152-.871.053-.306.105-.616.158-.925.05-.292.099-.583.149-.878.053-.316.106-.637.158-.957.049-.296.098-.589.146-.888.053-.326.105-.658.158-.988.047-.297.095-.592.142-.892.072-.458.143-.921.214-1.385.059-.387.118-.777.177-1.168.062-.417.125-.832.187-1.254.042-.287.083-.579.125-.869.053-.369.106-.738.159-1.111.043-.306.085-.615.128-.923.05-.363.1-.726.15-1.093.043-.316.084-.635.126-.953.048-.361.096-.723.142-1.087.042-.328.084-.658.125-.988.046-.362.091-.724.136-1.089.041-.33.081-.662.12-.995.045-.372.089-.746.133-1.121.038-.327.076-.656.113-.985.02-.178.041-.354.061-.533,7.496-2,12.095-5.738,12.09-9.902-.004-3.94-5.465-7.708-10.448-10.326.017-.338.029-.672.044-1.009.024-.534.049-1.068.07-1.6.021-.523.04-1.043.058-1.563.018-.522.037-1.044.052-1.563.016-.525.029-1.048.041-1.572.013-.508.025-1.016.035-1.522.01-.53.017-1.058.025-1.586.007-.494.014-.988.018-1.48.005-.536.006-1.07.007-1.603.001-.479.003-.959.002-1.436-.001-.537-.006-1.072-.011-1.606-.004-.47-.008-.94-.014-1.407-.008-.539-.019-1.075-.029-1.611-.009-.458-.018-.916-.029-1.371-.014-.542-.031-1.081-.049-1.619-.014-.445-.028-.892-.044-1.335-.02-.543-.044-1.082-.068-1.621-.019-.436-.037-.872-.059-1.306-.027-.542-.057-1.08-.087-1.619-.024-.427-.047-.855-.073-1.279-.033-.542-.071-1.08-.108-1.618-.029-.417-.056-.834-.087-1.249-.04-.542-.084-1.08-.128-1.618-.033-.407-.065-.815-.1-1.22-.047-.541-.098-1.078-.149-1.615-.038-.398-.074-.798-.113-1.194-.054-.538-.112-1.072-.169-1.607-.042-.391-.083-.784-.127-1.173-.06-.534-.125-1.064-.19-1.594-.047-.386-.092-.772-.141-1.156-.067-.531-.139-1.058-.21-1.586-.051-.377-.1-.756-.153-1.132-.074-.527-.153-1.051-.231-1.575-.055-.372-.109-.745-.166-1.115-.081-.525-.168-1.046-.253-1.568-.059-.362-.117-.727-.178-1.087-.088-.521-.182-1.038-.274-1.556-.064-.358-.126-.717-.191-1.073-.095-.515-.195-1.025-.294-1.536-.068-.353-.135-.709-.205-1.061-.102-.51-.209-1.015-.315-1.52-.073-.348-.144-.698-.218-1.045-.109-.504-.223-1.004-.335-1.504-.077-.343-.152-.688-.231-1.03-.116-.5-.237-.996-.357-1.492-.081-.336-.16-.674-.243-1.009-.124-.498-.252-.99-.38-1.484-.085-.329-.167-.66-.254-.986-.132-.496-.268-.987-.404-1.479-.088-.319-.173-.641-.263-.958-.139-.492-.284-.979-.427-1.468-.092-.313-.181-.629-.275-.94-.148-.493-.302-.981-.455-1.471-.094-.3-.184-.603-.28-.901-.159-.497-.323-.989-.486-1.482-.095-.286-.186-.575-.283-.86-.168-.498-.342-.99-.515-1.484-.096-.275-.19-.553-.287-.826-.175-.489-.356-.973-.535-1.458-.101-.273-.199-.549-.301-.821-.199-.528-.404-1.05-.609-1.573-.087-.222-.171-.448-.259-.669-.295-.742-.596-1.479-.902-2.21-.281-.672-.548-1.341-.802-2.008-.087-.228-.165-.455-.249-.683-.161-.438-.323-.876-.473-1.312-.093-.27-.177-.538-.265-.808-.128-.391-.257-.783-.376-1.173-.087-.286-.166-.57-.248-.854-.107-.372-.214-.743-.312-1.113-.077-.292-.149-.582-.221-.872-.089-.361-.177-.721-.258-1.08-.066-.294-.128-.588-.189-.881-.073-.354-.144-.707-.209-1.058-.054-.293-.105-.586-.154-.878-.058-.35-.113-.699-.163-1.048-.042-.29-.082-.58-.118-.87-.044-.349-.082-.696-.117-1.043-.029-.286-.058-.572-.082-.856-.029-.35-.051-.698-.072-1.046-.017-.278-.035-.557-.046-.834-.014-.356-.02-.709-.025-1.063-.004-.266-.012-.533-.011-.798.001-.373.013-.744.024-1.115.007-.242.01-.486.021-.728.02-.429.054-.854.087-1.28.014-.181.023-.364.039-.544.056-.604.126-1.205.209-1.802.018-.132.044-.261.063-.393.07-.467.143-.933.23-1.396.04-.214.089-.427.133-.641.065-.32.132-.64.205-.959.022.013.045.026.067.039.183.111.363.225.543.339.148.094.298.186.444.281.177.115.351.233.525.35.146.098.293.196.437.295.17.118.338.239.506.359.144.103.289.206.431.311.164.121.326.245.488.369.141.107.282.214.421.323.16.125.317.252.474.379.137.111.275.222.41.334.155.129.308.26.461.39.133.114.267.228.399.344.15.132.299.266.447.4.13.118.26.235.388.354.146.135.29.272.433.409.126.121.252.241.376.363.141.139.281.278.421.418.123.124.246.248.367.373.136.141.271.282.406.424.119.126.238.253.356.381.133.144.265.289.396.435.115.128.229.256.343.385.129.147.256.294.383.442.112.131.224.263.334.395.124.148.248.297.37.447.109.133.216.267.323.401.121.151.241.303.36.455.104.134.207.268.31.403.118.154.235.309.35.464.101.135.2.271.299.407.114.156.227.312.339.469.097.136.192.273.288.41.111.159.221.317.33.477.093.137.185.274.276.411.107.16.214.32.318.481.091.139.18.278.269.418.103.161.206.322.307.483.087.138.171.277.256.416.1.164.201.327.299.492.082.137.162.274.243.411.098.167.196.333.292.5.078.137.155.274.232.41.095.168.19.336.283.504.074.134.146.269.219.404.093.172.187.343.278.515.07.132.137.263.206.395.091.174.182.348.27.523.066.13.13.259.195.389.088.177.178.354.264.531.06.123.119.247.178.37.088.183.177.366.263.549.052.112.103.223.154.334.09.195.181.389.269.584.037.081.072.163.108.244.472,1.055.909,2.104,1.313,3.139.028.072.057.144.085.215.078.201.153.401.228.601.037.097.074.194.11.291.069.186.136.37.203.555.04.11.081.221.12.33.062.173.122.345.182.518.042.12.085.24.126.359.059.17.115.339.172.507.04.118.08.237.119.354.056.168.11.334.164.501.038.117.077.235.114.352.052.164.103.326.154.488.037.117.074.235.11.352.049.16.097.318.145.477.035.116.071.233.105.349.046.155.09.308.134.461.034.118.069.237.102.354.043.151.085.3.126.45.032.114.064.228.095.341.041.149.081.296.12.443.03.113.061.226.09.338.038.145.075.288.112.431.028.109.056.218.084.326.036.143.072.284.107.425.026.105.052.211.078.315.034.138.067.275.099.411.025.105.05.209.074.312.032.134.062.266.093.398.023.101.046.201.068.3.029.129.058.257.086.384.022.1.044.199.065.297.027.122.053.243.078.363.021.098.041.195.061.292.024.116.048.232.072.346.02.097.039.194.059.289.022.109.043.217.064.324.018.093.036.185.054.276.021.108.041.215.061.32.016.086.032.171.048.255.019.102.037.203.055.302.016.087.031.172.046.257.016.091.032.182.048.271.015.085.029.168.043.251.015.086.029.171.043.254.013.079.026.156.038.232.013.082.027.165.04.245.012.073.022.143.033.213.012.075.024.151.035.223.011.074.022.144.032.215.01.064.019.13.029.192.01.07.02.137.029.204.008.058.017.118.025.173.009.063.017.121.025.18.007.054.015.11.022.162.008.059.015.113.022.167.006.044.012.091.017.132.008.06.014.116.021.171.004.032.008.067.012.097.007.061.014.116.02.17.002.018.005.039.007.056.024.212.04.364.049.451h0c-.021.986-.024,2.018-.009,3.095.002.146.005.292.007.439.016.834.043,1.695.083,2.585.021.474.048.952.075,1.43.025.425.053.855.083,1.293.839,12.187,3.748,25.702,7.881,39.541.279.938.566,1.886.862,2.849.042.135.084.269.126.404,5.341,17.237,13.542,38.33,25.869,63.996.11.228.219.455.328.682.376.781.756,1.566,1.14,2.356.099.204.2.414.299.618-12.167,10.015-29.318,21.895-44.22,23.961Zm112.494-97.662c-23.991,30.827-46.028,54.84-65.54,71.414-.129-.266-.26-.534-.389-.799-.153-.316-.306-.634-.461-.956-.194-.402-.385-.801-.577-1.201-8.015-16.737-18.178-39.859-25.414-62.969-7.311-23.543-9.111-39.208-9.195-48.694,0-.062-.001-.125-.001-.187-.002-.248-.002-.493-.002-.732.002-.497.007-.993.019-1.484.002-.061,0-.123-.006-.184,0-.012-.003-.033-.005-.063-.181-2.054-3.332-33.647-26.338-47.399-.052-.031-.104-.061-.156-.092-.19-.112-.377-.227-.569-.336,3.704-11.199,12.554-20.635,26.328-28.065,10.122-5.462,29.212-4.724,49.821,1.925,22.377,7.22,42.478,19.952,55.15,34.932,15.064,17.809,26.83,46.992-2.664,84.891Z"/><path class="cls-1" d="m256.474,65.553c.189,0,.38-.006.572-.017,4.872-.297,10.6-4.11,10.71-13.878.056-4.974-1.562-9.317-4.439-11.917-1.842-1.664-4.074-2.441-6.294-2.193-5.066.572-10.516,4.515-10.622,13.87-.056,5.017,1.365,9.162,4.002,11.672,1.701,1.619,3.789,2.464,6.07,2.464Zm.936-24.57h0c.149-.017.295-.025.438-.025,1.357,0,2.449.713,3.15,1.347,2.11,1.907,3.344,5.389,3.3,9.313-.07,6.179-2.93,10.19-7.464,10.466-1.521.091-2.92-.426-4.049-1.501-1.934-1.84-2.974-5.082-2.928-9.128.068-6.033,2.891-9.948,7.552-10.474Z"/><path class="cls-1" d="m219.565,48.26c1.766,1.459,3.825,2.212,6.017,2.212.426,0,.857-.029,1.292-.086,6.879-.904,10.994-7.101,10.485-15.787-.316-5.384-2.39-9.957-5.69-12.544-2.1-1.646-4.55-2.313-6.906-1.881-5.415.998-10.99,5.665-10.397,15.774.319,5.432,2.165,9.804,5.199,12.312Zm5.825-24.686c.275-.051.542-.074.802-.074,1.395,0,2.563.663,3.344,1.275,2.484,1.947,4.118,5.696,4.372,10.026.401,6.84-2.467,11.498-7.485,12.157-1.694.224-3.307-.248-4.656-1.364-2.285-1.889-3.688-5.387-3.95-9.85-.392-6.676,2.439-11.226,7.573-12.172Z"/><path class="cls-1" d="m287.515,67.751c-1.579-1.649-3.592-2.518-5.636-2.427-4.655.188-9.88,3.417-10.587,11.912-.379,4.544.644,8.399,2.879,10.856,1.573,1.728,3.622,2.656,5.926,2.681.035,0,.069,0,.104,0,4.444,0,9.839-3.112,10.572-11.915.376-4.506-.812-8.555-3.259-11.108Zm-.186,10.821c-.45,5.402-3.174,8.745-7.117,8.745-.025,0-.051,0-.077,0-1.338-.015-2.485-.536-3.408-1.551-1.582-1.739-2.289-4.666-1.992-8.242.443-5.309,3.165-8.579,7.283-8.746.046-.002.091-.002.136-.002,1.281,0,2.261.737,2.865,1.368,1.735,1.811,2.599,4.962,2.31,8.429Z"/><path class="cls-1" d="m60.243,87.144c.922.271,1.84.406,2.743.406,1.621,0,3.191-.435,4.635-1.296,5.951-3.547,7.186-11.086,3.144-19.204-2.533-5.089-6.08-8.548-9.986-9.74-2.59-.79-5.16-.524-7.434.769-4.803,2.728-8.159,9.211-3.175,19.222,2.588,5.2,6.165,8.695,10.073,9.843Zm-5.191-26.06c1.451-.824,3.038-.981,4.719-.468,2.945.899,5.825,3.805,7.9,7.974,3.222,6.474,2.525,12.105-1.82,14.695-1.419.847-2.979,1.03-4.634.543-2.931-.861-5.83-3.801-7.953-8.067-3.369-6.768-2.717-12.117,1.788-14.676Z"/><path class="cls-1" d="m40.087,106.399c.188.011.375.016.56.016,2.315,0,4.396-.831,6.048-2.422,4.707-4.534,4.235-11.713-1.203-18.29-3.403-4.117-7.391-6.526-11.228-6.784-2.552-.169-4.865.625-6.684,2.306-5.839,5.392-3.221,12.996,1.176,18.315,3.477,4.205,7.501,6.641,11.331,6.858Zm-10.163-22.634c1.016-.938,2.246-1.412,3.663-1.412.146,0,.295.005.444.015,2.839.191,6.045,2.209,8.796,5.537,4.262,5.155,4.825,10.365,1.469,13.597-1.088,1.048-2.435,1.539-4.014,1.444-2.817-.16-6.048-2.204-8.863-5.609-4.455-5.389-5-10.336-1.495-13.573Z"/><path class="cls-1" d="m27.237,112.544c-3.393-3.424-7.167-5.282-10.666-5.187-2.337.053-4.375.969-5.893,2.648h0c-4.847,5.36-1.875,12.011,2.522,16.449,3.365,3.396,7.066,5.25,10.459,5.25.102,0,.205-.002.306-.005,2.322-.077,4.334-1.022,5.818-2.734,2.955-3.408,4.061-9.754-2.546-16.421Zm-.066,14.157c-.849.979-1.966,1.498-3.321,1.543-2.472.101-5.454-1.457-8.195-4.223-4.316-4.356-5.196-8.62-2.413-11.697h0c.878-.971,2.025-1.479,3.408-1.511,2.484-.072,5.453,1.46,8.132,4.163,4.13,4.168,5.046,8.66,2.389,11.724Z"/><path class="cls-1" d="m86.155,71.813c2.263,1.212,4.75,1.828,7.22,1.827,1.654,0,3.3-.276,4.864-.835,7.131-2.546,13.209-10.203,9.704-20.995-3.959-12.189-12.003-18.008-21.518-15.565-8.873,2.279-12.356,10.913-9.315,23.097,1.417,5.677,4.629,10.106,9.045,12.471Zm1.13-32.22c1.182-.304,2.293-.442,3.337-.442,8.563,0,12.608,9.338,14.033,13.727,2.023,6.229.464,13.799-7.578,16.672-2.983,1.064-6.369.779-9.289-.784-3.545-1.898-6.146-5.542-7.323-10.261-2.595-10.399-.173-17.115,6.821-18.911Z"/><path class="cls-1" d="m7.696,140.128c-2.151.049-4.028.892-5.427,2.439h0c-2.912,3.222-3.844,8.864,2.275,15.038,3.06,3.089,6.434,4.776,9.534,4.776.094,0,.188-.002.281-.005,2.139-.071,3.993-.942,5.36-2.519,2.707-3.123,3.73-8.927-2.299-15.011-3.086-3.115-6.542-4.79-9.723-4.718Zm9.41,17.464c-.731.843-1.694,1.29-2.863,1.329-2.171.06-4.812-1.295-7.245-3.749-3.81-3.846-4.6-7.595-2.166-10.287.757-.837,1.747-1.274,2.942-1.302,2.196-.036,4.813,1.297,7.189,3.695,3.646,3.68,4.467,7.632,2.142,10.313Z"/></g></svg>