<?xml version="1.0" encoding="utf-8"?>
<!-- Generator: Adobe Illustrator 28.2.0, SVG Export Plug-In . SVG Version: 6.00 Build 0)  -->
<svg version="1.1" id="_レイヤー_2" xmlns="http://www.w3.org/2000/svg" xmlns:xlink="http://www.w3.org/1999/xlink" x="0px"
	 y="0px" viewBox="0 0 274.6 51.1" style="enable-background:new 0 0 274.6 51.1;" xml:space="preserve">
<style type="text/css">
	.st0{fill:#FFFFFF;}
</style>
<g id="_レイヤー_1-2">
	<path class="st0" d="M8.6,43.5h22.6v6.9H0V0.7h8.6C8.6,0.7,8.6,43.5,8.6,43.5z"/>
	<path class="st0" d="M47,50.4h-8.6V0.7H47C47,0.7,47,50.4,47,50.4z"/>
	<path class="st0" d="M95.8,44c-1.8,2.3-4.3,4.1-7.5,5.3c-3.2,1.2-6.8,1.8-10.9,1.8c-4.2,0-7.9-0.9-11.1-2.8
		c-3.2-1.9-5.7-4.6-7.4-8.1s-2.6-7.6-2.7-12.3V24c0-7.5,1.8-13.4,5.4-17.6C65.2,2.1,70.2,0,76.7,0c5.5,0,9.9,1.4,13.2,4.1
		c3.3,2.7,5.2,6.7,5.9,11.8h-8.5c-1-6-4.4-9-10.4-9C73,7,70,8.4,68,11.2c-2,2.8-3.1,6.9-3.1,12.3v3.8c0,5.4,1.1,9.5,3.4,12.5
		c2.3,3,5.4,4.5,9.5,4.5c4.4,0,7.6-1,9.4-3v-9.7H76.9v-6.6h18.9C95.8,24.9,95.8,44,95.8,44z"/>
	<path class="st0" d="M144.8,50.4h-8.6V28.4h-22.3v22.1h-8.6V0.7h8.6v20.7h22.3V0.7h8.6C144.8,0.7,144.8,50.4,144.8,50.4z"/>
	<path class="st0" d="M191,7.7h-15.5v42.8h-8.6V7.7h-15.4v-7H191V7.7z"/>
	<path class="st0" d="M226.6,28.2h-20.4v15.3H230v6.9h-32.5V0.7h32.3v7h-23.7v13.7h20.4V28.2z"/>
	<path class="st0" d="M255.4,31.3h-9.6v19.1h-8.6V0.7h17.5c5.7,0,10.2,1.3,13.3,3.9c3.1,2.6,4.7,6.3,4.7,11.2c0,3.3-0.8,6.1-2.4,8.4
		c-1.6,2.2-3.8,4-6.7,5.2L274.6,50v0.4h-9.3L255.4,31.3L255.4,31.3z M245.7,24.3h8.9c2.9,0,5.2-0.7,6.8-2.2s2.5-3.5,2.5-6
		c0-2.7-0.8-4.7-2.3-6.2c-1.5-1.5-3.8-2.2-6.8-2.3h-9.1C245.7,7.7,245.7,24.3,245.7,24.3z"/>
</g>
</svg>
